<svg width="304" height="36" viewBox="0 0 304 36" fill="none" xmlns="http://www.w3.org/2000/svg">
<path fill-rule="evenodd" clip-rule="evenodd" d="M16.2262 0.0598263C9.11235 0.788403 3.135 5.56152 0.868824 12.3233C0.569699 13.2159 0.303032 14.3397 0.14086 15.3912C0.0251373 16.1415 0.00310944 16.5406 0.000225571 17.9376C-0.00339461 19.6697 0.0338503 20.1015 0.310641 21.5409C0.798015 24.0751 1.94985 26.6481 3.55954 28.7982C6.31855 32.4836 10.4108 34.9863 14.9377 35.7569C16.147 35.9628 17.1322 36.0274 18.489 35.9899C21.2349 35.9139 23.4451 35.3653 25.9517 34.1377C30.7059 31.8092 34.2267 27.4233 35.4834 22.2634C35.8544 20.7405 35.9469 19.8994 35.9491 18.0297C35.9507 16.7138 35.9268 16.1802 35.8411 15.606C35.5218 13.4692 35.0416 11.9169 34.1137 10.0223C31.8029 5.304 27.5117 1.83752 22.3483 0.518055C21.6309 0.334776 20.4779 0.138918 19.6098 0.0530154C18.866 -0.0206154 16.9745 -0.0168111 16.2262 0.0598263ZM20.448 0.750115C26.1959 1.63135 31.0133 5.12379 33.5784 10.2692C34.3742 11.8655 34.9313 13.6374 35.2273 15.514C35.383 16.5007 35.3866 19.4004 35.2334 20.4073C34.9446 22.306 34.405 24.0383 33.5902 25.6826C32.6916 27.4962 31.6942 28.89 30.281 30.3071C27.6083 32.9871 24.2423 34.6707 20.3833 35.2574C19.4046 35.4062 16.5454 35.4062 15.5667 35.2574C11.869 34.6951 8.52324 33.0677 5.90873 30.5594C2.90815 27.6808 1.04235 23.8182 0.634371 19.6403C0.5454 18.729 0.598476 16.3738 0.727085 15.526C1.02063 13.5918 1.53537 11.9626 2.39807 10.2371C4.51588 6.00153 8.16325 2.86786 12.6674 1.4142C13.8271 1.03991 14.8077 0.837736 16.4103 0.642553C16.9288 0.579353 19.8402 0.656972 20.448 0.750115ZM16.6251 1.46875C14.3934 1.65142 12.309 2.25175 10.3384 3.27946C4.57411 6.28556 1.10929 12.3826 1.50297 18.8273C1.57605 20.0232 1.68809 20.7646 1.96635 21.8935C3.33957 27.464 7.6309 31.9607 13.1766 33.6403C13.8206 33.8354 15.2906 34.1671 15.511 34.1671C15.6015 34.1671 15.6115 33.5777 15.6267 27.3716L15.6433 20.5761L15.8043 20.1624C16.2583 18.9955 17.0952 18.1612 18.2362 17.7379C18.7443 17.5495 19.7075 17.4837 20.291 17.5976C21.2471 17.7844 22.2453 18.4395 22.7342 19.2015L22.9271 19.5023H25.3138H27.7004V17.4774V15.4526H19.509H11.3175V18.5512V21.6499H7.69974H4.08189L4.0217 21.4198C3.98856 21.2932 3.90542 20.8956 3.837 20.5361C3.37755 18.1231 3.55936 15.5723 4.35708 13.2402C5.80209 9.01597 9.15082 5.69142 13.3731 4.28943C14.927 3.7734 16.3145 3.54815 17.9266 3.54999C19.5274 3.55189 20.9457 3.77487 22.3928 4.2523C27.7255 6.01147 31.4816 10.6131 32.186 16.2503C32.2695 16.9189 32.2886 18.6277 32.2183 19.1495L32.1708 19.5023H33.2434H34.3161L34.361 18.9654C34.4217 18.2407 34.3529 16.2936 34.2412 15.5753C33.7895 12.669 32.7767 10.2503 31.0344 7.91673C30.3791 7.03911 28.83 5.47648 27.9622 4.81773C24.681 2.32698 20.6583 1.1387 16.6251 1.46875ZM19.0458 5.96054C18.4901 6.11762 17.986 6.55799 17.741 7.10028C17.5623 7.4958 17.5636 8.19499 17.7436 8.5937C17.9277 9.00149 18.3782 9.46046 18.7595 9.6287C19.1872 9.81744 19.8742 9.82284 20.2834 9.64079C21.2835 9.19588 21.7325 7.99766 21.2672 7.01573C21.0711 6.60186 20.6998 6.2323 20.3045 6.05742C19.9593 5.9047 19.3964 5.86138 19.0458 5.96054ZM19.6841 7.07433L19.7896 7.40904L20.1937 7.42714L20.5977 7.44524L20.2988 7.65527C20.1343 7.77081 19.9899 7.87285 19.9777 7.88193C19.9655 7.89108 20.012 8.06577 20.0811 8.27015C20.1501 8.47454 20.1913 8.64174 20.1727 8.64174C20.1542 8.64174 20.0041 8.54277 19.8393 8.42177L19.5396 8.2018L19.24 8.42177C19.0751 8.54277 18.9251 8.64174 18.9065 8.64174C18.8879 8.64174 18.9292 8.47454 18.9982 8.27015C19.0672 8.06577 19.1137 7.89108 19.1016 7.88193C19.0894 7.87285 18.9449 7.77081 18.7805 7.65527L18.4816 7.44524L18.887 7.42714L19.2924 7.40898L19.3897 7.07433C19.4432 6.89025 19.5076 6.73961 19.5328 6.73961C19.558 6.73961 19.6261 6.89025 19.6841 7.07433ZM10.6426 11.679V12.8142H19.509H28.3753V11.679V10.5439H19.509H10.6426V11.679ZM9.73551 13.6885C9.78435 13.7645 9.9426 14.0269 10.0872 14.2716L10.35 14.7167L19.5295 14.7011L28.7089 14.6856L29.0319 14.1641C29.2094 13.8772 29.3552 13.6218 29.3559 13.5965C29.3565 13.5712 24.9222 13.5505 19.5019 13.5505H9.64672L9.73551 13.6885ZM5.69551 23.0151C5.56684 23.2314 4.90901 23.9172 4.86974 23.8759C4.8163 23.8198 4.50668 23.0634 4.50668 22.9892C4.50668 22.9612 4.78445 22.9384 5.12389 22.9384C5.60108 22.9384 5.73073 22.9558 5.69551 23.0151ZM10.7039 22.9719C10.7039 23.0387 9.26857 24.6586 9.22377 24.6424C9.17211 24.6237 7.75871 23.0048 7.75871 22.9643C7.75871 22.9501 8.42138 22.9384 9.23132 22.9384C10.0413 22.9384 10.7039 22.9535 10.7039 22.9719ZM6.34524 25.0093L6.34303 26.4052L6.19927 26.2294C6.12017 26.1327 5.88364 25.7687 5.67366 25.4205L5.29183 24.7875L5.79798 24.2004C6.0763 23.8776 6.31382 23.6133 6.32573 23.6133C6.33769 23.6133 6.34647 24.2415 6.34524 25.0093ZM8.02703 24.5816L8.68173 25.3351L7.93683 26.1923C7.52714 26.6637 7.18144 27.0494 7.16855 27.0494C7.15567 27.0494 7.14512 26.2702 7.14512 25.3178C7.14512 23.6297 7.148 23.5891 7.25869 23.7071C7.32122 23.7737 7.66691 24.1672 8.02703 24.5816ZM11.3038 26.1929L11.2868 27.0543L10.561 26.2191C10.1124 25.7029 9.8481 25.3502 9.86909 25.2956C9.88768 25.247 10.2144 24.8479 10.5949 24.4086L11.2868 23.6098L11.3038 24.4706C11.3132 24.944 11.3132 25.7191 11.3038 26.1929ZM30.2394 25.224C30.0834 25.5269 29.5586 26.2942 29.1901 26.758L28.861 27.1722H23.4026H17.9443V30.7617V34.3512H18.1502C18.9745 34.3512 20.6775 34.1377 21.6412 33.9136L22.1781 33.7887V31.5876V29.3864L25.9595 29.3684L29.7409 29.3504L30.0771 28.9823C30.9616 28.0135 31.8352 26.7865 32.418 25.6945C32.5906 25.371 32.7318 25.088 32.7318 25.0655C32.7318 25.043 32.1941 25.0246 31.5369 25.0246H30.342L30.2394 25.224ZM9.99714 26.85L10.7242 27.6937L9.97775 27.711C9.5672 27.7204 8.89544 27.7204 8.48501 27.711L7.73864 27.6937L8.46967 26.8525C8.8717 26.3898 9.21623 26.0101 9.23531 26.0088C9.25439 26.0074 9.59721 26.386 9.99714 26.85Z" fill="white"/>
<path d="M18.536 23.3339L19.1313 23.8064L18.8613 24.0411L18.2752 23.5717L18.536 23.3339ZM19.1421 22.4747V22.5897C19.1421 22.7585 19.1195 22.9104 19.0745 23.0454C19.0295 23.1794 18.9651 23.2935 18.8812 23.3876C18.7984 23.4817 18.6997 23.5538 18.5851 23.6039C18.4706 23.654 18.3437 23.6791 18.2046 23.6791C18.0665 23.6791 17.9397 23.654 17.8241 23.6039C17.7096 23.5538 17.6104 23.4817 17.5265 23.3876C17.4426 23.2935 17.3777 23.1794 17.3316 23.0454C17.2856 22.9104 17.2626 22.7585 17.2626 22.5897V22.4747C17.2626 22.3049 17.2851 22.153 17.3301 22.019C17.3761 21.885 17.4406 21.771 17.5234 21.6769C17.6073 21.5817 17.7065 21.5091 17.8211 21.459C17.9366 21.4089 18.0635 21.3838 18.2016 21.3838C18.3407 21.3838 18.4675 21.4089 18.582 21.459C18.6976 21.5091 18.7968 21.5817 18.8797 21.6769C18.9636 21.771 19.028 21.885 19.073 22.019C19.119 22.153 19.1421 22.3049 19.1421 22.4747ZM18.7155 22.5897V22.4716C18.7155 22.3499 18.7043 22.243 18.6818 22.1509C18.6593 22.0579 18.6255 21.9796 18.5805 21.9162C18.5365 21.8528 18.4828 21.8052 18.4194 21.7735C18.356 21.7408 18.2834 21.7244 18.2016 21.7244C18.1208 21.7244 18.0486 21.7408 17.9852 21.7735C17.9218 21.8052 17.8681 21.8528 17.8241 21.9162C17.7801 21.9796 17.7464 22.0579 17.7229 22.1509C17.7004 22.243 17.6891 22.3499 17.6891 22.4716V22.5897C17.6891 22.7104 17.7004 22.8173 17.7229 22.9104C17.7464 23.0035 17.7801 23.0822 17.8241 23.1467C17.8691 23.2101 17.9233 23.2582 17.9868 23.2909C18.0512 23.3236 18.1238 23.34 18.2046 23.34C18.2865 23.34 18.3591 23.3236 18.4225 23.2909C18.4859 23.2582 18.5391 23.2101 18.582 23.1467C18.626 23.0822 18.6593 23.0035 18.6818 22.9104C18.7043 22.8173 18.7155 22.7104 18.7155 22.5897ZM20.7469 21.4145H21.1688V22.8981C21.1688 23.0689 21.132 23.2126 21.0583 23.3293C20.9847 23.4448 20.8844 23.5323 20.7576 23.5916C20.6308 23.6499 20.4866 23.6791 20.325 23.6791C20.1613 23.6791 20.0156 23.6499 19.8877 23.5916C19.7598 23.5323 19.6596 23.4448 19.587 23.3293C19.5144 23.2126 19.4781 23.0689 19.4781 22.8981V21.4145H19.9V22.8981C19.9 23.0025 19.9174 23.0879 19.9521 23.1543C19.9869 23.2198 20.036 23.2684 20.0994 23.3001C20.1628 23.3318 20.238 23.3477 20.325 23.3477C20.4129 23.3477 20.4881 23.3318 20.5505 23.3001C20.6139 23.2684 20.6625 23.2198 20.6962 23.1543C20.73 23.0879 20.7469 23.0025 20.7469 22.8981V21.4145ZM22.4238 21.7536L21.7871 23.6484H21.3406L22.1753 21.4145H22.4606L22.4238 21.7536ZM22.9562 23.6484L22.3164 21.7536L22.2781 21.4145H22.565L23.4042 23.6484H22.9562ZM22.927 22.8183V23.1513H21.7288V22.8183H22.927ZM22.5266 21.235H22.2228L22.2044 21.0233C22.2556 21.0202 22.297 21.0151 22.3287 21.0079C22.3604 20.9997 22.3834 20.9885 22.3977 20.9742C22.4131 20.9588 22.4207 20.9399 22.4207 20.9174C22.4207 20.897 22.4146 20.8796 22.4023 20.8652C22.3911 20.8509 22.3752 20.8397 22.3548 20.8315C22.3343 20.8233 22.3098 20.8177 22.2811 20.8146C22.2535 20.8105 22.2233 20.8085 22.1906 20.8085L22.2013 20.6136C22.2934 20.6136 22.3742 20.6208 22.4438 20.6351C22.5133 20.6484 22.5711 20.6684 22.6171 20.6949C22.6642 20.7205 22.6995 20.7517 22.723 20.7885C22.7475 20.8243 22.7598 20.8647 22.7598 20.9097C22.7598 20.9813 22.7353 21.0345 22.6862 21.0693C22.6381 21.1041 22.5849 21.1256 22.5266 21.1337V21.235ZM25.4294 21.4145V23.6484H25.006L24.0563 22.0988V23.6484H23.6343V21.4145H24.0563L25.009 22.9656V21.4145H25.4294ZM27.6019 22.4931V23.363C27.5692 23.4049 27.5175 23.4505 27.4469 23.4996C27.3774 23.5487 27.2864 23.5911 27.1739 23.6269C27.0613 23.6617 26.9233 23.6791 26.7596 23.6791C26.6174 23.6791 26.4875 23.6555 26.3699 23.6085C26.2523 23.5604 26.151 23.4903 26.0661 23.3983C25.9812 23.3062 25.9158 23.1937 25.8697 23.0608C25.8237 22.9278 25.8007 22.7759 25.8007 22.6051V22.4578C25.8007 22.287 25.8222 22.1351 25.8651 22.0021C25.9091 21.8692 25.9715 21.7566 26.0523 21.6646C26.1341 21.5725 26.2318 21.5025 26.3454 21.4544C26.4599 21.4063 26.5878 21.3823 26.7289 21.3823C26.9181 21.3823 27.0736 21.4135 27.1953 21.4759C27.3181 21.5383 27.4122 21.6242 27.4776 21.7336C27.5431 21.8421 27.584 21.9668 27.6004 22.108H27.1892C27.1779 22.0303 27.1554 21.9622 27.1217 21.9039C27.0879 21.8446 27.0399 21.7986 26.9775 21.7659C26.9161 21.7321 26.8363 21.7152 26.7381 21.7152C26.6553 21.7152 26.5821 21.7316 26.5187 21.7643C26.4553 21.797 26.4021 21.8446 26.3592 21.907C26.3162 21.9694 26.2835 22.0466 26.261 22.1387C26.2395 22.2307 26.2288 22.3361 26.2288 22.4547V22.6051C26.2288 22.7248 26.241 22.8311 26.2656 22.9242C26.2901 23.0163 26.3254 23.094 26.3714 23.1574C26.4185 23.2198 26.4763 23.2674 26.5448 23.3001C26.6144 23.3318 26.6931 23.3477 26.7811 23.3477C26.8609 23.3477 26.9268 23.341 26.979 23.3277C27.0322 23.3134 27.0746 23.2965 27.1063 23.2771C27.1381 23.2577 27.1626 23.2387 27.18 23.2203V22.8015H26.7366V22.4931H27.6019ZM29.6655 21.4145V23.6484H29.2451V21.4145H29.6655ZM30.359 21.4145V21.7474H28.5593V21.4145H30.359ZM30.6397 21.4145H31.4513C31.6211 21.4145 31.7669 21.4401 31.8886 21.4912C32.0103 21.5424 32.1039 21.6181 32.1694 21.7183C32.2348 21.8185 32.2676 21.9418 32.2676 22.088C32.2676 22.2036 32.2471 22.3039 32.2062 22.3888C32.1653 22.4737 32.1075 22.5447 32.0328 22.602C31.9592 22.6593 31.8722 22.7043 31.772 22.737L31.6401 22.8045H30.9236L30.9205 22.4716H31.4559C31.5429 22.4716 31.615 22.4563 31.6723 22.4256C31.7296 22.3949 31.7725 22.3524 31.8012 22.2982C31.8308 22.244 31.8456 22.1821 31.8456 22.1126C31.8456 22.0379 31.8313 21.9735 31.8027 21.9193C31.774 21.864 31.7306 21.8216 31.6723 21.7919C31.614 21.7623 31.5403 21.7474 31.4513 21.7474H31.0616V23.6484H30.6397V21.4145ZM31.9009 23.6484L31.3838 22.648L31.8303 22.6465L32.3535 23.6269V23.6484H31.9009ZM33.0869 21.4145V23.6484H32.6649V21.4145H33.0869ZM32.6435 24.0074C32.6435 23.9511 32.6639 23.9041 32.7048 23.8662C32.7468 23.8284 32.803 23.8095 32.8736 23.8095C32.9442 23.8095 32.9999 23.8284 33.0408 23.8662C33.0828 23.9041 33.1037 23.9511 33.1037 24.0074C33.1037 24.0626 33.0828 24.1087 33.0408 24.1455C32.9999 24.1833 32.9442 24.2022 32.8736 24.2022C32.803 24.2022 32.7468 24.1833 32.7048 24.1455C32.6639 24.1087 32.6435 24.0626 32.6435 24.0074Z" fill="white"/>
<path d="M50.8887 12.5469V22.5H48.8379V12.5469H50.8887ZM56.8496 12.5469L52.9053 17.4619L50.6289 19.9092L50.2598 17.9678L51.7979 15.8623L54.334 12.5469H56.8496ZM54.5186 22.5L51.5859 17.8994L53.1035 16.6279L56.9453 22.5H54.5186ZM64.376 16.6006V18.2002H59.1807V16.6006H64.376ZM59.7891 12.5469V22.5H57.7383V12.5469H59.7891ZM65.8389 12.5469V22.5H63.7949V12.5469H65.8389ZM75.7988 17.291V17.7627C75.7988 18.5192 75.6963 19.1982 75.4912 19.7998C75.2861 20.4014 74.9967 20.9141 74.623 21.3379C74.2493 21.7572 73.8027 22.0785 73.2832 22.3018C72.7682 22.5251 72.1963 22.6367 71.5674 22.6367C70.943 22.6367 70.3711 22.5251 69.8516 22.3018C69.3366 22.0785 68.89 21.7572 68.5117 21.3379C68.1335 20.9141 67.8395 20.4014 67.6299 19.7998C67.4248 19.1982 67.3223 18.5192 67.3223 17.7627V17.291C67.3223 16.5299 67.4248 15.8509 67.6299 15.2539C67.835 14.6523 68.1243 14.1396 68.498 13.7158C68.8763 13.292 69.3229 12.9684 69.8379 12.7451C70.3574 12.5218 70.9294 12.4102 71.5537 12.4102C72.1826 12.4102 72.7546 12.5218 73.2695 12.7451C73.7891 12.9684 74.2357 13.292 74.6094 13.7158C74.9876 14.1396 75.2793 14.6523 75.4844 15.2539C75.694 15.8509 75.7988 16.5299 75.7988 17.291ZM73.7275 17.7627V17.2773C73.7275 16.7487 73.6797 16.2839 73.584 15.8828C73.4883 15.4818 73.347 15.1445 73.1602 14.8711C72.9733 14.5977 72.7454 14.3926 72.4766 14.2559C72.2077 14.1146 71.9001 14.0439 71.5537 14.0439C71.2074 14.0439 70.8997 14.1146 70.6309 14.2559C70.3665 14.3926 70.141 14.5977 69.9541 14.8711C69.7718 15.1445 69.6328 15.4818 69.5371 15.8828C69.4414 16.2839 69.3936 16.7487 69.3936 17.2773V17.7627C69.3936 18.2868 69.4414 18.7516 69.5371 19.1572C69.6328 19.5583 69.7741 19.8978 69.9609 20.1758C70.1478 20.4492 70.3757 20.6566 70.6445 20.7979C70.9134 20.9391 71.221 21.0098 71.5674 21.0098C71.9137 21.0098 72.2214 20.9391 72.4902 20.7979C72.7591 20.6566 72.9847 20.4492 73.167 20.1758C73.3493 19.8978 73.4883 19.5583 73.584 19.1572C73.6797 18.7516 73.7275 18.2868 73.7275 17.7627ZM86.5312 19.1982H88.5752C88.5342 19.8682 88.3496 20.4629 88.0215 20.9824C87.6979 21.502 87.2445 21.9076 86.6611 22.1992C86.0824 22.4909 85.3851 22.6367 84.5693 22.6367C83.9313 22.6367 83.3594 22.5273 82.8535 22.3086C82.3477 22.0853 81.9147 21.7663 81.5547 21.3516C81.1992 20.9368 80.9281 20.4355 80.7412 19.8477C80.5544 19.2598 80.4609 18.6012 80.4609 17.8721V17.1816C80.4609 16.4525 80.5566 15.7939 80.748 15.2061C80.944 14.6136 81.222 14.11 81.582 13.6953C81.9466 13.2806 82.3818 12.9616 82.8877 12.7383C83.3936 12.515 83.9587 12.4033 84.583 12.4033C85.4124 12.4033 86.112 12.5537 86.6816 12.8545C87.2559 13.1553 87.7002 13.57 88.0146 14.0986C88.3337 14.6273 88.5251 15.2288 88.5889 15.9033H86.5381C86.5153 15.5023 86.4355 15.1628 86.2988 14.8848C86.1621 14.6022 85.9548 14.3903 85.6768 14.249C85.4033 14.1032 85.0387 14.0303 84.583 14.0303C84.2412 14.0303 83.9427 14.0941 83.6875 14.2217C83.4323 14.3493 83.2181 14.543 83.0449 14.8027C82.8717 15.0625 82.7419 15.3906 82.6553 15.7871C82.5732 16.179 82.5322 16.6393 82.5322 17.168V17.8721C82.5322 18.387 82.571 18.8405 82.6484 19.2324C82.7259 19.6198 82.8444 19.9479 83.0039 20.2168C83.168 20.4811 83.3776 20.6816 83.6328 20.8184C83.8926 20.9505 84.2048 21.0166 84.5693 21.0166C84.9977 21.0166 85.3509 20.9482 85.6289 20.8115C85.9069 20.6748 86.1188 20.472 86.2646 20.2031C86.415 19.9342 86.5039 19.5993 86.5312 19.1982ZM97.7627 11.7812H99.082C99.082 12.4193 98.9909 12.9616 98.8086 13.4082C98.6309 13.8548 98.3551 14.1966 97.9814 14.4336C97.6077 14.6706 97.127 14.7891 96.5391 14.7891V13.7295C96.8626 13.7295 97.1133 13.652 97.291 13.4971C97.4688 13.3421 97.5918 13.1188 97.6602 12.8271C97.7285 12.5355 97.7627 12.1868 97.7627 11.7812ZM98.0703 17.291V17.7627C98.0703 18.5192 97.9678 19.1982 97.7627 19.7998C97.5622 20.4014 97.2728 20.9141 96.8945 21.3379C96.5208 21.7572 96.0742 22.0785 95.5547 22.3018C95.0397 22.5251 94.4701 22.6367 93.8457 22.6367C93.349 22.6367 92.8818 22.5661 92.4443 22.4248C92.0114 22.279 91.6195 22.0693 91.2686 21.7959C90.9222 21.5179 90.6237 21.1807 90.373 20.7842C90.1224 20.3877 89.9287 19.9365 89.792 19.4307C89.6598 18.9248 89.5938 18.3688 89.5938 17.7627V17.291C89.5938 16.5299 89.6963 15.8509 89.9014 15.2539C90.111 14.6523 90.4027 14.1396 90.7764 13.7158C91.1546 13.292 91.6012 12.9684 92.1162 12.7451C92.6357 12.5218 93.2077 12.4102 93.832 12.4102C94.3288 12.4102 94.7936 12.4831 95.2266 12.6289C95.6641 12.7702 96.056 12.9798 96.4023 13.2578C96.7533 13.5312 97.0518 13.8662 97.2979 14.2627C97.5485 14.6592 97.7399 15.1104 97.8721 15.6162C98.0042 16.1221 98.0703 16.6803 98.0703 17.291ZM95.999 17.7627V17.2773C95.999 16.8581 95.9671 16.4775 95.9033 16.1357C95.8441 15.7939 95.7529 15.4932 95.6299 15.2334C95.5114 14.9736 95.3633 14.7572 95.1855 14.584C95.0124 14.4062 94.8118 14.2718 94.584 14.1807C94.3607 14.0895 94.11 14.0439 93.832 14.0439C93.4857 14.0439 93.1781 14.1146 92.9092 14.2559C92.6403 14.3926 92.4124 14.5977 92.2256 14.8711C92.0433 15.1445 91.9043 15.4818 91.8086 15.8828C91.7129 16.2839 91.665 16.7487 91.665 17.2773V17.7627C91.665 18.182 91.6947 18.5625 91.7539 18.9043C91.8177 19.2461 91.9089 19.5492 92.0273 19.8135C92.1504 20.0732 92.2985 20.292 92.4717 20.4697C92.6494 20.6475 92.8522 20.7819 93.0801 20.873C93.3125 20.9642 93.5677 21.0098 93.8457 21.0098C94.1921 21.0098 94.4974 20.9391 94.7617 20.7979C95.0306 20.6566 95.2562 20.4492 95.4385 20.1758C95.6253 19.8978 95.7643 19.5583 95.8555 19.1572C95.9512 18.7516 95.999 18.2868 95.999 17.7627ZM108.434 19.8955C108.434 19.7178 108.406 19.5583 108.352 19.417C108.301 19.2712 108.206 19.139 108.064 19.0205C107.923 18.8975 107.725 18.7767 107.47 18.6582C107.215 18.5397 106.884 18.4167 106.479 18.2891C106.027 18.1432 105.599 17.9792 105.193 17.7969C104.792 17.6146 104.437 17.4027 104.127 17.1611C103.822 16.915 103.58 16.6302 103.402 16.3066C103.229 15.9831 103.143 15.6071 103.143 15.1787C103.143 14.764 103.234 14.388 103.416 14.0508C103.598 13.709 103.854 13.4173 104.182 13.1758C104.51 12.9297 104.897 12.7406 105.344 12.6084C105.795 12.4762 106.289 12.4102 106.827 12.4102C107.561 12.4102 108.201 12.5423 108.748 12.8066C109.295 13.071 109.719 13.4333 110.02 13.8936C110.325 14.3538 110.478 14.8802 110.478 15.4727H108.44C108.44 15.181 108.379 14.9258 108.256 14.707C108.137 14.4837 107.955 14.3083 107.709 14.1807C107.467 14.0531 107.162 13.9893 106.793 13.9893C106.438 13.9893 106.141 14.0439 105.904 14.1533C105.667 14.2581 105.49 14.4017 105.371 14.584C105.253 14.7617 105.193 14.9622 105.193 15.1855C105.193 15.3542 105.234 15.5068 105.316 15.6436C105.403 15.7803 105.531 15.9079 105.699 16.0264C105.868 16.1449 106.075 16.2565 106.321 16.3613C106.567 16.4661 106.852 16.5687 107.176 16.6689C107.718 16.833 108.194 17.0176 108.604 17.2227C109.019 17.4277 109.366 17.6579 109.644 17.9131C109.922 18.1683 110.131 18.4577 110.272 18.7812C110.414 19.1048 110.484 19.4717 110.484 19.8818C110.484 20.3148 110.4 20.7021 110.231 21.0439C110.063 21.3857 109.819 21.6751 109.5 21.9121C109.181 22.1491 108.8 22.3291 108.358 22.4521C107.916 22.5752 107.422 22.6367 106.875 22.6367C106.383 22.6367 105.897 22.5729 105.419 22.4453C104.94 22.3132 104.505 22.1149 104.113 21.8506C103.726 21.5863 103.416 21.249 103.184 20.8389C102.951 20.4287 102.835 19.9434 102.835 19.3828H104.893C104.893 19.6927 104.94 19.9548 105.036 20.1689C105.132 20.3831 105.266 20.5563 105.439 20.6885C105.617 20.8206 105.827 20.9163 106.068 20.9756C106.314 21.0348 106.583 21.0645 106.875 21.0645C107.23 21.0645 107.522 21.0143 107.75 20.9141C107.982 20.8138 108.153 20.6748 108.263 20.4971C108.377 20.3193 108.434 20.1188 108.434 19.8955ZM119.72 11.7812H121.039C121.039 12.4193 120.948 12.9616 120.766 13.4082C120.588 13.8548 120.312 14.1966 119.938 14.4336C119.565 14.6706 119.084 14.7891 118.496 14.7891V13.7295C118.82 13.7295 119.07 13.652 119.248 13.4971C119.426 13.3421 119.549 13.1188 119.617 12.8271C119.686 12.5355 119.72 12.1868 119.72 11.7812ZM120.027 17.291V17.7627C120.027 18.5192 119.925 19.1982 119.72 19.7998C119.519 20.4014 119.23 20.9141 118.852 21.3379C118.478 21.7572 118.031 22.0785 117.512 22.3018C116.997 22.5251 116.427 22.6367 115.803 22.6367C115.306 22.6367 114.839 22.5661 114.401 22.4248C113.968 22.279 113.576 22.0693 113.226 21.7959C112.879 21.5179 112.581 21.1807 112.33 20.7842C112.079 20.3877 111.886 19.9365 111.749 19.4307C111.617 18.9248 111.551 18.3688 111.551 17.7627V17.291C111.551 16.5299 111.653 15.8509 111.858 15.2539C112.068 14.6523 112.36 14.1396 112.733 13.7158C113.112 13.292 113.558 12.9684 114.073 12.7451C114.593 12.5218 115.165 12.4102 115.789 12.4102C116.286 12.4102 116.751 12.4831 117.184 12.6289C117.621 12.7702 118.013 12.9798 118.359 13.2578C118.71 13.5312 119.009 13.8662 119.255 14.2627C119.506 14.6592 119.697 15.1104 119.829 15.6162C119.961 16.1221 120.027 16.6803 120.027 17.291ZM117.956 17.7627V17.2773C117.956 16.8581 117.924 16.4775 117.86 16.1357C117.801 15.7939 117.71 15.4932 117.587 15.2334C117.468 14.9736 117.32 14.7572 117.143 14.584C116.969 14.4062 116.769 14.2718 116.541 14.1807C116.318 14.0895 116.067 14.0439 115.789 14.0439C115.443 14.0439 115.135 14.1146 114.866 14.2559C114.597 14.3926 114.369 14.5977 114.183 14.8711C114 15.1445 113.861 15.4818 113.766 15.8828C113.67 16.2839 113.622 16.7487 113.622 17.2773V17.7627C113.622 18.182 113.652 18.5625 113.711 18.9043C113.775 19.2461 113.866 19.5492 113.984 19.8135C114.107 20.0732 114.256 20.292 114.429 20.4697C114.606 20.6475 114.809 20.7819 115.037 20.873C115.27 20.9642 115.525 21.0098 115.803 21.0098C116.149 21.0098 116.454 20.9391 116.719 20.7979C116.988 20.6566 117.213 20.4492 117.396 20.1758C117.582 19.8978 117.721 19.5583 117.812 19.1572C117.908 18.7516 117.956 18.2868 117.956 17.7627ZM116.562 11.7197H115.078L114.969 10.8037C115.197 10.79 115.379 10.7673 115.516 10.7354C115.657 10.6989 115.759 10.6488 115.823 10.585C115.892 10.5212 115.926 10.4414 115.926 10.3457C115.926 10.25 115.901 10.1725 115.851 10.1133C115.805 10.0495 115.737 10.0016 115.646 9.96973C115.554 9.93327 115.45 9.9082 115.331 9.89453C115.213 9.8763 115.083 9.86719 114.941 9.86719L114.989 8.96484C115.413 8.96484 115.787 8.99447 116.11 9.05371C116.438 9.11296 116.712 9.20182 116.931 9.32031C117.149 9.43424 117.313 9.57324 117.423 9.7373C117.537 9.90137 117.594 10.0859 117.594 10.291C117.594 10.6055 117.487 10.8402 117.272 10.9951C117.058 11.1455 116.821 11.2389 116.562 11.2754V11.7197ZM128.265 22.5H126.098L126.111 20.9004H128.265C128.802 20.9004 129.256 20.7796 129.625 20.5381C129.994 20.292 130.272 19.9342 130.459 19.4648C130.65 18.9954 130.746 18.4281 130.746 17.7627V17.2773C130.746 16.7669 130.691 16.318 130.582 15.9307C130.477 15.5433 130.32 15.2174 130.11 14.9531C129.901 14.6888 129.643 14.4906 129.338 14.3584C129.033 14.2217 128.682 14.1533 128.285 14.1533H126.057V12.5469H128.285C128.951 12.5469 129.559 12.6608 130.11 12.8887C130.666 13.112 131.147 13.4333 131.553 13.8525C131.958 14.2718 132.271 14.7731 132.489 15.3564C132.713 15.9352 132.824 16.5801 132.824 17.291V17.7627C132.824 18.4691 132.713 19.1139 132.489 19.6973C132.271 20.2806 131.958 20.7819 131.553 21.2012C131.152 21.6159 130.671 21.9372 130.11 22.165C129.554 22.3883 128.939 22.5 128.265 22.5ZM127.26 12.5469V22.5H125.209V12.5469H127.26ZM143.194 11.9932H144.493C144.493 12.6631 144.407 13.235 144.233 13.709C144.06 14.1784 143.762 14.5384 143.338 14.7891C142.919 15.0352 142.338 15.1582 141.595 15.1582V14.0986C142.078 14.0986 142.433 14.0166 142.661 13.8525C142.889 13.6839 143.035 13.4424 143.099 13.1279C143.162 12.8135 143.194 12.4352 143.194 11.9932ZM139.811 12.5469H141.854V19.123C141.854 19.8887 141.69 20.5335 141.362 21.0576C141.039 21.5817 140.59 21.9759 140.016 22.2402C139.446 22.5046 138.79 22.6367 138.047 22.6367C137.304 22.6367 136.643 22.5046 136.064 22.2402C135.49 21.9759 135.039 21.5817 134.711 21.0576C134.387 20.5335 134.226 19.8887 134.226 19.123V12.5469H136.276V19.123C136.276 19.5697 136.347 19.9342 136.488 20.2168C136.63 20.4993 136.832 20.7067 137.097 20.8389C137.366 20.971 137.682 21.0371 138.047 21.0371C138.421 21.0371 138.737 20.971 138.997 20.8389C139.261 20.7067 139.462 20.4993 139.599 20.2168C139.74 19.9342 139.811 19.5697 139.811 19.123V12.5469ZM139.749 9.83301L140.884 9.9082C140.884 10.2409 140.818 10.5439 140.686 10.8174C140.553 11.0863 140.371 11.3027 140.139 11.4668C139.906 11.6263 139.64 11.7061 139.339 11.7061C139.12 11.7061 138.931 11.6764 138.771 11.6172C138.617 11.5579 138.473 11.4896 138.341 11.4121C138.209 11.3301 138.072 11.2594 137.931 11.2002C137.794 11.141 137.637 11.1113 137.459 11.1113C137.299 11.1113 137.163 11.1683 137.049 11.2822C136.939 11.3962 136.885 11.5602 136.885 11.7744L135.743 11.7129C135.743 11.3848 135.809 11.084 135.941 10.8105C136.074 10.5371 136.256 10.3184 136.488 10.1543C136.721 9.98568 136.985 9.90137 137.281 9.90137C137.468 9.90137 137.639 9.93327 137.794 9.99707C137.949 10.0563 138.097 10.1247 138.238 10.2021C138.384 10.2796 138.532 10.348 138.683 10.4072C138.833 10.4665 138.993 10.4961 139.161 10.4961C139.321 10.4961 139.457 10.4391 139.571 10.3252C139.69 10.2067 139.749 10.0426 139.749 9.83301ZM154.18 20.9004V22.5H149.169V20.9004H154.18ZM149.832 12.5469V22.5H147.781V12.5469H149.832ZM157.536 12.5469V22.5H155.492V12.5469H157.536ZM166.136 20.9004V22.5H160.838V20.9004H166.136ZM161.508 12.5469V22.5H159.457V12.5469H161.508ZM165.445 16.6006V18.1592H160.838V16.6006H165.445ZM166.129 12.5469V14.1533H160.838V12.5469H166.129ZM163.483 9.85352L165.548 11.7539V11.8359H163.982L162.909 10.8379L161.85 11.8359H160.312V11.7334L162.342 9.85352H163.483ZM161.822 24.0381C161.822 23.7738 161.923 23.5527 162.123 23.375C162.324 23.2018 162.592 23.1152 162.93 23.1152C163.262 23.1152 163.529 23.2018 163.729 23.375C163.935 23.5527 164.037 23.7738 164.037 24.0381C164.037 24.2979 163.935 24.5166 163.729 24.6943C163.529 24.8721 163.262 24.9609 162.93 24.9609C162.592 24.9609 162.324 24.8721 162.123 24.6943C161.923 24.5166 161.822 24.2979 161.822 24.0381ZM172.828 12.5469H174.872V19.123C174.872 19.8887 174.708 20.5335 174.38 21.0576C174.056 21.5817 173.607 21.9759 173.033 22.2402C172.464 22.5046 171.807 22.6367 171.064 22.6367C170.322 22.6367 169.661 22.5046 169.082 22.2402C168.508 21.9759 168.057 21.5817 167.729 21.0576C167.405 20.5335 167.243 19.8887 167.243 19.123V12.5469H169.294V19.123C169.294 19.5697 169.365 19.9342 169.506 20.2168C169.647 20.4993 169.85 20.7067 170.114 20.8389C170.383 20.971 170.7 21.0371 171.064 21.0371C171.438 21.0371 171.755 20.971 172.015 20.8389C172.279 20.7067 172.479 20.4993 172.616 20.2168C172.757 19.9342 172.828 19.5697 172.828 19.123V12.5469ZM183.103 22.5H180.936L180.949 20.9004H183.103C183.64 20.9004 184.094 20.7796 184.463 20.5381C184.832 20.292 185.11 19.9342 185.297 19.4648C185.488 18.9954 185.584 18.4281 185.584 17.7627V17.2773C185.584 16.7669 185.529 16.318 185.42 15.9307C185.315 15.5433 185.158 15.2174 184.948 14.9531C184.739 14.6888 184.481 14.4906 184.176 14.3584C183.87 14.2217 183.52 14.1533 183.123 14.1533H180.895V12.5469H183.123C183.788 12.5469 184.397 12.6608 184.948 12.8887C185.504 13.112 185.985 13.4333 186.391 13.8525C186.796 14.2718 187.108 14.7731 187.327 15.3564C187.55 15.9352 187.662 16.5801 187.662 17.291V17.7627C187.662 18.4691 187.55 19.1139 187.327 19.6973C187.108 20.2806 186.796 20.7819 186.391 21.2012C185.99 21.6159 185.509 21.9372 184.948 22.165C184.392 22.3883 183.777 22.5 183.103 22.5ZM182.098 12.5469V22.5H180.047V12.5469H182.098ZM194.648 12.5469H196.692V19.123C196.692 19.8887 196.528 20.5335 196.2 21.0576C195.877 21.5817 195.428 21.9759 194.854 22.2402C194.284 22.5046 193.628 22.6367 192.885 22.6367C192.142 22.6367 191.481 22.5046 190.902 22.2402C190.328 21.9759 189.877 21.5817 189.549 21.0576C189.225 20.5335 189.063 19.8887 189.063 19.123V12.5469H191.114V19.123C191.114 19.5697 191.185 19.9342 191.326 20.2168C191.467 20.4993 191.67 20.7067 191.935 20.8389C192.203 20.971 192.52 21.0371 192.885 21.0371C193.258 21.0371 193.575 20.971 193.835 20.8389C194.099 20.7067 194.3 20.4993 194.437 20.2168C194.578 19.9342 194.648 19.5697 194.648 19.123V12.5469ZM192.481 9.88086L193.828 11.9863H192.215L190.342 9.88086H192.481ZM206.481 12.5469V22.5H204.431L200.432 15.8281V22.5H198.381V12.5469H200.432L204.438 19.2256V12.5469H206.481ZM216.154 17.2979V21.2422C215.999 21.429 215.76 21.6318 215.437 21.8506C215.113 22.0648 214.696 22.2493 214.186 22.4043C213.675 22.5592 213.058 22.6367 212.333 22.6367C211.69 22.6367 211.105 22.5319 210.576 22.3223C210.048 22.1081 209.592 21.7959 209.209 21.3857C208.831 20.9756 208.539 20.4743 208.334 19.8818C208.129 19.2848 208.026 18.6035 208.026 17.8379V17.2158C208.026 16.4502 208.124 15.7689 208.32 15.1719C208.521 14.5749 208.806 14.0713 209.175 13.6611C209.544 13.251 209.984 12.9388 210.494 12.7246C211.005 12.5104 211.572 12.4033 212.196 12.4033C213.062 12.4033 213.773 12.5446 214.329 12.8271C214.885 13.1051 215.309 13.4925 215.601 13.9893C215.897 14.4814 216.079 15.0465 216.147 15.6846H214.158C214.108 15.3473 214.012 15.0534 213.871 14.8027C213.73 14.5521 213.527 14.3561 213.263 14.2148C213.003 14.0736 212.666 14.0029 212.251 14.0029C211.909 14.0029 211.604 14.0736 211.335 14.2148C211.071 14.3516 210.847 14.5544 210.665 14.8232C210.483 15.0921 210.344 15.4248 210.248 15.8213C210.152 16.2178 210.104 16.6781 210.104 17.2021V17.8379C210.104 18.3574 210.155 18.8177 210.255 19.2188C210.355 19.6152 210.503 19.9502 210.699 20.2236C210.9 20.4925 211.146 20.6953 211.438 20.832C211.729 20.9688 212.069 21.0371 212.456 21.0371C212.78 21.0371 213.049 21.0098 213.263 20.9551C213.481 20.9004 213.657 20.8343 213.789 20.7568C213.926 20.6748 214.031 20.5973 214.104 20.5244V18.7607H212.23V17.2979H216.154ZM227.064 19.1982H229.108C229.067 19.8682 228.883 20.4629 228.555 20.9824C228.231 21.502 227.778 21.9076 227.194 22.1992C226.616 22.4909 225.918 22.6367 225.103 22.6367C224.465 22.6367 223.893 22.5273 223.387 22.3086C222.881 22.0853 222.448 21.7663 222.088 21.3516C221.732 20.9368 221.461 20.4355 221.274 19.8477C221.088 19.2598 220.994 18.6012 220.994 17.8721V17.1816C220.994 16.4525 221.09 15.7939 221.281 15.2061C221.477 14.6136 221.755 14.11 222.115 13.6953C222.48 13.2806 222.915 12.9616 223.421 12.7383C223.927 12.515 224.492 12.4033 225.116 12.4033C225.946 12.4033 226.645 12.5537 227.215 12.8545C227.789 13.1553 228.233 13.57 228.548 14.0986C228.867 14.6273 229.058 15.2288 229.122 15.9033H227.071C227.049 15.5023 226.969 15.1628 226.832 14.8848C226.695 14.6022 226.488 14.3903 226.21 14.249C225.937 14.1032 225.572 14.0303 225.116 14.0303C224.774 14.0303 224.476 14.0941 224.221 14.2217C223.965 14.3493 223.751 14.543 223.578 14.8027C223.405 15.0625 223.275 15.3906 223.188 15.7871C223.106 16.179 223.065 16.6393 223.065 17.168V17.8721C223.065 18.387 223.104 18.8405 223.182 19.2324C223.259 19.6198 223.378 19.9479 223.537 20.2168C223.701 20.4811 223.911 20.6816 224.166 20.8184C224.426 20.9505 224.738 21.0166 225.103 21.0166C225.531 21.0166 225.884 20.9482 226.162 20.8115C226.44 20.6748 226.652 20.472 226.798 20.2031C226.948 19.9342 227.037 19.5993 227.064 19.1982ZM237.093 16.6006V18.2002H231.897V16.6006H237.093ZM232.506 12.5469V22.5H230.455V12.5469H232.506ZM238.556 12.5469V22.5H236.512V12.5469H238.556ZM245.836 12.5469H247.88V19.123C247.88 19.8887 247.716 20.5335 247.388 21.0576C247.064 21.5817 246.615 21.9759 246.041 22.2402C245.471 22.5046 244.815 22.6367 244.072 22.6367C243.329 22.6367 242.669 22.5046 242.09 22.2402C241.516 21.9759 241.064 21.5817 240.736 21.0576C240.413 20.5335 240.251 19.8887 240.251 19.123V12.5469H242.302V19.123C242.302 19.5697 242.372 19.9342 242.514 20.2168C242.655 20.4993 242.858 20.7067 243.122 20.8389C243.391 20.971 243.708 21.0371 244.072 21.0371C244.446 21.0371 244.763 20.971 245.022 20.8389C245.287 20.7067 245.487 20.4993 245.624 20.2168C245.765 19.9342 245.836 19.5697 245.836 19.123V12.5469ZM257.669 12.5469V22.5H255.618L251.619 15.8281V22.5H249.568V12.5469H251.619L255.625 19.2256V12.5469H257.669ZM267.342 17.2979V21.2422C267.187 21.429 266.948 21.6318 266.624 21.8506C266.3 22.0648 265.883 22.2493 265.373 22.4043C264.863 22.5592 264.245 22.6367 263.521 22.6367C262.878 22.6367 262.292 22.5319 261.764 22.3223C261.235 22.1081 260.779 21.7959 260.396 21.3857C260.018 20.9756 259.727 20.4743 259.521 19.8818C259.316 19.2848 259.214 18.6035 259.214 17.8379V17.2158C259.214 16.4502 259.312 15.7689 259.508 15.1719C259.708 14.5749 259.993 14.0713 260.362 13.6611C260.731 13.251 261.171 12.9388 261.682 12.7246C262.192 12.5104 262.759 12.4033 263.384 12.4033C264.25 12.4033 264.961 12.5446 265.517 12.8271C266.073 13.1051 266.496 13.4925 266.788 13.9893C267.084 14.4814 267.267 15.0465 267.335 15.6846H265.346C265.296 15.3473 265.2 15.0534 265.059 14.8027C264.917 14.5521 264.715 14.3561 264.45 14.2148C264.19 14.0736 263.853 14.0029 263.438 14.0029C263.097 14.0029 262.791 14.0736 262.522 14.2148C262.258 14.3516 262.035 14.5544 261.853 14.8232C261.67 15.0921 261.531 15.4248 261.436 15.8213C261.34 16.2178 261.292 16.6781 261.292 17.2021V17.8379C261.292 18.3574 261.342 18.8177 261.442 19.2188C261.543 19.6152 261.691 19.9502 261.887 20.2236C262.087 20.4925 262.333 20.6953 262.625 20.832C262.917 20.9688 263.256 21.0371 263.644 21.0371C263.967 21.0371 264.236 21.0098 264.45 20.9551C264.669 20.9004 264.844 20.8343 264.977 20.7568C265.113 20.6748 265.218 20.5973 265.291 20.5244V18.7607H263.418V17.2979H267.342ZM276.563 12.5469V22.5H274.52V12.5469H276.563ZM279.626 12.5469V14.1533H271.505V12.5469H279.626ZM282.976 12.5469V22.5H280.932V12.5469H282.976ZM282.682 11.7129H281.198L281.089 10.7969C281.317 10.7832 281.499 10.7604 281.636 10.7285C281.777 10.6921 281.88 10.6419 281.943 10.5781C282.012 10.5143 282.046 10.4346 282.046 10.3389C282.046 10.2432 282.021 10.1657 281.971 10.1064C281.925 10.0426 281.857 9.99479 281.766 9.96289C281.674 9.92643 281.57 9.90137 281.451 9.8877C281.333 9.86947 281.203 9.86035 281.062 9.86035L281.109 8.95801C281.533 8.95801 281.907 8.98763 282.23 9.04688C282.559 9.10612 282.832 9.19499 283.051 9.31348C283.27 9.42741 283.434 9.56641 283.543 9.73047C283.657 9.89453 283.714 10.0791 283.714 10.2842C283.714 10.5986 283.607 10.8333 283.393 10.9883C283.178 11.1387 282.941 11.2321 282.682 11.2686V11.7129ZM292.997 12.5469V22.5H290.946L286.947 15.8281V22.5H284.896V12.5469H286.947L290.953 19.2256V12.5469H292.997ZM301.419 16.6006V18.2002H296.224V16.6006H301.419ZM296.832 12.5469V22.5H294.781V12.5469H296.832ZM302.882 12.5469V22.5H300.838V12.5469H302.882Z" fill="white"/>
</svg>
