<svg xmlns="http://www.w3.org/2000/svg" width="12" height="30" viewBox="0 0 12 12" fill="none">
<path d="M0.25 4.50003C0.249994 4.34663 0.297027 4.19691 0.384756 4.07108C0.472485 3.94524 0.59669 3.84933 0.740625 3.79628L10.2406 0.296276C10.333 0.262215 10.4313 0.24669 10.5297 0.250588C10.6281 0.254486 10.7248 0.27773 10.8142 0.318994C10.9037 0.360258 10.9841 0.418734 11.0509 0.491082C11.1178 0.56343 11.1697 0.648233 11.2038 0.740651C11.2378 0.833069 11.2533 0.931291 11.2494 1.02971C11.2455 1.12813 11.2223 1.22481 11.181 1.31425C11.1398 1.40368 11.0813 1.48411 11.0089 1.55095C10.9366 1.61778 10.8518 1.66971 10.7594 1.70378L3.16938 4.50003L10.7594 7.29628C10.9246 7.35715 11.0631 7.47422 11.1507 7.62697C11.2383 7.77972 11.2693 7.95842 11.2384 8.13176C11.2075 8.3051 11.1166 8.46204 10.9816 8.57507C10.8466 8.68811 10.6761 8.75004 10.5 8.75003C10.4115 8.75017 10.3236 8.73451 10.2406 8.70378L0.740625 5.20378C0.59669 5.15073 0.472485 5.05481 0.384756 4.92898C0.297027 4.80314 0.249994 4.65343 0.25 4.50003ZM10.5 9.75003H1C0.801088 9.75003 0.610322 9.82904 0.46967 9.9697C0.329018 10.1103 0.25 10.3011 0.25 10.5C0.25 10.6989 0.329018 10.8897 0.46967 11.0304C0.610322 11.171 0.801088 11.25 1 11.25H10.5C10.6989 11.25 10.8897 11.171 11.0303 11.0304C11.171 10.8897 11.25 10.6989 11.25 10.5C11.25 10.3011 11.171 10.1103 11.0303 9.9697C10.8897 9.82904 10.6989 9.75003 10.5 9.75003Z" fill="black"/>
</svg>