<svg xmlns="http://www.w3.org/2000/svg" width="12" height="30" viewBox="0 0 12 12" fill="none">
<path d="M1.24065 7.29628L8.83065 4.50003L1.24065 1.70378C1.05401 1.63499 0.902331 1.49487 0.818994 1.31425C0.735658 1.13363 0.727486 0.927297 0.796277 0.740651C0.865067 0.554005 1.00518 0.402331 1.18581 0.318994C1.36643 0.235658 1.57276 0.227486 1.7594 0.296277L11.2594 3.79628C11.4033 3.84931 11.5276 3.94522 11.6153 4.07106C11.7031 4.1969 11.7501 4.34662 11.7501 4.50003C11.7501 4.65344 11.7031 4.80315 11.6153 4.92899C11.5276 5.05483 11.4033 5.15074 11.2594 5.20378L1.7594 8.70378C1.57276 8.77257 1.36643 8.7644 1.18581 8.68106C1.00518 8.59772 0.865067 8.44605 0.796277 8.2594C0.727486 8.07276 0.735658 7.86643 0.818994 7.68581C0.902331 7.50518 1.05401 7.36507 1.24065 7.29628ZM11 9.75003H1.50003C1.30111 9.75003 1.11035 9.82904 0.969696 9.9697C0.829044 10.1103 0.750026 10.3011 0.750026 10.5C0.750026 10.6989 0.829044 10.8897 0.969696 11.0304C1.11035 11.171 1.30111 11.25 1.50003 11.25H11C11.1989 11.25 11.3897 11.171 11.5304 11.0304C11.671 10.8897 11.75 10.6989 11.75 10.5C11.75 10.3011 11.671 10.1103 11.5304 9.9697C11.3897 9.82904 11.1989 9.75003 11 9.75003Z" fill="black"/>
</svg>