<svg xmlns="http://www.w3.org/2000/svg" width="40" height="40" viewBox="0 0 40 40" fill="none">
<path d="M12 31.5C5.659 31.5 0.5 26.341 0.5 20C0.5 13.659 5.659 8.5 12 8.5C18.341 8.5 23.5 13.659 23.5 20C23.5 26.341 18.341 31.5 12 31.5Z" fill="#f0f4fe"/>
<path d="M12 9C18.065 9 23 13.935 23 20C23 26.065 18.065 31 12 31C5.935 31 1 26.065 1 20C1 13.935 5.935 9 12 9ZM12 8C5.373 8 0 13.373 0 20C0 26.627 5.373 32 12 32C18.627 32 24 26.627 24 20C24 13.373 18.627 8 12 8Z" fill="#416ef0"/>
<path d="M28 31.5C21.659 31.5 16.5 26.341 16.5 20C16.5 13.659 21.659 8.5 28 8.5C34.341 8.5 39.5 13.659 39.5 20C39.5 26.341 34.341 31.5 28 31.5Z" fill="#f0f4fe"/>
<path d="M28 9C34.065 9 39 13.935 39 20C39 26.065 34.065 31 28 31C21.935 31 17 26.065 17 20C17 13.935 21.935 9 28 9ZM28 8C21.373 8 16 13.373 16 20C16 26.627 21.373 32 28 32C34.627 32 40 26.627 40 20C40 13.373 34.627 8 28 8Z" fill="#416ef0"/>
<path d="M20 28.2438C17.771 26.0788 16.5 23.0998 16.5 20.0008C16.5 16.9018 17.771 13.9228 20 11.7578C22.229 13.9228 23.5 16.9018 23.5 20.0008C23.5 23.0998 22.229 26.0788 20 28.2438Z" fill="#FF4D4F"/>
<path d="M20 12.4702C21.917 14.5052 23 17.2012 23 20.0002C23 22.7992 21.917 25.4952 20 27.5302C18.083 25.4952 17 22.7992 17 20.0002C17 17.2012 18.083 14.5052 20 12.4702ZM20 11.0742C17.55 13.2712 16 16.4512 16 20.0002C16 23.5502 17.55 26.7292 20 28.9262C22.45 26.7292 24 23.5492 24 20.0002C24 16.4502 22.45 13.2712 20 11.0742Z" fill="#416ef0"/>
</svg>