<svg width="20" height="19" viewBox="0 0 20 19" fill="none" xmlns="http://www.w3.org/2000/svg">
    <path d="M6.65396 8.54082L7.40032 7.9127C7.6273 7.72167 7.96372 7.74016 8.1684 7.95492L9.61431 9.47206C9.84346 9.71249 10.2301 9.70258 10.4466 9.45073L18.4038 0.195461C18.614 -0.0490412 18.9865 -0.0666963 19.2189 0.156826L19.8277 0.742395C20.0444 0.950775 20.0585 1.29281 19.8598 1.51835L10.43 12.2206C10.2187 12.4605 9.84991 12.4757 9.61945 12.2541L6.62627 9.37518C6.38593 9.14401 6.39882 8.75555 6.65396 8.54082Z" fill="#000000"/>
    <path d="M14.1652 2.89131C13.8561 2.70744 13.5327 2.54697 13.1963 2.41085C12.3334 2.06051 11.4107 1.88116 10.4794 1.88278C10.2401 1.88278 10.004 1.89554 9.76785 1.91788C9.72092 1.92274 9.67398 1.90887 9.63723 1.87929C9.60048 1.84971 9.57689 1.80681 9.57161 1.75994L9.39453 0.32569C9.38336 0.225181 9.45515 0.134244 9.55566 0.123077C11.5778 -0.0834685 13.6546 0.389784 15.4167 1.54358L14.1652 2.89131Z" fill="#000000"/>
    <path d="M4.09787 15.4818C7.62206 19.006 13.3208 19.0092 16.8497 15.4898C19.6725 12.6747 20.2435 8.45886 18.5611 5.07847L17.2683 6.64248C17.5532 7.42989 17.6969 8.25538 17.6969 9.10027C17.6969 10.0384 17.5198 10.9525 17.1688 11.8172C16.8067 12.7122 16.2722 13.5147 15.583 14.2039C14.8938 14.8931 14.0913 15.4275 13.1947 15.7913C12.33 16.1423 11.4159 16.3194 10.4778 16.3194C9.53971 16.3194 8.62556 16.1423 7.76086 15.7913C6.86585 15.4291 6.06338 14.8947 5.37417 14.2055C4.68497 13.5163 4.15052 12.7138 3.78837 11.8188C3.43803 10.9559 3.25868 10.0332 3.2603 9.10187C3.2603 8.80513 3.27785 8.50998 3.31295 8.21962L4.79346 8.40149C4.82716 8.4058 4.86139 8.4005 4.89222 8.38621C4.92304 8.37192 4.94921 8.34922 4.96771 8.32073C4.98621 8.29223 4.99629 8.25909 4.99679 8.22511C4.99729 8.19114 4.98819 8.15772 4.97054 8.12868L3.01142 4.90921C2.95239 4.8087 2.81359 4.79115 2.73063 4.87411L0.0535876 7.52563C-0.0533027 7.62933 0.00891735 7.8128 0.158883 7.83194L1.52293 7.99946C1.19747 10.6605 2.05579 13.4397 4.09787 15.4818Z" fill="#000000"/>
</svg>
