<svg width="12" height="12" viewBox="0 0 12 12" fill="none" xmlns="http://www.w3.org/2000/svg">
<g id="icon">
<path id="Vector" d="M6.69379 5.99986L10.2094 1.80924C10.2683 1.73959 10.2188 1.63379 10.1277 1.63379H9.05897C8.99602 1.63379 8.93575 1.66191 8.89423 1.71013L5.99468 5.16682L3.09513 1.71013C3.05495 1.66191 2.99468 1.63379 2.93039 1.63379H1.86164C1.77057 1.63379 1.72102 1.73959 1.77995 1.80924L5.29557 5.99986L1.77995 10.1905C1.76675 10.206 1.75828 10.225 1.75555 10.2452C1.75282 10.2654 1.75594 10.2859 1.76454 10.3044C1.77314 10.3229 1.78686 10.3385 1.80407 10.3494C1.82129 10.3603 1.84127 10.366 1.86164 10.3659H2.93039C2.99334 10.3659 3.05361 10.3378 3.09513 10.2896L5.99468 6.8329L8.89423 10.2896C8.93441 10.3378 8.99468 10.3659 9.05897 10.3659H10.1277C10.2188 10.3659 10.2683 10.2601 10.2094 10.1905L6.69379 5.99986Z" fill="#416ef0"/>
</g>
</svg>
