<svg width="36" height="36" viewBox="0 0 36 36" fill="none" xmlns="http://www.w3.org/2000/svg">
    <path fill-rule="evenodd" clip-rule="evenodd" d="M34.2987 3.41317L32.5951 1.7096C32.5308 1.64531 32.4504 1.61719 32.3661 1.61719C32.2817 1.61719 32.2013 1.64933 32.1371 1.7096L29.0795 4.76719C27.7503 3.8666 26.181 3.38644 24.5755 3.38906C22.5183 3.38906 20.4612 4.17255 18.8902 5.74353L14.796 9.83772C14.7362 9.89814 14.7026 9.97972 14.7026 10.0647C14.7026 10.1497 14.7362 10.2313 14.796 10.2917L25.7125 21.2083C25.7768 21.2725 25.8571 21.3007 25.9415 21.3007C26.0219 21.3007 26.1063 21.2685 26.1705 21.2083L30.2647 17.1141C33.033 14.3417 33.3585 10.0547 31.2411 6.9288L34.2987 3.87121C34.4232 3.74263 34.4232 3.53772 34.2987 3.41317ZM28.3281 15.1815L25.9415 17.5681L18.4362 10.0627L20.8228 7.67612C21.8232 6.67567 23.1571 6.12121 24.5755 6.12121C25.9938 6.12121 27.3237 6.67165 28.3281 7.67612C29.3286 8.67656 29.883 10.0105 29.883 11.4288C29.883 12.8471 29.3286 14.177 28.3281 15.1815Z" fill="black" fill-opacity="0.85"/>
    <path d="M4.94158 5.35557C5.52859 4.77102 6.47834 4.77301 7.06289 5.36003L31.9007 30.3024C32.4852 30.8895 32.4832 31.8392 31.8962 32.4238C31.3092 33.0083 30.3594 33.0063 29.7749 32.4193L4.93712 7.47688C4.35256 6.88987 4.35456 5.94012 4.94158 5.35557Z" fill="black" fill-opacity="0.85"/>
    <path fill-rule="evenodd" clip-rule="evenodd" d="M3.79701 34.5911L2.09343 32.8875C1.96888 32.7629 1.96888 32.558 2.09343 32.4295L5.15102 29.3719C3.03361 26.246 3.35906 21.9589 6.12736 19.1866L10.2216 15.0924C10.2858 15.0321 10.3702 15 10.4506 15C10.535 15 10.6153 15.0281 10.6796 15.0924L21.5961 26.0089C21.6559 26.0693 21.6895 26.1509 21.6895 26.2359C21.6895 26.3209 21.6559 26.4025 21.5961 26.4629L17.5019 30.5571C15.9309 32.1281 13.8738 32.9116 11.8166 32.9116C10.2111 32.9142 8.64183 32.4341 7.31263 31.5335L4.25504 34.5911C4.19075 34.6513 4.1104 34.6835 4.02602 34.6835C3.94165 34.6835 3.86129 34.6553 3.79701 34.5911ZM10.4506 18.7326L8.06397 21.1192C7.06352 22.1236 6.50906 23.4536 6.50906 24.8719C6.50906 26.2902 7.06352 27.6241 8.06397 28.6245C9.06843 29.629 10.3983 30.1795 11.8166 30.1795C13.235 30.1795 14.5689 29.625 15.5693 28.6245L17.9559 26.2379L10.4506 18.7326Z" fill="black" fill-opacity="0.85"/>
</svg>
