<svg xmlns="http://www.w3.org/2000/svg" width="16" height="16" viewBox="0 0 16 16" fill="none">
    <g clip-path="url(#clip0_3382_17698)">
        <path d="M5.28544 2.14167H5.14258C5.22115 2.14167 5.28544 2.07739 5.28544 1.99881V2.14167H10.714V1.99881C10.714 2.07739 10.7783 2.14167 10.8569 2.14167H10.714V3.42739H11.9997V1.99881C11.9997 1.36846 11.4872 0.855957 10.8569 0.855957H5.14258C4.51222 0.855957 3.99972 1.36846 3.99972 1.99881V3.42739H5.28544V2.14167ZM14.2854 3.42739H1.71401C1.39794 3.42739 1.14258 3.68274 1.14258 3.99881V4.57024C1.14258 4.64881 1.20686 4.7131 1.28544 4.7131H2.36401L2.80508 14.0524C2.83365 14.6613 3.33722 15.1417 3.94615 15.1417H12.0533C12.664 15.1417 13.1658 14.6631 13.1944 14.0524L13.6354 4.7131H14.714C14.7926 4.7131 14.8569 4.64881 14.8569 4.57024V3.99881C14.8569 3.68274 14.6015 3.42739 14.2854 3.42739ZM11.9158 13.856H4.08365L3.65151 4.7131H12.3479L11.9158 13.856Z"
              fill="#416ef0"/>
    </g>
    <defs>
        <clipPath id="clip0_3382_17698">
            <rect width="16" height="16" fill="white" transform="translate(0 0.000427246)"/>
        </clipPath>
    </defs>
</svg>