<svg width="20" height="20" viewBox="0 0 20 20" fill="none" xmlns="http://www.w3.org/2000/svg">
    <path d="M9.85896 13.3217C9.87566 13.3431 9.897 13.3603 9.92137 13.3722C9.94573 13.3841 9.97248 13.3902 9.99958 13.3902C10.0267 13.3902 10.0534 13.3841 10.0778 13.3722C10.1022 13.3603 10.1235 13.3431 10.1402 13.3217L12.6402 10.1588C12.7317 10.0427 12.6491 9.87082 12.4996 9.87082H10.8456V2.31724C10.8456 2.21903 10.7652 2.13867 10.667 2.13867H9.32771C9.22949 2.13867 9.14914 2.21903 9.14914 2.31724V9.86858H7.49958C7.35003 9.86858 7.26744 10.0405 7.35896 10.1565L9.85896 13.3217ZM18.1692 12.5405H16.8299C16.7317 12.5405 16.6514 12.6208 16.6514 12.719V16.1565H3.3478V12.719C3.3478 12.6208 3.26744 12.5405 3.16922 12.5405H1.82994C1.73172 12.5405 1.65137 12.6208 1.65137 12.719V17.1387C1.65137 17.5338 1.97056 17.853 2.36565 17.853H17.6335C18.0286 17.853 18.3478 17.5338 18.3478 17.1387V12.719C18.3478 12.6208 18.2674 12.5405 18.1692 12.5405Z" fill="#828282"/>
</svg>
