<svg width="16" height="16" viewBox="0 0 16 16" fill="none" xmlns="http://www.w3.org/2000/svg">
    <g clip-path="url(#clip0_3094_31818)">
        <path d="M3.45921 12.2845C3.49492 12.2845 3.53064 12.281 3.56635 12.2756L6.56992 11.7488C6.60564 11.7417 6.63957 11.7256 6.66457 11.6988L14.2342 4.12917C14.2508 4.11265 14.2639 4.09303 14.2729 4.07143C14.2818 4.04982 14.2864 4.02667 14.2864 4.00328C14.2864 3.97989 14.2818 3.95673 14.2729 3.93513C14.2639 3.91353 14.2508 3.89391 14.2342 3.87739L11.2664 0.907743C11.2324 0.873814 11.1878 0.855957 11.1396 0.855957C11.0914 0.855957 11.0467 0.873814 11.0128 0.907743L3.44314 8.47739C3.41635 8.50417 3.40028 8.53631 3.39314 8.57203L2.86635 11.5756C2.84898 11.6713 2.85519 11.7697 2.88443 11.8624C2.91368 11.9552 2.96509 12.0394 3.03421 12.1077C3.15207 12.222 3.30028 12.2845 3.45921 12.2845ZM4.66278 9.17024L11.1396 2.69524L12.4485 4.00417L5.97171 10.4792L4.38421 10.7595L4.66278 9.17024ZM14.5717 13.7845H1.42885C1.11278 13.7845 0.857422 14.0399 0.857422 14.356V14.9988C0.857422 15.0774 0.921708 15.1417 1.00028 15.1417H15.0003C15.0789 15.1417 15.1431 15.0774 15.1431 14.9988V14.356C15.1431 14.0399 14.8878 13.7845 14.5717 13.7845Z"/>
    </g>
    <defs>
        <clipPath id="clip0_3094_31818">
            <rect width="16" height="16" fill="white" transform="translate(0 0.000427246)"/>
        </clipPath>
    </defs>
</svg>
