<svg width="20" height="20" viewBox="0 0 20 20" fill="none" xmlns="http://www.w3.org/2000/svg">
    <path d="M19.6028 9.42196C18.8181 7.76884 17.8844 6.42062 16.8015 5.37732L15.6658 6.51303C16.5919 7.39808 17.3986 8.55589 18.0961 9.99785C16.239 13.8416 13.6028 15.6675 10.0001 15.6675C8.91873 15.6675 7.92267 15.501 7.01196 15.1679L5.78138 16.3985C7.04626 16.9826 8.45251 17.2746 10.0001 17.2746C14.2903 17.2746 17.4912 15.0403 19.6028 10.5715C19.6877 10.3918 19.7317 10.1955 19.7317 9.99674C19.7317 9.79798 19.6877 9.60168 19.6028 9.42196ZM18.1838 2.26482L17.2323 1.31214C17.2157 1.29554 17.196 1.28236 17.1743 1.27338C17.1526 1.26439 17.1294 1.25977 17.1059 1.25977C17.0825 1.25977 17.0592 1.26439 17.0376 1.27338C17.0159 1.28236 16.9962 1.29554 16.9796 1.31214L14.5383 3.75232C13.1923 3.06482 11.6796 2.72107 10.0001 2.72107C5.70995 2.72107 2.50906 4.95544 0.39745 9.42419C0.312574 9.60392 0.268555 9.80021 0.268555 9.99897C0.268555 10.1977 0.312574 10.394 0.39745 10.5737C1.24105 12.3505 2.25668 13.7747 3.44433 14.8463L1.08227 17.2077C1.04881 17.2412 1.03001 17.2866 1.03001 17.3339C1.03001 17.3812 1.04881 17.4266 1.08227 17.4601L2.03517 18.413C2.06866 18.4465 2.11406 18.4653 2.1614 18.4653C2.20874 18.4653 2.25414 18.4465 2.28763 18.413L18.1838 2.5175C18.2004 2.50091 18.2136 2.48122 18.2226 2.45954C18.2316 2.43786 18.2362 2.41462 18.2362 2.39116C18.2362 2.36769 18.2316 2.34445 18.2226 2.32277C18.2136 2.3011 18.2004 2.2814 18.1838 2.26482ZM1.90415 9.99785C3.76352 6.1541 6.39968 4.32821 10.0001 4.32821C11.2175 4.32821 12.3245 4.53714 13.3287 4.96192L11.7595 6.53111C11.0164 6.1346 10.1654 5.98744 9.33228 6.11135C8.49913 6.23525 7.72786 6.62366 7.13225 7.21926C6.53665 7.81487 6.14824 8.58614 6.02434 9.41929C5.90043 10.2524 6.04759 11.1034 6.4441 11.8465L4.58205 13.7086C3.55147 12.799 2.66308 11.5666 1.90415 9.99785ZM7.41084 9.99785C7.41123 9.60425 7.50447 9.21628 7.68297 8.86548C7.86146 8.51467 8.1202 8.21092 8.43815 7.9789C8.75609 7.74688 9.12429 7.59312 9.51282 7.53013C9.90136 7.46714 10.2993 7.49669 10.6742 7.61638L7.52937 10.7612C7.45055 10.5145 7.41056 10.2569 7.41084 9.99785Z" fill="black" fill-opacity="0.85"/>
    <path d="M9.91074 12.5016C9.83351 12.5016 9.75739 12.498 9.68195 12.4911L8.50293 13.6701C9.21206 13.9417 9.98467 14.002 10.7274 13.8438C11.4701 13.6857 12.1511 13.3158 12.688 12.7788C13.2249 12.2419 13.5949 11.5609 13.753 10.8182C13.9112 10.0755 13.8508 9.30288 13.5793 8.59375L12.4003 9.77277C12.4072 9.84821 12.4107 9.92433 12.4107 10.0016C12.4109 10.3299 12.3464 10.6551 12.2208 10.9585C12.0952 11.2619 11.9111 11.5375 11.6789 11.7697C11.4467 12.0019 11.1711 12.186 10.8677 12.3116C10.5643 12.4372 10.2391 12.5017 9.91074 12.5016Z" fill="black" fill-opacity="0.85"/>
</svg>
