<svg xmlns="http://www.w3.org/2000/svg" width="16" height="16" viewBox="0 0 16 16" fill="none">
<g clip-path="url(#clip0_3382_17664)">
<path d="M13.7139 7.14546H12.4996V3.14546C12.4996 1.88296 11.4764 0.859741 10.2139 0.859741H5.7853C4.5228 0.859741 3.49958 1.88296 3.49958 3.14546V7.14546H2.2853C1.96922 7.14546 1.71387 7.40081 1.71387 7.71689V14.574C1.71387 14.8901 1.96922 15.1455 2.2853 15.1455H13.7139C14.0299 15.1455 14.2853 14.8901 14.2853 14.574V7.71689C14.2853 7.40081 14.0299 7.14546 13.7139 7.14546ZM4.7853 3.14546C4.7853 2.59367 5.23351 2.14546 5.7853 2.14546H10.2139C10.7657 2.14546 11.2139 2.59367 11.2139 3.14546V7.14546H4.7853V3.14546ZM12.9996 13.8597H2.99958V8.43117H12.9996V13.8597ZM7.49958 11.3776V12.324C7.49958 12.4026 7.56387 12.4669 7.64244 12.4669H8.35673C8.4353 12.4669 8.49958 12.4026 8.49958 12.324V11.3776C8.64699 11.2718 8.75701 11.1219 8.81382 10.9496C8.87062 10.7772 8.87128 10.5913 8.81569 10.4186C8.7601 10.2458 8.65114 10.0952 8.50448 9.9883C8.35783 9.88144 8.18104 9.82386 7.99958 9.82386C7.81812 9.82386 7.64134 9.88144 7.49468 9.9883C7.34803 10.0952 7.23906 10.2458 7.18348 10.4186C7.12789 10.5913 7.12854 10.7772 7.18535 10.9496C7.24215 11.1219 7.35218 11.2718 7.49958 11.3776Z" fill="black" fill-opacity="0.85"/>
</g>
<defs>
<clipPath id="clip0_3382_17664">
<rect width="16" height="16" fill="white" transform="translate(0 0.000427246)"/>
</clipPath>
</defs>
</svg>