<svg width="16" height="16" viewBox="0 0 16 16" fill="none" xmlns="http://www.w3.org/2000/svg">
    <g clip-path="url(#clip0_747_20848)">
        <path d="M13.7139 7.14558H12.4996V3.14558C12.4996 1.88308 11.4764 0.859863 10.2139 0.859863H5.7853C4.5228 0.859863 3.49958 1.88308 3.49958 3.14558V7.14558H2.2853C1.96922 7.14558 1.71387 7.40094 1.71387 7.71701V14.5742C1.71387 14.8902 1.96922 15.1456 2.2853 15.1456H13.7139C14.0299 15.1456 14.2853 14.8902 14.2853 14.5742V7.71701C14.2853 7.40094 14.0299 7.14558 13.7139 7.14558ZM4.7853 3.14558C4.7853 2.59379 5.23351 2.14558 5.7853 2.14558H10.2139C10.7657 2.14558 11.2139 2.59379 11.2139 3.14558V7.14558H4.7853V3.14558ZM12.9996 13.8599H2.99958V8.43129H12.9996V13.8599ZM7.49958 11.3777V12.3242C7.49958 12.4027 7.56387 12.467 7.64244 12.467H8.35673C8.4353 12.467 8.49958 12.4027 8.49958 12.3242V11.3777C8.64699 11.2719 8.75701 11.122 8.81382 10.9497C8.87062 10.7773 8.87128 10.5914 8.81569 10.4187C8.7601 10.2459 8.65114 10.0953 8.50448 9.98843C8.35783 9.88156 8.18104 9.82398 7.99958 9.82398C7.81812 9.82398 7.64134 9.88156 7.49468 9.98843C7.34803 10.0953 7.23906 10.2459 7.18348 10.4187C7.12789 10.5914 7.12854 10.7773 7.18535 10.9497C7.24215 11.122 7.35218 11.2719 7.49958 11.3777Z" fill="black" fill-opacity="0.85"/>
    </g>
    <defs>
        <clipPath id="clip0_747_20848">
            <rect width="16" height="16" fill="white" transform="translate(0 0.000488281)"/>
        </clipPath>
    </defs>
</svg>
