<svg width="17" height="16" viewBox="0 0 17 16" fill="none" xmlns="http://www.w3.org/2000/svg">
<g id="Ellipsis">
<path id="Vector" d="M2.5 7.98438C2.5 8.1157 2.52587 8.24573 2.57612 8.36706C2.62638 8.48838 2.70003 8.59862 2.79289 8.69148C2.88575 8.78434 2.99599 8.858 3.11732 8.90825C3.23864 8.95851 3.36868 8.98438 3.5 8.98438C3.63132 8.98438 3.76136 8.95851 3.88268 8.90825C4.00401 8.858 4.11425 8.78434 4.20711 8.69148C4.29997 8.59862 4.37362 8.48838 4.42388 8.36706C4.47413 8.24573 4.5 8.1157 4.5 7.98438C4.5 7.85305 4.47413 7.72302 4.42388 7.60169C4.37362 7.48037 4.29997 7.37013 4.20711 7.27727C4.11425 7.18441 4.00401 7.11075 3.88268 7.0605C3.76136 7.01024 3.63132 6.98438 3.5 6.98438C3.36868 6.98438 3.23864 7.01024 3.11732 7.0605C2.99599 7.11075 2.88575 7.18441 2.79289 7.27727C2.70003 7.37013 2.62638 7.48037 2.57612 7.60169C2.52587 7.72302 2.5 7.85305 2.5 7.98438ZM7.5 7.98438C7.5 8.24959 7.60536 8.50395 7.79289 8.69148C7.98043 8.87902 8.23478 8.98438 8.5 8.98438C8.76522 8.98438 9.01957 8.87902 9.20711 8.69148C9.39464 8.50395 9.5 8.24959 9.5 7.98438C9.5 7.71916 9.39464 7.4648 9.20711 7.27727C9.01957 7.08973 8.76522 6.98438 8.5 6.98438C8.23478 6.98438 7.98043 7.08973 7.79289 7.27727C7.60536 7.4648 7.5 7.71916 7.5 7.98438ZM12.5 7.98438C12.5 8.24959 12.6054 8.50395 12.7929 8.69148C12.9804 8.87902 13.2348 8.98438 13.5 8.98438C13.7652 8.98438 14.0196 8.87902 14.2071 8.69148C14.3946 8.50395 14.5 8.24959 14.5 7.98438C14.5 7.71916 14.3946 7.4648 14.2071 7.27727C14.0196 7.08973 13.7652 6.98438 13.5 6.98438C13.2348 6.98438 12.9804 7.08973 12.7929 7.27727C12.6054 7.4648 12.5 7.71916 12.5 7.98438Z" fill="black" fill-opacity="0.85"/>
</g>
</svg>
