<svg width="18" height="18" viewBox="0 0 18 18" fill="none" xmlns="http://www.w3.org/2000/svg">
    <path d="M0.825614 17.9685H17.2542C17.6493 17.9685 17.9685 17.6493 17.9685 17.2542V9.21847C17.9685 9.12026 17.8881 9.0399 17.7899 9.0399H16.5399C16.4417 9.0399 16.3613 9.12026 16.3613 9.21847V16.3613H1.71847V1.71847H8.86133C8.95954 1.71847 9.0399 1.63812 9.0399 1.5399V0.2899C9.0399 0.191686 8.95954 0.111328 8.86133 0.111328H0.825614C0.430525 0.111328 0.111328 0.430525 0.111328 0.825614V17.2542C0.111328 17.6493 0.430525 17.9685 0.825614 17.9685Z" />
    <path d="M13.6531 0.891027L14.8183 2.05621L5.21285 11.6661C5.14365 11.7353 5.14365 11.8491 5.21285 11.9183L6.15928 12.8647C6.22847 12.9339 6.34231 12.9339 6.41151 12.8647L16.0191 3.2571L17.1888 4.42674C17.2937 4.53165 17.4745 4.46915 17.4924 4.32183L17.9611 0.317366C17.9745 0.201295 17.8763 0.105311 17.7625 0.118703L13.758 0.587454C13.7248 0.591539 13.6934 0.604865 13.6674 0.625913C13.6413 0.646959 13.6218 0.674885 13.6108 0.706513C13.5999 0.73814 13.5981 0.7722 13.6055 0.804819C13.613 0.837438 13.6295 0.867306 13.6531 0.891027Z" />
</svg>
