<svg xmlns="http://www.w3.org/2000/svg" width="16" height="14" viewBox="0 0 16 14" fill="none">
    <path d="M13.3465 4.44507C12.5286 2.28614 10.4447 0.750427 8.00362 0.750427C5.56255 0.750427 3.47862 2.28436 2.66077 4.44328C1.12327 4.84864 -0.00887613 6.254 5.24419e-05 7.92186C0.0107667 9.78614 1.4572 11.3022 3.27862 11.4647C3.36255 11.4719 3.43398 11.4058 3.43398 11.3219V10.2433C3.43398 10.1719 3.38041 10.1111 3.30898 10.1022C2.82684 10.0415 2.37148 9.83078 2.02148 9.48614C1.59291 9.0665 1.3572 8.50221 1.3572 7.904C1.3572 7.404 1.5197 6.93257 1.82505 6.53971C2.12327 6.15757 2.54291 5.88078 3.00541 5.75936L3.6822 5.58078L3.93041 4.92543C4.08398 4.51828 4.29827 4.13614 4.56791 3.7915C4.83398 3.44864 5.15005 3.14864 5.50362 2.89864C6.23755 2.38257 7.10184 2.10936 8.00362 2.10936C8.90541 2.10936 9.7697 2.38257 10.5036 2.90043C10.859 3.15043 11.1733 3.45043 11.4393 3.79328C11.709 4.13793 11.9233 4.52007 12.0768 4.92721L12.3233 5.58078L12.9983 5.75936C13.9661 6.0165 14.6429 6.89686 14.6429 7.90221C14.6429 8.50221 14.4072 9.06471 13.9786 9.48436C13.6304 9.82721 13.1768 10.0397 12.6947 10.1004C12.6233 10.1094 12.5715 10.1701 12.5715 10.2415V11.3219C12.5715 11.4058 12.6447 11.4719 12.7286 11.4647C14.5447 11.3004 15.9876 9.78614 16.0001 7.92543C16.0108 6.25757 14.8804 4.85221 13.3465 4.44507Z"
          fill="black" fill-opacity="0.85"/>
    <path d="M5.58767 9.58269C5.61981 8.98447 5.86802 8.42733 6.29302 8.00055C6.7466 7.54519 7.36445 7.28983 8.00731 7.28983C8.65374 7.28983 9.26267 7.54162 9.7216 8.00055C9.7466 8.02555 9.76981 8.05055 9.79481 8.07733L9.34838 8.42733C9.32711 8.44378 9.31092 8.46591 9.30166 8.49116C9.29241 8.51641 9.29047 8.54375 9.29606 8.57005C9.30166 8.59636 9.31457 8.62055 9.3333 8.63984C9.35203 8.65913 9.37583 8.67275 9.40195 8.67912L11.1555 9.10769C11.2448 9.12912 11.3323 9.06126 11.3323 8.97019L11.3412 7.16126C11.3412 7.04162 11.2055 6.97376 11.1109 7.04876L10.6966 7.37376C10.043 6.62376 9.08231 6.14876 8.0091 6.14876C6.09124 6.14876 4.52695 7.6684 4.44838 9.57197C4.44481 9.65233 4.5091 9.72019 4.59124 9.72019H5.4466C5.5216 9.7184 5.5841 9.65947 5.58767 9.58269ZM11.4109 9.7184H10.5555C10.4805 9.7184 10.418 9.77733 10.4127 9.85412C10.3805 10.4523 10.1323 11.0095 9.70731 11.4363C9.25374 11.8916 8.63588 12.147 7.99302 12.147C7.3466 12.147 6.73767 11.8952 6.27874 11.4363C6.25374 11.4113 6.23052 11.3863 6.20552 11.3595L6.65195 11.0095C6.67322 10.993 6.68942 10.9709 6.69867 10.9456C6.70793 10.9204 6.70987 10.8931 6.70427 10.8667C6.69868 10.8404 6.68577 10.8163 6.66704 10.797C6.6483 10.7777 6.62451 10.7641 6.59838 10.7577L4.84481 10.3291C4.75552 10.3077 4.66802 10.3755 4.66802 10.4666L4.66088 12.2773C4.66088 12.397 4.7966 12.4648 4.89124 12.3898L5.30552 12.0648C5.9591 12.8148 6.91981 13.2898 7.99302 13.2898C9.91088 13.2898 11.4752 11.7702 11.5537 9.86662C11.5573 9.78626 11.493 9.7184 11.4109 9.7184Z"
          fill="black" fill-opacity="0.85"/>
</svg>
