<svg width="14" height="16" viewBox="0 0 14 16" fill="none" xmlns="http://www.w3.org/2000/svg">
    <path d="M4.28544 2.14167H4.14258C4.22115 2.14167 4.28544 2.07739 4.28544 1.99881V2.14167H9.71401V1.99881C9.71401 2.07739 9.77829 2.14167 9.85687 2.14167H9.71401V3.42739H10.9997V1.99881C10.9997 1.36846 10.4872 0.855957 9.85687 0.855957H4.14258C3.51222 0.855957 2.99972 1.36846 2.99972 1.99881V3.42739H4.28544V2.14167ZM13.2854 3.42739H0.714007C0.397935 3.42739 0.142578 3.68274 0.142578 3.99881V4.57024C0.142578 4.64881 0.206864 4.7131 0.285435 4.7131H1.36401L1.80508 14.0524C1.83365 14.6613 2.33722 15.1417 2.94615 15.1417H11.0533C11.664 15.1417 12.1658 14.6631 12.1944 14.0524L12.6354 4.7131H13.714C13.7926 4.7131 13.8569 4.64881 13.8569 4.57024V3.99881C13.8569 3.68274 13.6015 3.42739 13.2854 3.42739ZM10.9158 13.856H3.08365L2.65151 4.7131H11.3479L10.9158 13.856Z"/>
</svg>
