<svg width="16" height="20" viewBox="0 0 16 20" fill="none" xmlns="http://www.w3.org/2000/svg">
    <path d="M13.6923 6.50001H5.00002V4.50001C5.00002 3.66668 5.29169 2.95834 5.87502 2.37501C6.45836 1.79168 7.16669 1.50001 8.00003 1.50001C8.83336 1.50001 9.54169 1.79168 10.125 2.37501C10.7084 2.95834 11 3.66668 11 4.50001H12.5C12.5 3.25131 12.0622 2.18914 11.1866 1.31351C10.3109 0.437878 9.24873 6.10352e-05 8.00003 6.10352e-05C6.75133 6.10352e-05 5.68915 0.437878 4.8135 1.31351C3.93787 2.18914 3.50005 3.25131 3.50005 4.50001V6.50001H2.30775C1.80904 6.50001 1.38307 6.67662 1.02987 7.02984C0.676657 7.38304 0.500049 7.80899 0.500049 8.30771V17.6923C0.500049 18.191 0.676657 18.6169 1.02987 18.9701C1.38307 19.3234 1.80904 19.5 2.30775 19.5H13.6923C14.191 19.5 14.617 19.3234 14.9702 18.9701C15.3234 18.6169 15.5 18.191 15.5 17.6923V8.30771C15.5 7.80899 15.3234 7.38304 14.9702 7.02984C14.617 6.67662 14.191 6.50001 13.6923 6.50001ZM13.6923 18H2.30775C2.218 18 2.14428 17.9711 2.08658 17.9134C2.02888 17.8557 2.00002 17.782 2.00002 17.6923V8.30771C2.00002 8.21796 2.02888 8.14424 2.08658 8.08654C2.14428 8.02884 2.218 7.99999 2.30775 7.99999H13.6923C13.7821 7.99999 13.8558 8.02884 13.9135 8.08654C13.9712 8.14424 14 8.21796 14 8.30771V17.6923C14 17.782 13.9712 17.8557 13.9135 17.9134C13.8558 17.9711 13.7821 18 13.6923 18ZM8.00003 14.75C7.51413 14.75 7.10099 14.5798 6.76062 14.2394C6.42024 13.899 6.25005 13.4859 6.25005 13C6.25005 12.5141 6.42024 12.101 6.76062 11.7606C7.10099 11.4202 7.51413 11.25 8.00003 11.25C8.48593 11.25 8.89906 11.4202 9.23942 11.7606C9.57981 12.101 9.75 12.5141 9.75 13C9.75 13.4859 9.57981 13.899 9.23942 14.2394C8.89906 14.5798 8.48593 14.75 8.00003 14.75Z" fill="#1C1B1F"/>
</svg>
