<svg width="20" height="20" viewBox="0 0 20 20" fill="none" xmlns="http://www.w3.org/2000/svg">
    <path d="M15.5137 6.04365C15.5137 2.98561 13.036 0.507935 9.97801 0.507935C6.91998 0.507935 4.4423 2.98561 4.4423 6.04365C4.4423 7.89186 5.34855 9.53026 6.74141 10.5347C6.73248 10.5392 6.72578 10.5414 6.72132 10.5436C5.72355 10.9655 4.82846 11.5704 4.05837 12.3428C3.29273 13.107 2.68318 14.013 2.26373 15.0102C1.85103 15.9866 1.62831 17.0329 1.60748 18.0928C1.60688 18.1166 1.61106 18.1403 1.61977 18.1625C1.62847 18.1846 1.64153 18.2049 1.65818 18.2219C1.67482 18.239 1.6947 18.2525 1.71667 18.2618C1.73863 18.271 1.76222 18.2758 1.78605 18.2758H3.1231C3.21908 18.2758 3.29944 18.1977 3.30167 18.1017C3.34632 16.3785 4.03605 14.7646 5.25703 13.5414C6.51819 12.2758 8.1923 11.5794 9.97801 11.5794C13.036 11.5794 15.5137 9.10168 15.5137 6.04365ZM9.97801 9.88294C7.85748 9.88294 6.13873 8.16418 6.13873 6.04365C6.13873 3.92311 7.85748 2.20436 9.97801 2.20436C12.0985 2.20436 13.8173 3.92311 13.8173 6.04365C13.8173 8.16418 12.0985 9.88294 9.97801 9.88294Z" />
    <path d="M13.1048 12.0561C13.0924 12.0386 13.0764 12.0245 13.0582 12.0148C13.04 12.005 13.0201 12 12.9998 12C12.9796 12 12.9596 12.005 12.9414 12.0148C12.9233 12.0245 12.9073 12.0386 12.8948 12.0561L11.0283 14.6447C11.0129 14.6662 11.0033 14.6921 11.0007 14.7193C10.9981 14.7465 11.0025 14.7739 11.0135 14.7985C11.0244 14.8231 11.0415 14.8438 11.0627 14.8583C11.0839 14.8727 11.1083 14.8804 11.1333 14.8803H12.3649V18.8539C12.3649 18.9342 12.4249 19 12.4982 19H13.4981C13.5715 19 13.6315 18.9342 13.6315 18.8539V14.8822H14.8664C14.9781 14.8822 15.0397 14.7415 14.9714 14.6465L13.1048 12.0561Z" />
    <path d="M17.1048 18.9439C17.0924 18.9614 17.0764 18.9755 17.0582 18.9852C17.04 18.995 17.0201 19 16.9998 19C16.9796 19 16.9596 18.995 16.9414 18.9852C16.9233 18.9755 16.9073 18.9614 16.8948 18.9439L15.0283 16.3553C15.0129 16.3338 15.0033 16.3079 15.0007 16.2807C14.9981 16.2535 15.0025 16.2261 15.0135 16.2015C15.0244 16.1769 15.0415 16.1562 15.0627 16.1417C15.0839 16.1273 15.1083 16.1196 15.1333 16.1197H16.3649V12.1461C16.3649 12.0658 16.4249 12 16.4982 12H17.4981C17.5715 12 17.6315 12.0658 17.6315 12.1461V16.1178H18.8664C18.9781 16.1178 19.0397 16.2585 18.9714 16.3535L17.1048 18.9439Z" />
</svg>
