<svg xmlns="http://www.w3.org/2000/svg" width="16" height="12" viewBox="0 0 16 12" fill="none">
    <path d="M15.6822 5.54077C13.9894 1.9747 11.4305 0.180054 8.0001 0.180054C4.56796 0.180054 2.01082 1.9747 0.31796 5.54255C0.250059 5.68633 0.214844 5.84337 0.214844 6.00238C0.214844 6.16138 0.250059 6.31842 0.31796 6.4622C2.01082 10.0283 4.56975 11.8229 8.0001 11.8229C11.4322 11.8229 13.9894 10.0283 15.6822 6.46041C15.8197 6.17113 15.8197 5.83541 15.6822 5.54077ZM8.0001 10.5372C5.11975 10.5372 3.01082 9.07648 1.52332 6.00148C3.01082 2.92648 5.11975 1.46577 8.0001 1.46577C10.8805 1.46577 12.9894 2.92648 14.4769 6.00148C12.9912 9.07648 10.8822 10.5372 8.0001 10.5372ZM7.92867 2.85863C6.19296 2.85863 4.78582 4.26577 4.78582 6.00148C4.78582 7.7372 6.19296 9.14434 7.92867 9.14434C9.66439 9.14434 11.0715 7.7372 11.0715 6.00148C11.0715 4.26577 9.66439 2.85863 7.92867 2.85863ZM7.92867 8.00148C6.82332 8.00148 5.92867 7.10684 5.92867 6.00148C5.92867 4.89613 6.82332 4.00148 7.92867 4.00148C9.03403 4.00148 9.92868 4.89613 9.92868 6.00148C9.92868 7.10684 9.03403 8.00148 7.92867 8.00148Z"
          fill="black" fill-opacity="0.85"/>
</svg>