<svg xmlns="http://www.w3.org/2000/svg" width="58" height="56" viewBox="0 0 58 56" fill="none">
<path d="M5.8 56C4.205 56 2.84007 55.4233 1.7052 54.2699C0.570333 53.1165 0.00193333 51.7283 0 50.1053V17.6842C0 16.0632 0.5684 14.6759 1.7052 13.5225C2.842 12.3691 4.20693 11.7914 5.8 11.7895H17.4V5.89474C17.4 4.27368 17.9684 2.88646 19.1052 1.73305C20.242 0.579649 21.6069 0.00196491 23.2 0H34.8C36.395 0 37.7609 0.577684 38.8977 1.73305C40.0345 2.88842 40.6019 4.27565 40.6 5.89474V11.7895H52.2C53.795 11.7895 55.1609 12.3672 56.2977 13.5225C57.4345 14.6779 58.0019 16.0651 58 17.6842V50.1053C58 51.7263 57.4326 53.1145 56.2977 54.2699C55.1628 55.4253 53.7969 56.002 52.2 56H5.8ZM5.8 50.1053H52.2V17.6842H5.8V50.1053ZM23.2 11.7895H34.8V5.89474H23.2V11.7895Z" fill="#007BEC"/>
</svg>