<svg xmlns="http://www.w3.org/2000/svg" width="66" height="60" viewBox="0 0 66 60" fill="none">
<path d="M32.1921 55H7.11714C5.94356 55 4.81804 54.4864 3.98819 53.5721C3.15834 52.6579 2.69214 51.4179 2.69214 50.125V7.875C2.69214 6.58207 3.15834 5.34209 3.98819 4.42785C4.81804 3.51361 5.94356 3 7.11714 3H57.2671C58.4407 3 59.5662 3.51361 60.3961 4.42785C61.2259 5.34209 61.6921 6.58207 61.6921 7.875V27.4709" stroke="#5B5B5B" stroke-width="5" stroke-linecap="round" stroke-linejoin="round"/>
<path d="M2.69214 8C2.69214 6.67392 3.15834 5.40215 3.98819 4.46447C4.81804 3.52678 5.94356 3 7.11714 3H57.2671C58.4407 3 59.5662 3.52678 60.3961 4.46447C61.2259 5.40215 61.6921 6.67392 61.6921 8V23H2.69214V8Z" stroke="#5B5B5B" stroke-width="5"/>
<path d="M10.1588 13C10.1588 11.3431 11.502 10 13.1588 10C14.8157 10 16.1588 11.3431 16.1588 13C16.1588 14.6569 14.8157 16 13.1588 16C11.502 16 10.1588 14.6569 10.1588 13Z" fill="#5B5B5B"/>
<path d="M20.1588 13C20.1588 11.3431 21.502 10 23.1588 10C24.8157 10 26.1588 11.3431 26.1588 13C26.1588 14.6569 24.8157 16 23.1588 16C21.502 16 20.1588 14.6569 20.1588 13Z" fill="#5B5B5B"/>
<path d="M53.4611 50C56.2225 50 58.4611 47.9853 58.4611 45.5C58.4611 43.0147 56.2225 41 53.4611 41C50.6996 41 48.4611 43.0147 48.4611 45.5C48.4611 47.9853 50.6996 50 53.4611 50Z" stroke="#5B5B5B" stroke-width="5"/>
<path d="M53.3077 57V50.4286M53.3077 40.5714V34M43.3077 51.25L49.022 47.9643M57.5935 43.0357L63.3077 39.75M43.3077 39.75L49.022 43.0357M57.5935 47.9643L63.3077 51.25" stroke="#5B5B5B" stroke-width="5" stroke-linecap="round" stroke-linejoin="round"/>
</svg>