<svg xmlns="http://www.w3.org/2000/svg" width="56" height="56" viewBox="0 0 56 56" fill="none">
<path d="M50 40V32C50 30.9391 49.5786 29.9217 48.8284 29.1716C48.0783 28.4214 47.0609 28 46 28H30V20H48C49.0609 20 50.0783 19.5786 50.8284 18.8284C51.5786 18.0783 52 17.0609 52 16V4C52 2.93913 51.5786 1.92172 50.8284 1.17157C50.0783 0.421427 49.0609 0 48 0H8C6.93913 0 5.92172 0.421427 5.17157 1.17157C4.42143 1.92172 4 2.93913 4 4V16C4 17.0609 4.42143 18.0783 5.17157 18.8284C5.92172 19.5786 6.93913 20 8 20H26V28H10C8.93913 28 7.92172 28.4214 7.17157 29.1716C6.42143 29.9217 6 30.9391 6 32V40H4C2.93913 40 1.92172 40.4214 1.17157 41.1716C0.421427 41.9217 0 42.9391 0 44V52C0 53.0609 0.421427 54.0783 1.17157 54.8284C1.92172 55.5786 2.93913 56 4 56H12C13.0609 56 14.0783 55.5786 14.8284 54.8284C15.5786 54.0783 16 53.0609 16 52V44C16 42.9391 15.5786 41.9217 14.8284 41.1716C14.0783 40.4214 13.0609 40 12 40H10V32H26V40H24C22.9391 40 21.9217 40.4214 21.1716 41.1716C20.4214 41.9217 20 42.9391 20 44V52C20 53.0609 20.4214 54.0783 21.1716 54.8284C21.9217 55.5786 22.9391 56 24 56H32C33.0609 56 34.0783 55.5786 34.8284 54.8284C35.5786 54.0783 36 53.0609 36 52V44C36 42.9391 35.5786 41.9217 34.8284 41.1716C34.0783 40.4214 33.0609 40 32 40H30V32H46V40H44C42.9391 40 41.9217 40.4214 41.1716 41.1716C40.4214 41.9217 40 42.9391 40 44V52C40 53.0609 40.4214 54.0783 41.1716 54.8284C41.9217 55.5786 42.9391 56 44 56H52C53.0609 56 54.0783 55.5786 54.8284 54.8284C55.5786 54.0783 56 53.0609 56 52V44C56 42.9391 55.5786 41.9217 54.8284 41.1716C54.0783 40.4214 53.0609 40 52 40H50ZM12 52H4V44H12V52ZM32 44V52H24V44H32ZM8 16V4H48V16H8ZM52 52H44V44H52V52Z" fill="#48CA08"/>
</svg>