<svg xmlns="http://www.w3.org/2000/svg" width="58" height="58" viewBox="0 0 58 58" fill="none">
<path d="M29 47.6667L41.4444 35.2222L37.0889 30.8667L32.1111 35.8444V22.7778H25.8889V35.8444L20.9111 30.8667L16.5555 35.2222L29 47.6667ZM7.22222 16.5556V50.7778H50.7778V16.5556H7.22222ZM7.22222 57C5.51111 57 4.04681 56.3913 2.82933 55.1738C1.61185 53.9563 1.00207 52.491 1 50.7778V11.9667C1 11.2408 1.11718 10.5408 1.35156 9.86668C1.58593 9.19261 1.93541 8.57038 2.4 8.00001L6.28889 3.25557C6.85926 2.52965 7.5717 1.97172 8.42622 1.58179C9.28074 1.19187 10.1757 0.997942 11.1111 1.00002H46.8889C47.8222 1.00002 48.7172 1.19498 49.5738 1.5849C50.4303 1.97483 51.1428 2.53172 51.7111 3.25557L55.6 8.00001C56.0666 8.57038 56.4172 9.19261 56.6515 9.86668C56.8859 10.5408 57.002 11.2408 57 11.9667V50.7778C57 52.4889 56.3912 53.9542 55.1738 55.1738C53.9563 56.3933 52.4909 57.0021 50.7778 57H7.22222ZM8.46666 10.3333H49.5333L46.8889 7.22224H11.1111L8.46666 10.3333Z" fill="#FAAD14" stroke="#F2F2F2"/>
</svg>