<svg xmlns="http://www.w3.org/2000/svg" width="54" height="56" viewBox="0 0 54 56" fill="none">
<path d="M14.7263 46.76L13.8895 44.8L14.4474 43.68C9.14737 42.28 6.07895 40.04 6.07895 39.2V33.04C9.70526 34.72 13.8895 35.84 18.9105 36.4C20.8632 34.16 23.3737 32.2 25.8842 30.8H22.8158C16.1211 30.8 9.70526 29.12 6.07895 26.6V18.48C10.2632 20.72 16.1211 22.4 22.8158 22.4C29.5105 22.4 35.3684 21 39.5526 18.48V26.32C38.7158 26.88 37.8789 27.44 36.7632 28C39.5526 28 42.3421 28.56 45.1316 29.68V11.2C45.1316 5.04 35.0895 0 22.8158 0C10.5421 0 0.5 5.04 0.5 11.2V39.2C0.5 44.24 7.19474 48.44 16.4 49.84C15.8421 49 15.2842 47.88 14.7263 46.76ZM22.8158 5.6C33.6947 5.6 39.5526 9.8 39.5526 11.2C39.5526 12.6 33.6947 16.8 22.8158 16.8C11.9368 16.8 6.07895 12.6 6.07895 11.2C6.07895 9.8 11.9368 5.6 22.8158 5.6ZM36.7632 42C38.4368 42 39.5526 43.12 39.5526 44.8C39.5526 46.48 38.4368 47.6 36.7632 47.6C35.0895 47.6 33.9737 46.48 33.9737 44.8C33.9737 43.12 35.0895 42 36.7632 42ZM36.7632 33.6C29.2316 33.6 22.5368 38.36 20.0263 44.8C22.5368 51.24 29.2316 56 36.7632 56C44.2947 56 50.9895 51.24 53.5 44.8C50.9895 38.36 44.2947 33.6 36.7632 33.6ZM36.7632 51.8C32.8579 51.8 29.7895 48.72 29.7895 44.8C29.7895 40.88 32.8579 37.8 36.7632 37.8C40.6684 37.8 43.7368 40.88 43.7368 44.8C43.7368 48.72 40.6684 51.8 36.7632 51.8Z" fill="#007BEC"/>
</svg>