<svg xmlns="http://www.w3.org/2000/svg" width="62" height="62" viewBox="0 0 62 62" fill="none">
<path d="M59 15.4444C59 22.32 46.4622 27.8889 31 27.8889C15.5378 27.8889 3 22.32 3 15.4444M59 15.4444C59 8.56889 46.4622 3 31 3C15.5378 3 3 8.56889 3 15.4444M59 15.4444V31M3 15.4444V31M3 31C3 37.8756 15.5378 43.4444 31 43.4444M3 31V46.5556C3 53.4311 15.5378 59 31 59M49.6667 40.3333V49.6667M49.6667 49.6667V59M49.6667 49.6667H59M49.6667 49.6667H40.3333" stroke="#5B5B5B" stroke-width="5" stroke-linecap="round" stroke-linejoin="round"/>
</svg>