<svg xmlns="http://www.w3.org/2000/svg" width="48" height="56" viewBox="0 0 48 56" fill="none">
<path fill-rule="evenodd" clip-rule="evenodd" d="M41.9702 2.8075e-07C43.3653 -0.000446822 44.709 0.533138 45.732 1.49379C46.7549 2.45444 47.3815 3.77117 47.4862 5.18L47.5 5.6V50.4C47.5004 51.8128 46.9735 53.1736 46.0249 54.2095C45.0763 55.2455 43.7761 55.88 42.385 55.986L41.9702 56H8.7916C7.3965 56.0004 6.05279 55.4669 5.02984 54.5062C4.00688 53.5456 3.38028 52.2288 3.27565 50.82L3.26182 50.4V47.6C2.55711 47.5992 1.87929 47.3259 1.36686 46.836C0.854425 46.3461 0.546055 45.6765 0.504756 44.9641C0.463456 44.2517 0.692344 43.5501 1.14465 43.0029C1.59696 42.4556 2.23855 42.1039 2.93833 42.0196L3.26182 42V36.4C2.55711 36.3992 1.87929 36.1259 1.36686 35.636C0.854425 35.1461 0.546055 34.4765 0.504756 33.7641C0.463456 33.0517 0.692344 32.3501 1.14465 31.8029C1.59696 31.2556 2.23855 30.9039 2.93833 30.8196L3.26182 30.8V25.2C2.55711 25.1992 1.87929 24.9259 1.36686 24.436C0.854425 23.9461 0.546055 23.2765 0.504756 22.5641C0.463456 21.8517 0.692344 21.1501 1.14465 20.6029C1.59696 20.0556 2.23855 19.7039 2.93833 19.6196L3.26182 19.6V14C2.55711 13.9992 1.87929 13.7259 1.36686 13.236C0.854425 12.7461 0.546055 12.0765 0.504756 11.3641C0.463456 10.6517 0.692344 9.95014 1.14465 9.40287C1.59696 8.8556 2.23855 8.50389 2.93833 8.4196L3.26182 8.4V5.6C3.26138 4.18719 3.78828 2.82641 4.73688 1.79047C5.68549 0.754518 6.98569 0.119962 8.37686 0.0140006L8.7916 2.8075e-07H41.9702ZM41.9702 5.6H8.7916V50.4H41.9702V5.6ZM35.058 11.2C36.089 11.2001 37.083 11.589 37.8462 12.2909C38.6094 12.9929 39.087 13.9576 39.186 14.9968L39.2053 15.4V21C39.2053 22.0441 38.8212 23.0507 38.1281 23.8236C37.4349 24.5965 36.4824 25.0802 35.4562 25.1804L35.058 25.2H15.7038C14.6728 25.1999 13.6788 24.811 12.9156 24.1091C12.1525 23.4071 11.6748 22.4424 11.5758 21.4032L11.5565 21V15.4C11.5565 14.3559 11.9406 13.3493 12.6337 12.5764C13.3269 11.8035 14.2795 11.3198 15.3057 11.2196L15.7038 11.2H35.058ZM33.6756 16.8H17.0863V19.6H33.6756V16.8Z" fill="#5B5B5B"/>
</svg>