<svg xmlns="http://www.w3.org/2000/svg" version="1.0" width="32" height="32" viewBox="0 0 250.000000 250.000000" preserveAspectRatio="xMidYMid meet">

<g transform="translate(0.000000,250.000000) scale(0.100000,-0.100000)" fill="#336791" stroke="none">
<path d="M1557 2220 c-32 -5 -73 -13 -90 -18 -18 -5 -65 -5 -107 0 -89 10 -191 -3 -260 -33 l-48 -21 -89 23 c-125 33 -323 33 -403 1 -283 -114 -327 -418 -144 -987 87 -270 197 -416 311 -415 15 0 48 9 71 20 l44 20 46 -28 c43 -25 56 -27 147 -27 55 0 109 3 121 8 21 7 21 4 27 -115 11 -238 75 -351 213 -373 52 -8 161 17 226 52 105 57 159 180 174 393 l7 96 93 11 c107 13 181 43 242 98 51 45 69 94 52 136 -20 48 -59 62 -153 54 -44 -4 -78 -3 -76 1 3 5 28 56 56 114 109 221 166 422 167 590 1 90 -2 112 -22 152 -47 96 -201 205 -333 237 -68 16 -205 21 -272 11z m265 -66 c32 -7 81 -25 110 -40 66 -34 156 -118 179 -169 63 -136 -39 -529 -209 -808 l-41 -68 27 -10 c19 -8 55 -8 125 1 105 13 127 8 127 -33 0 -31 -72 -92 -137 -118 -44 -17 -80 -23 -149 -23 l-91 -1 -21 -165 c-26 -202 -43 -259 -88 -310 -67 -74 -222 -107 -308 -65 -41 20 -89 84 -107 145 -6 19 -13 110 -16 203 -3 92 -7 167 -8 167 -1 0 -24 -12 -51 -27 -91 -51 -257 -31 -287 34 -16 35 15 61 99 84 47 13 77 27 93 46 l23 27 -53 17 -54 18 -50 -57 c-128 -146 -148 -164 -195 -169 -59 -6 -100 21 -155 104 -71 105 -149 332 -200 578 -23 110 -26 148 -23 250 3 105 7 128 31 180 58 126 164 194 316 203 89 4 219 -14 302 -43 40 -15 44 -14 98 12 53 26 64 28 196 29 77 0 172 6 210 12 124 22 208 21 307 -4z"/>
<path d="M1575 2111 l-40 -6 47 -27 c111 -66 233 -213 273 -331 17 -51 18 -65 6 -164 -9 -81 -10 -131 -2 -199 12 -98 4 -170 -24 -224 -9 -16 -11 -30 -6 -30 5 0 41 64 80 143 114 230 166 418 160 572 l-4 84 -50 51 c-104 107 -272 157 -440 131z"/>
<path d="M1200 2087 c-107 -25 -173 -81 -226 -192 -28 -58 -70 -213 -60 -222 1 -1 26 6 54 17 68 26 156 26 198 1 38 -23 59 -67 75 -155 20 -119 8 -225 -40 -344 -22 -56 -41 -104 -41 -106 0 -3 13 -7 30 -11 37 -8 78 -55 84 -98 3 -18 7 -129 9 -247 2 -184 6 -220 21 -250 28 -53 66 -89 102 -96 44 -8 136 12 175 39 67 45 81 97 118 427 19 172 20 175 50 202 17 15 31 30 31 32 0 3 -13 24 -29 48 -16 24 -58 104 -94 178 -100 204 -111 301 -42 366 35 33 70 44 141 44 24 0 44 2 44 5 0 16 -54 108 -93 160 -41 54 -97 103 -168 148 -82 50 -243 76 -339 54z"/>
<path d="M605 2072 c-140 -47 -217 -224 -185 -427 48 -304 158 -629 244 -719 55 -59 80 -52 167 47 40 45 79 90 87 99 12 15 10 22 -17 61 -56 78 -60 107 -51 373 10 295 29 375 115 495 l35 48 -39 11 c-129 34 -274 39 -356 12z"/>
<path d="M1659 1631 c-49 -50 -33 -131 63 -319 55 -107 64 -119 72 -100 4 13 7 64 6 113 -6 162 -5 219 3 278 l7 57 -61 0 c-54 0 -64 -3 -90 -29z m101 -11 c0 -40 -72 -52 -87 -14 -8 21 13 34 55 34 25 0 32 -4 32 -20z"/>
<path d="M968 1623 l-58 -26 -2 -126 c-2 -69 -2 -148 -2 -176 2 -90 61 -171 145 -196 21 -7 41 -10 43 -8 2 2 23 51 46 109 33 81 44 122 48 181 6 94 -13 210 -40 244 -27 35 -101 34 -180 -2z m176 -13 c18 -18 -7 -45 -44 -45 -36 0 -57 22 -46 50 5 14 14 16 43 12 20 -4 41 -11 47 -17z"/>
<path d="M1115 966 c-43 -47 -58 -56 -107 -67 -65 -14 -73 -24 -27 -33 83 -16 152 1 205 53 25 25 33 40 28 55 -6 20 -31 46 -43 46 -3 0 -28 -25 -56 -54z"/>
<path d="M1786 1005 c-9 -10 -16 -27 -14 -39 3 -18 11 -21 58 -24 69 -4 144 12 192 41 l37 22 -102 1 c-56 0 -114 4 -128 8 -19 6 -31 3 -43 -9z"/>
</g>
</svg>