<svg xmlns="http://www.w3.org/2000/svg" version="1.0" width="32" height="32" viewBox="0 0 180.000000 180.000000">
<g transform="translate(0.000000,180.000000) scale(0.100000,-0.100000)" fill="#6663ef" stroke="none">
<path d="M945 1486 c-75 -19 -153 -63 -203 -115 -46 -47 -404 -649 -395 -663 2 -5 25 -8 50 -8 59 0 90 31 167 168 51 91 76 117 76 78 0 -6 12 -36 26 -64 l26 -53 -88 -152 c-48 -84 -95 -164 -103 -180 -14 -24 -14 -28 -1 -37 8 -5 26 -10 40 -10 55 0 84 32 188 214 l102 176 -35 51 c-70 102 -81 206 -32 313 50 108 136 167 258 174 99 6 162 -14 228 -74 71 -64 104 -136 104 -228 0 -40 -7 -86 -15 -106 -8 -20 -92 -168 -187 -330 -180 -307 -181 -310 -116 -310 62 0 83 26 237 291 195 337 193 331 193 454 0 92 -3 105 -32 168 -90 191 -293 291 -488 243z"/>
<path d="M944 1172 c-44 -28 -76 -77 -81 -126 -7 -58 25 -130 67 -154 17 -9 38 -22 46 -27 13 -9 -9 -52 -132 -264 -156 -269 -157 -271 -87 -271 19 0 43 10 61 25 42 35 369 600 378 651 8 54 -21 122 -67 155 -46 33 -141 38 -185 11z m117 -102 c25 -14 25 -62 -1 -85 -45 -40 -109 20 -75 71 17 26 44 30 76 14z"/>
</g>
</svg>