<svg xmlns="http://www.w3.org/2000/svg" width="60" height="58" viewBox="0 0 60 58" fill="none">
<path d="M25.7037 1C24.8491 1 24.0295 1.34038 23.4252 1.94627C22.821 2.55216 22.4815 3.37392 22.4815 4.23077C22.4815 5.08762 22.821 5.90938 23.4252 6.51527C24.0295 7.12116 24.8491 7.46154 25.7037 7.46154H46.1111C47.8203 7.46154 49.4595 8.14231 50.668 9.35408C51.8766 10.5659 52.5556 12.2094 52.5556 13.9231V44.0769C52.5556 45.7906 51.8766 47.4342 50.668 48.6459C49.4595 49.8577 47.8203 50.5385 46.1111 50.5385H25.7037C24.8491 50.5385 24.0295 50.8788 23.4252 51.4847C22.821 52.0906 22.4815 52.9124 22.4815 53.7692C22.4815 54.6261 22.821 55.4478 23.4252 56.0537C24.0295 56.6596 24.8491 57 25.7037 57H46.1111C49.5295 57 52.8078 55.6385 55.2249 53.2149C57.6421 50.7914 59 47.5043 59 44.0769V13.9231C59 10.4957 57.6421 7.20863 55.2249 4.78508C52.8078 2.36154 49.5295 1 46.1111 1H25.7037ZM38.7215 26.7169L27.9807 15.9477C27.3699 15.377 26.562 15.0663 25.7272 15.0811C24.8925 15.0959 24.096 15.4349 23.5056 16.0269C22.9153 16.6188 22.5771 17.4174 22.5624 18.2544C22.5476 19.0914 22.8575 19.9014 23.4267 20.5138L28.6681 25.7692H4.22222C3.36764 25.7692 2.54805 26.1096 1.94377 26.7155C1.33948 27.3214 1 28.1431 1 29C1 29.8569 1.33948 30.6786 1.94377 31.2845C2.54805 31.8904 3.36764 32.2308 4.22222 32.2308H28.6681L23.4267 37.4862C23.1101 37.7819 22.8562 38.1386 22.68 38.5349C22.5039 38.9312 22.4092 39.359 22.4016 39.7928C22.394 40.2266 22.4736 40.6575 22.6356 41.0598C22.7977 41.4621 23.0389 41.8275 23.3449 42.1343C23.6508 42.4411 24.0153 42.683 24.4165 42.8455C24.8178 43.0079 25.2475 43.0877 25.6802 43.0801C26.1128 43.0724 26.5395 42.9775 26.9348 42.8009C27.33 42.6243 27.6857 42.3697 27.9807 42.0523L38.7215 31.2831C39.3249 30.6773 39.6638 29.8562 39.6638 29C39.6638 28.1438 39.3249 27.3227 38.7215 26.7169Z" fill="#007BEC" stroke="#F2F2F2"/>
</svg>