<svg xmlns="http://www.w3.org/2000/svg" width="44" height="56" viewBox="0 0 44 56" fill="none">
    <path d="M43.411 14.0375L29.961 0.5875C29.586 0.2125 29.0798 0 28.5485 0H1.99854C0.892285 0 -0.00146484 0.89375 -0.00146484 2V54C-0.00146484 55.1063 0.892285 56 1.99854 56H41.9985C43.1048 56 43.9985 55.1063 43.9985 54V15.4562C43.9985 14.925 43.786 14.4125 43.411 14.0375ZM39.386 16.375H27.6235V4.6125L39.386 16.375ZM39.4985 51.5H4.49854V4.5H23.3735V18C23.3735 18.6962 23.6501 19.3639 24.1424 19.8562C24.6347 20.3484 25.3023 20.625 25.9985 20.625H39.4985V51.5ZM21.4985 34.625H9.99854C9.72354 34.625 9.49854 34.85 9.49854 35.125V38.125C9.49854 38.4 9.72354 38.625 9.99854 38.625H21.4985C21.7735 38.625 21.9985 38.4 21.9985 38.125V35.125C21.9985 34.85 21.7735 34.625 21.4985 34.625ZM9.49854 26.625V29.625C9.49854 29.9 9.72354 30.125 9.99854 30.125H33.9985C34.2735 30.125 34.4985 29.9 34.4985 29.625V26.625C34.4985 26.35 34.2735 26.125 33.9985 26.125H9.99854C9.72354 26.125 9.49854 26.35 9.49854 26.625Z" fill="#48CA08"/>
</svg>