<svg xmlns="http://www.w3.org/2000/svg" width="50" height="50" viewBox="0 0 50 50" fill="none">
<path d="M44.5136 36.7528C42.9493 35.1871 41.1213 33.9093 39.1136 32.9778C41.9449 30.684 43.7511 27.184 43.7511 23.259C43.7511 16.334 37.9761 10.6528 31.0511 10.759C24.2324 10.8653 18.7386 16.4215 18.7386 23.259C18.7386 27.184 20.5511 30.684 23.3761 32.9778C21.368 33.9086 19.54 35.1865 17.9761 36.7528C14.5636 40.1715 12.6261 44.684 12.5011 49.4965C12.4995 49.5632 12.5112 49.6296 12.5355 49.6917C12.5599 49.7538 12.5965 49.8104 12.6431 49.8582C12.6897 49.906 12.7454 49.9439 12.8069 49.9698C12.8684 49.9957 12.9344 50.0091 13.0011 50.009H16.5011C16.7699 50.009 16.9949 49.7965 17.0011 49.5278C17.1199 45.9028 18.5886 42.509 21.1699 39.934C22.4908 38.6061 24.0619 37.5534 25.7923 36.8368C27.5228 36.1201 29.3782 35.7538 31.2511 35.759C35.0574 35.759 38.6386 37.2403 41.3324 39.934C43.9074 42.509 45.3761 45.9028 45.5011 49.5278C45.5074 49.7965 45.7324 50.009 46.0011 50.009H49.5011C49.5679 50.0091 49.6339 49.9957 49.6954 49.9698C49.7569 49.9439 49.8126 49.906 49.8592 49.8582C49.9058 49.8104 49.9423 49.7538 49.9667 49.6917C49.9911 49.6296 50.0028 49.5632 50.0011 49.4965C49.8761 44.684 47.9386 40.1715 44.5136 36.7528ZM31.2511 31.259C29.1136 31.259 27.1011 30.4278 25.5949 28.9153C24.839 28.1653 24.2419 27.2708 23.8392 26.285C23.4365 25.2993 23.2365 24.2425 23.2511 23.1778C23.2699 21.1278 24.0886 19.1465 25.5199 17.6778C27.0199 16.1403 29.0261 15.284 31.1699 15.259C33.2886 15.2403 35.3449 16.0653 36.8574 17.5465C38.4074 19.0653 39.2574 21.0965 39.2574 23.259C39.2574 25.3965 38.4261 27.4028 36.9136 28.9153C36.1716 29.6609 35.2891 30.2519 34.3171 30.6542C33.3451 31.0565 32.3031 31.2621 31.2511 31.259ZM15.5949 24.909C15.5386 24.3653 15.5074 23.8153 15.5074 23.259C15.5074 22.2653 15.6011 21.2965 15.7761 20.3528C15.8199 20.1278 15.7011 19.8965 15.4949 19.8028C14.6449 19.4215 13.8636 18.8965 13.1886 18.234C12.3933 17.4628 11.7674 16.5343 11.3509 15.5077C10.9345 14.4811 10.7366 13.3789 10.7699 12.2715C10.8261 10.2653 11.6324 8.35904 13.0386 6.92154C14.5824 5.34029 16.6574 4.47778 18.8636 4.50278C20.8574 4.52153 22.7824 5.29029 24.2386 6.65279C24.7324 7.11529 25.1574 7.62779 25.5136 8.17779C25.6386 8.37154 25.8824 8.45279 26.0949 8.37779C27.1949 7.99654 28.3574 7.72779 29.5511 7.60279C29.9011 7.56529 30.1011 7.19029 29.9449 6.87779C27.9136 2.85903 23.7636 0.0840349 18.9636 0.00903484C12.0324 -0.0972152 6.25738 5.58404 6.25738 12.5028C6.25738 16.4278 8.06363 19.9278 10.8949 22.2215C8.90738 23.1403 7.07613 24.409 5.48863 25.9965C2.06363 29.4153 0.126133 33.9278 0.00113285 38.7465C-0.000535307 38.8132 0.0111649 38.8796 0.0355443 38.9417C0.0599237 39.0038 0.0964889 39.0604 0.143085 39.1082C0.189682 39.156 0.245367 39.1939 0.306859 39.2198C0.368352 39.2457 0.434407 39.2591 0.501133 39.259H4.00738C4.27613 39.259 4.50113 39.0465 4.50738 38.7778C4.62613 35.1528 6.09488 31.759 8.67613 29.184C10.5136 27.3465 12.7636 26.0715 15.2199 25.4528C15.4636 25.3903 15.6261 25.159 15.5949 24.909Z" fill="#404040" fill-opacity="0.85"/>
</svg>