<svg xmlns="http://www.w3.org/2000/svg" width="58" height="58" viewBox="0 0 58 58" fill="none">
<path d="M29 42.0667L25.0072 40.1757C23.4121 39.4159 22.0644 38.2206 21.1195 36.7277C20.1745 35.2348 19.6709 33.5052 19.6667 31.7384V19.6667H38.3333V31.7403C38.3291 33.5071 37.8255 35.2367 36.8805 36.7295C35.9356 38.2224 34.5879 39.4177 32.9928 40.1776L29 42.0667ZM23.4 23.4V31.7403C23.4029 32.7999 23.7053 33.8371 24.2724 34.7322C24.8395 35.6273 25.6482 36.3438 26.6051 36.7989L29 37.9339L31.3949 36.8008C32.3521 36.3455 33.1609 35.6287 33.7281 34.7333C34.2952 33.8378 34.5975 32.8002 34.6 31.7403V23.4H23.4ZM6.824 32.0912C7.35773 31.7304 7.78902 31.2377 8.07594 30.6609C8.36286 30.0841 8.49565 29.4429 8.46138 28.7996C8.42712 28.1563 8.22697 27.5328 7.8804 26.9897C7.53383 26.4467 7.05264 26.0026 6.48361 25.7005C5.91458 25.3985 5.27708 25.2489 4.63309 25.2662C3.98911 25.2835 3.36056 25.4671 2.80856 25.7992C2.25657 26.1314 1.79991 26.6007 1.48299 27.1616C1.16607 27.7224 0.999683 28.3558 1 29C1 30.4728 1.85867 31.7328 3.09813 32.3413C3.71802 37.258 5.728 41.8958 8.89201 45.7098C12.056 49.5239 16.2427 52.3559 20.9603 53.8733L22.1064 50.3192C18.0992 49.032 14.5378 46.6373 11.8339 43.4118C9.12999 40.1863 7.39191 36.2616 6.824 32.0912ZM53.8752 37.0416L50.3211 35.8917C49.0341 39.8993 46.6396 43.461 43.4141 46.1653C40.1885 48.8696 36.2637 50.6061 32.0931 51.1741C31.7321 50.6408 31.2393 50.2099 30.6626 49.9234C30.0859 49.6368 29.4449 49.5043 28.8018 49.5387C28.1587 49.5731 27.5355 49.7732 26.9927 50.1197C26.4498 50.4662 26.0059 50.9472 25.7039 51.516C25.4019 52.0848 25.2522 52.722 25.2693 53.3658C25.2864 54.0096 25.4697 54.6379 25.8015 55.1899C26.1332 55.7419 26.6021 56.1986 27.1626 56.5158C27.723 56.833 28.356 56.9998 29 57C30.4728 57 31.7328 56.1413 32.3413 54.9019C37.2578 54.2821 41.8954 52.2724 45.7094 49.1088C49.5235 45.9451 52.3575 41.7588 53.8752 37.0416ZM54.9019 25.6587C54.282 20.742 52.272 16.1042 49.108 12.2902C45.944 8.4761 41.7573 5.64406 37.0397 4.12667L35.8936 7.6808C39.9009 8.96803 43.4622 11.3627 46.1661 14.5882C48.87 17.8137 50.6062 21.7384 51.1741 25.9088C50.6407 26.2698 50.2098 26.7626 49.9232 27.3394C49.6367 27.9162 49.5042 28.5574 49.5387 29.2005C49.5732 29.8437 49.7735 30.4669 50.1201 31.0098C50.4667 31.5526 50.9479 31.9966 51.5168 32.2984C52.0858 32.6003 52.7231 32.7499 53.367 32.7326C54.0108 32.7153 54.6392 32.5317 55.1911 32.1997C55.743 31.8677 56.1996 31.3986 56.5166 30.8379C56.8336 30.2772 57.0001 29.6441 57 29C56.9996 28.3024 56.8027 27.619 56.432 27.0281C56.0613 26.4372 55.5316 25.9626 54.9037 25.6587M29 1C27.5272 1 26.2672 1.85867 25.6587 3.09813C20.7422 3.71787 16.1046 5.72757 12.2906 8.89123C8.47652 12.0549 5.64435 16.2412 4.12667 20.9584L7.6808 22.1083C8.96774 18.1007 11.3623 14.539 14.5878 11.8347C17.8133 9.13041 21.7381 7.39393 25.9088 6.82587C26.2698 7.35925 26.7626 7.79018 27.3394 8.07675C27.9162 8.36332 28.5574 8.4958 29.2005 8.46131C29.8437 8.42681 30.4669 8.22652 31.0098 7.8799C31.5526 7.53328 31.9966 7.05211 32.2984 6.48317C32.6003 5.91423 32.7499 5.27687 32.7326 4.63304C32.7153 3.9892 32.5317 3.3608 32.1997 2.80889C31.8677 2.25699 31.3986 1.80036 30.8379 1.48339C30.2772 1.16643 29.6441 0.999901 29 1Z" fill="#007BEC"/>
<path d="M54.9019 25.6587C54.282 20.742 52.272 16.1042 49.108 12.2902C45.944 8.4761 41.7573 5.64406 37.0397 4.12667L35.8936 7.6808C39.9009 8.96803 43.4622 11.3627 46.1661 14.5882C48.87 17.8137 50.6062 21.7384 51.1741 25.9088C50.6407 26.2698 50.2098 26.7627 49.9232 27.3394C49.6367 27.9162 49.5042 28.5574 49.5387 29.2005C49.5732 29.8437 49.7735 30.4669 50.1201 31.0098C50.4667 31.5526 50.9479 31.9966 51.5168 32.2984C52.0858 32.6003 52.7231 32.7499 53.367 32.7326C54.0108 32.7153 54.6392 32.5317 55.1911 32.1997C55.743 31.8677 56.1996 31.3986 56.5166 30.8379C56.8336 30.2772 57.0001 29.6441 57 29C56.9996 28.3024 56.8027 27.619 56.432 27.0281C56.0613 26.4372 55.5316 25.9626 54.9037 25.6587M29 42.0667L25.0072 40.1757C23.4121 39.4159 22.0644 38.2206 21.1195 36.7277C20.1745 35.2348 19.6709 33.5052 19.6667 31.7384V19.6667H38.3333V31.7403C38.3291 33.5071 37.8255 35.2367 36.8805 36.7295C35.9356 38.2224 34.5879 39.4177 32.9928 40.1776L29 42.0667ZM23.4 23.4V31.7403C23.4029 32.7999 23.7053 33.8371 24.2724 34.7322C24.8395 35.6273 25.6482 36.3438 26.6051 36.7989L29 37.9339L31.3949 36.8008C32.3521 36.3455 33.1609 35.6287 33.7281 34.7333C34.2952 33.8378 34.5975 32.8002 34.6 31.7403V23.4H23.4ZM6.824 32.0912C7.35773 31.7304 7.78902 31.2377 8.07594 30.6609C8.36286 30.0841 8.49565 29.4429 8.46138 28.7996C8.42712 28.1563 8.22697 27.5328 7.8804 26.9897C7.53383 26.4467 7.05264 26.0026 6.48361 25.7005C5.91458 25.3985 5.27708 25.2489 4.63309 25.2662C3.98911 25.2835 3.36056 25.4671 2.80856 25.7992C2.25657 26.1314 1.79991 26.6007 1.48299 27.1616C1.16607 27.7224 0.999683 28.3558 1 29C1 30.4728 1.85867 31.7328 3.09813 32.3413C3.71802 37.258 5.728 41.8958 8.89201 45.7098C12.056 49.5239 16.2427 52.3559 20.9603 53.8733L22.1064 50.3192C18.0992 49.032 14.5378 46.6373 11.8339 43.4118C9.12999 40.1863 7.39191 36.2616 6.824 32.0912ZM53.8752 37.0416L50.3211 35.8917C49.0341 39.8993 46.6396 43.461 43.4141 46.1653C40.1885 48.8696 36.2637 50.6061 32.0931 51.1741C31.7321 50.6408 31.2393 50.2099 30.6626 49.9234C30.0859 49.6368 29.4449 49.5043 28.8018 49.5387C28.1587 49.5731 27.5355 49.7732 26.9927 50.1197C26.4498 50.4662 26.0059 50.9472 25.7039 51.516C25.4019 52.0848 25.2522 52.722 25.2693 53.3658C25.2864 54.0096 25.4697 54.6379 25.8015 55.1899C26.1332 55.7419 26.6021 56.1986 27.1626 56.5158C27.723 56.833 28.356 56.9998 29 57C30.4728 57 31.7328 56.1413 32.3413 54.9019C37.2578 54.2821 41.8954 52.2724 45.7094 49.1088C49.5235 45.9451 52.3575 41.7588 53.8752 37.0416ZM29 1C27.5272 1 26.2672 1.85867 25.6587 3.09813C20.7422 3.71787 16.1046 5.72757 12.2906 8.89123C8.47652 12.0549 5.64435 16.2412 4.12667 20.9584L7.6808 22.1083C8.96774 18.1007 11.3623 14.539 14.5878 11.8347C17.8133 9.13041 21.7381 7.39393 25.9088 6.82587C26.2698 7.35925 26.7627 7.79018 27.3394 8.07675C27.9162 8.36332 28.5574 8.4958 29.2005 8.46131C29.8437 8.42681 30.4669 8.22652 31.0098 7.8799C31.5526 7.53328 31.9966 7.05211 32.2984 6.48317C32.6003 5.91423 32.7499 5.27687 32.7326 4.63304C32.7153 3.9892 32.5317 3.3608 32.1997 2.80889C31.8677 2.25699 31.3986 1.80036 30.8379 1.48339C30.2772 1.16643 29.6441 0.999901 29 1Z" stroke="#007BEC"/>
</svg>