<svg xmlns="http://www.w3.org/2000/svg" width="70" height="56" viewBox="0 0 70 56" fill="none">
<path d="M13.2778 12.7273C13.2778 11.7245 13.4761 10.7314 13.8614 9.80496C14.2467 8.87848 14.8114 8.03665 15.5233 7.32755C16.2352 6.61844 17.0804 6.05595 18.0105 5.67219C18.9407 5.28843 19.9376 5.09091 20.9444 5.09091C21.9512 5.09091 22.9482 5.28843 23.8784 5.67219C24.8085 6.05595 25.6537 6.61844 26.3656 7.32755C27.0775 8.03665 27.6422 8.87848 28.0275 9.80496C28.4128 10.7314 28.6111 11.7245 28.6111 12.7273C28.6111 14.7526 27.8034 16.6949 26.3656 18.127C24.9278 19.5591 22.9778 20.3636 20.9444 20.3636C18.9111 20.3636 16.9611 19.5591 15.5233 18.127C14.0855 16.6949 13.2778 14.7526 13.2778 12.7273ZM20.9444 0C17.5556 0 14.3055 1.34091 11.9092 3.72773C9.51289 6.11456 8.16667 9.35179 8.16667 12.7273C8.16667 16.1028 9.51289 19.34 11.9092 21.7268C14.3055 24.1136 17.5556 25.4545 20.9444 25.4545C24.3333 25.4545 27.5834 24.1136 29.9797 21.7268C32.376 19.34 33.7222 16.1028 33.7222 12.7273C33.7222 9.35179 32.376 6.11456 29.9797 3.72773C27.5834 1.34091 24.3333 0 20.9444 0ZM46.5 15.2727C46.5 13.9225 47.0385 12.6276 47.997 11.6729C48.9555 10.7182 50.2556 10.1818 51.6111 10.1818C52.9667 10.1818 54.2667 10.7182 55.2252 11.6729C56.1837 12.6276 56.7222 13.9225 56.7222 15.2727C56.7222 16.6229 56.1837 17.9178 55.2252 18.8725C54.2667 19.8273 52.9667 20.3636 51.6111 20.3636C50.2556 20.3636 48.9555 19.8273 47.997 18.8725C47.0385 17.9178 46.5 16.6229 46.5 15.2727ZM51.6111 5.09091C48.9 5.09091 46.2999 6.16363 44.3829 8.07309C42.4659 9.98256 41.3889 12.5723 41.3889 15.2727C41.3889 17.9731 42.4659 20.5629 44.3829 22.4724C46.2999 24.3818 48.9 25.4545 51.6111 25.4545C54.3222 25.4545 56.9223 24.3818 58.8393 22.4724C60.7564 20.5629 61.8333 17.9731 61.8333 15.2727C61.8333 12.5723 60.7564 9.98256 58.8393 8.07309C56.9223 6.16363 54.3222 5.09091 51.6111 5.09091ZM33.7222 30.5455C33.8687 30.5455 34.0136 30.5488 34.1567 30.5556C33.5698 32.2136 33.5752 34.0226 34.172 35.6771L33.7222 35.6364H8.16667C7.48889 35.6364 6.83888 35.9045 6.35962 36.3819C5.88036 36.8593 5.61111 37.5067 5.61111 38.1818V38.6756L5.63156 38.9251C5.82884 40.5012 6.42312 42.0021 7.35911 43.288C9.02533 45.5687 12.6542 48.3636 20.9444 48.3636C28.1613 48.3636 31.8464 46.2458 33.7733 44.1891C33.9676 45.7876 34.6524 47.2284 35.6747 48.3636C35.1865 48.9055 34.7786 49.514 34.4633 50.1709C31.3711 52.1207 27.0164 53.4545 20.9444 53.4545C11.3458 53.4545 6.03022 50.1251 3.22422 46.2815C1.76062 44.2696 0.840189 41.9172 0.551111 39.4495C0.526061 39.2176 0.509014 38.985 0.5 38.752V38.1818C0.5 36.1565 1.30774 34.2142 2.74551 32.7821C4.18329 31.35 6.13334 30.5455 8.16667 30.5455H33.7222ZM41.3889 30.5455C40.7111 30.5455 40.0611 30.8136 39.5818 31.291C39.1026 31.7684 38.8333 32.4158 38.8333 33.0909C38.8333 33.766 39.1026 34.4135 39.5818 34.8908C40.0611 35.3682 40.7111 35.6364 41.3889 35.6364H66.9444C67.6222 35.6364 68.2722 35.3682 68.7515 34.8908C69.2308 34.4135 69.5 33.766 69.5 33.0909C69.5 32.4158 69.2308 31.7684 68.7515 31.291C68.2722 30.8136 67.6222 30.5455 66.9444 30.5455H41.3889ZM41.3889 40.7273C40.7111 40.7273 40.0611 40.9955 39.5818 41.4728C39.1026 41.9502 38.8333 42.5976 38.8333 43.2727C38.8333 43.9478 39.1026 44.5953 39.5818 45.0726C40.0611 45.55 40.7111 45.8182 41.3889 45.8182H66.9444C67.6222 45.8182 68.2722 45.55 68.7515 45.0726C69.2308 44.5953 69.5 43.9478 69.5 43.2727C69.5 42.5976 69.2308 41.9502 68.7515 41.4728C68.2722 40.9955 67.6222 40.7273 66.9444 40.7273H41.3889ZM41.3889 50.9091C40.7111 50.9091 40.0611 51.1773 39.5818 51.6546C39.1026 52.132 38.8333 52.7794 38.8333 53.4545C38.8333 54.1296 39.1026 54.7771 39.5818 55.2545C40.0611 55.7318 40.7111 56 41.3889 56H66.9444C67.6222 56 68.2722 55.7318 68.7515 55.2545C69.2308 54.7771 69.5 54.1296 69.5 53.4545C69.5 52.7794 69.2308 52.132 68.7515 51.6546C68.2722 51.1773 67.6222 50.9091 66.9444 50.9091H41.3889Z" fill="#48CA08"/>
</svg>