<svg xmlns="http://www.w3.org/2000/svg" width="58" height="58" viewBox="0 0 58 58" fill="none">
<path d="M21.2166 47.065C11.8881 46.4007 6.77617 42.7329 6.77617 41.4332V34.9928C10.0397 36.5812 13.9964 37.6498 18.3285 38.1697C18.3285 36.2635 18.444 34.3285 18.935 32.4513C13.9964 31.8159 9.57762 30.343 6.77617 28.2924V20.1769C10.9061 22.5162 16.8845 24.0181 23.5848 24.1047C23.6715 24.0181 23.7292 23.9025 23.8159 23.8159C30.1697 17.491 39.9892 16.6245 47.2094 21.3032V12.5523C47.2094 6.16968 36.87 1 24.1047 1C11.3394 1 1 6.16968 1 12.5523V41.4332C1 47.8159 11.3682 52.9856 24.1047 52.9856C25.0866 52.9856 26.0686 52.9856 26.9928 52.8989C25.8953 52.1769 24.7978 51.3682 23.8159 50.3863C22.8051 49.3466 21.9386 48.2491 21.2166 47.065ZM24.1047 6.77617C35.2816 6.77617 41.4332 11.1083 41.4332 12.5523C41.4332 13.9964 35.2816 18.3285 24.1047 18.3285C12.9278 18.3285 6.77617 13.9964 6.77617 12.5523C6.77617 11.1083 12.9278 6.77617 24.1047 6.77617ZM48.1047 44.0325C49.3755 42.0397 50.0975 39.6426 50.0975 37.1011C50.0975 29.8809 44.3213 24.1047 37.1011 24.1047C29.8809 24.1047 24.1047 29.8809 24.1047 37.1011C24.1047 44.3213 29.8809 50.0975 37.1011 50.0975C39.6137 50.0975 41.9819 49.3755 43.9747 48.1336L52.9856 57L57 52.9856L48.1047 44.0325ZM37.1011 44.3213C35.1862 44.3213 33.3497 43.5606 31.9956 42.2066C30.6416 40.8525 29.8809 39.016 29.8809 37.1011C29.8809 35.1862 30.6416 33.3497 31.9956 31.9956C33.3497 30.6416 35.1862 29.8809 37.1011 29.8809C39.016 29.8809 40.8525 30.6416 42.2066 31.9956C43.5606 33.3497 44.3213 35.1862 44.3213 37.1011C44.3213 39.016 43.5606 40.8525 42.2066 42.2066C40.8525 43.5606 39.016 44.3213 37.1011 44.3213Z" fill="#007BEC" stroke="#F2F2F2"/>
</svg>