<svg xmlns="http://www.w3.org/2000/svg" width="58" height="58" viewBox="0 0 58 58" fill="none">
<path d="M1 1H55.2005V30.8103H6.42005V49.7805H30.8103V55.2005H1V1ZM6.42005 25.3902H49.7805V6.42005H6.42005V25.3902ZM11.8347 13.1951H17.2656V18.626H11.8347V13.1951ZM43.6829 38.9404C42.4251 38.9404 41.2188 39.44 40.3294 40.3294C39.44 41.2188 38.9404 42.4251 38.9404 43.6829C38.9404 44.9407 39.44 46.147 40.3294 47.0364C41.2188 47.9258 42.4251 48.4255 43.6829 48.4255C44.9407 48.4255 46.147 47.9258 47.0364 47.0364C47.9258 46.147 48.4255 44.9407 48.4255 43.6829C48.4255 42.4251 47.9258 41.2188 47.0364 40.3294C46.147 39.44 44.9407 38.9404 43.6829 38.9404ZM33.5203 43.6829C33.5207 42.1278 33.878 40.5934 34.5647 39.1981C35.2514 37.8028 36.2492 36.5836 37.4812 35.6346C38.7132 34.6855 40.1466 34.0319 41.6709 33.724C43.1953 33.4161 44.77 33.4622 46.2738 33.8587C47.7776 34.2552 49.1703 34.9915 50.3447 36.0109C51.5191 37.0303 52.4439 38.3057 53.0479 39.7388C53.6518 41.1719 53.9188 42.7245 53.8283 44.277C53.7378 45.8295 53.2922 47.3406 52.5257 48.6938L57 53.168L53.168 57L48.6938 52.5285C47.1475 53.4048 45.3984 53.8603 43.621 53.8495C41.8437 53.8387 40.1002 53.3619 38.5647 52.4667C37.0292 51.5716 35.7553 50.2894 34.8702 48.7481C33.985 47.2068 33.5196 45.4603 33.5203 43.6829ZM11.8347 37.5854H17.2656V43.0163H11.8347V37.5854Z" fill="#FAAD14" stroke="#F2F2F2"/>
</svg>