<svg xmlns="http://www.w3.org/2000/svg" width="58" height="56" viewBox="0 0 58 56" fill="none">
<path d="M29 0C51.5556 0 58 9.312 58 20.8C58 32.288 51.5556 41.6 29 41.6C6.44444 41.6 0 32.288 0 20.8C0 9.312 6.44444 0 29 0ZM14.5 25.6C17.1744 25.6 19.3333 23.456 19.3333 20.8C19.3333 18.144 17.1744 16 14.5 16C11.8256 16 9.66667 18.144 9.66667 20.8C9.66667 23.456 11.8256 25.6 14.5 25.6ZM29 25.6C31.6744 25.6 33.8333 23.456 33.8333 20.8C33.8333 18.144 31.6744 16 29 16C26.3256 16 24.1667 18.144 24.1667 20.8C24.1667 23.456 26.3256 25.6 29 25.6ZM43.5 25.6C46.1744 25.6 48.3333 23.456 48.3333 20.8C48.3333 18.144 46.1744 16 43.5 16C40.8256 16 38.6667 18.144 38.6667 20.8C38.6667 23.456 40.8256 25.6 43.5 25.6ZM16.1111 43.2C18.7856 43.2 20.9444 45.344 20.9444 48C20.9444 50.656 18.7856 52.8 16.1111 52.8C13.4367 52.8 11.2778 50.656 11.2778 48C11.2778 45.344 13.4367 43.2 16.1111 43.2ZM6.44444 49.6C8.21667 49.6 9.66667 51.04 9.66667 52.8C9.66667 54.56 8.21667 56 6.44444 56C4.67222 56 3.22222 54.56 3.22222 52.8C3.22222 51.04 4.67222 49.6 6.44444 49.6Z" fill="#48CA08"/>
</svg>