<svg xmlns="http://www.w3.org/2000/svg" width="50" height="56" viewBox="0 0 50 56" fill="none">
<path d="M28.1141 3.1141C28.1141 2.28819 27.786 1.49611 27.202 0.912099C26.618 0.328092 25.8259 0 25 0C24.1741 0 23.382 0.328092 22.798 0.912099C22.214 1.49611 21.8859 2.28819 21.8859 3.1141L21.8766 28.0363C21.8766 28.8622 22.2047 29.6543 22.7887 30.2383C23.3727 30.8223 24.1648 31.1504 24.9907 31.1504C25.8166 31.1504 26.6087 30.8223 27.1927 30.2383C27.7767 29.6543 28.1048 28.8622 28.1048 28.0363L28.1141 3.1141Z" fill="#FAAD14"/>
<path d="M0.0871582 31.0882C0.0871582 24.206 2.87428 17.9778 7.3835 13.4717L11.7868 17.875C9.17363 20.4881 7.39397 23.8173 6.67292 27.4418C5.95187 31.0663 6.32181 34.8232 7.73597 38.2375C9.15013 41.6517 11.545 44.5699 14.6177 46.6231C17.6904 48.6762 21.3029 49.7721 24.9984 49.7721C28.6939 49.7721 32.3065 48.6762 35.3792 46.6231C38.4519 44.5699 40.8467 41.6517 42.2609 38.2375C43.675 34.8232 44.045 31.0663 43.3239 27.4418C42.6029 23.8173 40.8232 20.4881 38.21 17.875L42.6165 13.4717C45.5133 16.3687 47.651 19.9354 48.8402 23.8559C50.0294 27.7764 50.2333 31.9296 49.434 35.9477C48.6347 39.9659 46.8568 43.7249 44.2578 46.8918C41.6588 50.0587 38.3188 52.5358 34.5338 54.1036C30.7488 55.6715 26.6356 56.2816 22.5584 55.8801C18.4813 55.4786 14.5661 54.0778 11.1596 51.8018C7.75312 49.5258 4.96052 46.4448 3.02917 42.8317C1.09781 39.2186 0.0873075 35.185 0.0871582 31.0882Z" fill="#FAAD14"/>
</svg>