<svg xmlns="http://www.w3.org/2000/svg" width="52" height="58" viewBox="0 0 52 58" fill="none">
<path d="M44.6664 57C43.8081 57.0021 42.9579 56.8341 42.1649 56.5057C41.3719 56.1773 40.6519 55.695 40.0464 55.0867L32.3408 47.3811C30.1542 47.8639 27.8766 47.7318 25.7604 46.9994C23.6443 46.267 21.7723 44.963 20.3519 43.2318C18.9315 41.5006 18.0183 39.4099 17.7134 37.1914C17.4085 34.973 17.7239 32.7134 18.6246 30.6633L19.7222 28.1619L27.48 35.9198C27.8354 36.2596 28.3081 36.4492 28.7997 36.4492C29.2914 36.4492 29.7641 36.2596 30.1195 35.9198C30.4694 35.5697 30.666 35.095 30.666 34.6001C30.666 34.1051 30.4694 33.6304 30.1195 33.2803L22.3616 25.5206L24.863 24.423C26.9133 23.5229 29.1729 23.208 31.3912 23.5132C33.6095 23.8185 35.7001 24.7319 37.4311 26.1524C39.1622 27.5728 40.4662 29.4448 41.1986 31.5609C41.931 33.6769 42.0633 35.9545 41.5808 38.1411L49.2864 45.8467C50.2002 46.7604 50.8225 47.9246 51.0746 49.192C51.3268 50.4594 51.1974 51.7731 50.7028 52.967C50.2083 54.1608 49.3709 55.1812 48.2964 55.8991C47.2219 56.617 45.9586 57.0001 44.6664 57ZM33.4104 43.1699L42.6877 52.4472C43.2208 52.9562 43.9294 53.2401 44.6664 53.2401C45.4034 53.2401 46.112 52.9562 46.6451 52.4472C47.17 51.9222 47.4649 51.2101 47.4649 50.4676C47.4649 49.7252 47.17 49.0131 46.6451 48.488L37.3696 39.2107L37.7205 38.1224C38.1306 36.8622 38.2363 35.5228 38.0291 34.2138C37.8219 32.9048 37.3077 31.6635 36.5285 30.5915C35.7493 29.5195 34.7273 28.6473 33.5462 28.0462C32.365 27.4451 31.0583 27.1323 29.7331 27.1334C29.5763 27.1334 29.4207 27.1378 29.2664 27.1465L32.7608 30.6409C33.8106 31.691 34.4004 33.1151 34.4004 34.6001C34.4004 36.085 33.8106 37.5091 32.7608 38.5593C31.6944 39.5787 30.276 40.1477 28.8007 40.1477C27.3254 40.1477 25.9069 39.5787 24.8406 38.5593L21.3462 35.0649C21.3374 35.2204 21.3331 35.3766 21.3331 35.5334C21.332 36.8589 21.6449 38.1658 22.2461 39.3471C22.8472 40.5285 23.7196 41.5507 24.7918 42.33C25.864 43.1094 27.1054 43.6238 28.4146 43.8311C29.7238 44.0384 31.0635 43.9327 32.324 43.5227L33.4104 43.1699Z" fill="#FAAD14" stroke="#FAAD14"/>
<path d="M38.1331 6.59999H32.5331V4.73333C32.5302 3.7441 32.1359 2.79623 31.4364 2.09673C30.7369 1.39724 29.789 1.00295 28.7998 1H13.8665C12.8772 1.00295 11.9294 1.39724 11.2299 2.09673C10.5304 2.79623 10.1361 3.7441 10.1331 4.73333V6.59999H4.53313C3.5439 6.60295 2.59603 6.99723 1.89654 7.69672C1.19704 8.39622 0.802759 9.34409 0.799805 10.3333V49.5333C0.802759 50.5225 1.19704 51.4704 1.89654 52.1699C2.59603 52.8694 3.5439 53.2637 4.53313 53.2666H17.5998V49.5333H4.53313V10.3333H10.1331V15.9333H32.5331V10.3333H38.1331V19.6666H41.8664V10.3333C41.8635 9.34409 41.4692 8.39622 40.7697 7.69672C40.0702 6.99723 39.1223 6.60295 38.1331 6.59999ZM28.7998 12.2H13.8665V4.73333H28.7998V12.2Z" fill="#FAAD14" stroke="#FAAD14"/>
</svg>