<svg xmlns="http://www.w3.org/2000/svg" width="56" height="56" viewBox="0 0 56 56" fill="none">
<path d="M0 11.6667C0 8.57247 1.22916 5.60501 3.41709 3.41709C5.60501 1.22916 8.57247 0 11.6667 0H44.3333C47.4275 0 50.395 1.22916 52.5829 3.41709C54.7708 5.60501 56 8.57247 56 11.6667V44.3333C56 47.4275 54.7708 50.395 52.5829 52.5829C50.395 54.7708 47.4275 56 44.3333 56H11.6667C8.57247 56 5.60501 54.7708 3.41709 52.5829C1.22916 50.395 0 47.4275 0 44.3333V11.6667ZM4.66667 42V44.3333C4.66667 46.1898 5.40416 47.9703 6.71692 49.2831C8.02967 50.5958 9.81015 51.3333 11.6667 51.3333H12.32L15.428 42H4.66667ZM16.9867 37.3333L20.0947 28H15.2507L9.02533 37.3333H16.9867ZM20.3467 42L17.2387 51.3333H38.7613L35.6533 42H20.3467ZM34.0947 37.3333L30.9867 28H25.0133L21.9053 37.3333H34.0947ZM40.572 42L43.68 51.3333H44.3333C46.1898 51.3333 47.9703 50.5958 49.2831 49.2831C50.5958 47.9703 51.3333 46.1898 51.3333 44.3333V42H40.572ZM46.9747 37.3333L40.7493 28H35.9053L39.0133 37.3333H46.9747ZM51.3333 11.6667C51.3333 9.81015 50.5958 8.02967 49.2831 6.71692C47.9703 5.40416 46.1898 4.66667 44.3333 4.66667H11.6667C9.81015 4.66667 8.02967 5.40416 6.71692 6.71692C5.40416 8.02967 4.66667 9.81015 4.66667 11.6667V23.3333H51.3333V11.6667ZM4.66667 35.462L9.64133 28H4.66667V35.462ZM51.3333 35.462V28H46.3587L51.3333 35.462Z" fill="#48CA08"/>
</svg>