<svg width="24" height="24" viewBox="0 0 24 24" fill="none" xmlns="http://www.w3.org/2000/svg">
    <path d="M21 5.61429L23.4 4.32857M21 10.1143H24M21 14.6143L23.4 15.9M7.20001 9.34286L14.4 6.9M4.25036 14.7771L5.7813 19.6971C5.91138 20.1152 6.29831 20.4 6.73614 20.4H7.64154C8.31568 20.4 8.79668 19.7466 8.59638 19.1029L7.17406 14.5321C7.07948 14.2281 6.84583 13.9873 6.54484 13.8837L5.53082 13.5345C4.75611 13.2677 4.00692 13.9947 4.25036 14.7771ZM1.87439 12.2751L16.6744 17.372C17.3237 17.5957 18 17.1133 18 16.4265V3.80203C18 3.1153 17.3237 2.63291 16.6744 2.85653L1.87439 7.95347C1.47087 8.09244 1.20001 8.47219 1.20001 8.89897V11.3296C1.20001 11.7564 1.47087 12.1361 1.87439 12.2751Z" stroke="#333333" stroke-width="1.5" stroke-linejoin="round"/>
</svg>
