<svg width="20" height="20" viewBox="0 0 20 20" fill="none" xmlns="http://www.w3.org/2000/svg">
<path d="M5.17909 4.14772C5.08088 4.14772 5.00052 4.22808 5.00052 4.32629V5.39772C5.00052 5.49594 5.08088 5.57629 5.17909 5.57629H13.7505C13.8487 5.57629 13.9291 5.49594 13.9291 5.39772V4.32629C13.9291 4.22808 13.8487 4.14772 13.7505 4.14772H5.17909ZM9.28624 7.36201H5.17909C5.08088 7.36201 5.00052 7.44237 5.00052 7.54058V8.61201C5.00052 8.71022 5.08088 8.79058 5.17909 8.79058H9.28624C9.38445 8.79058 9.46481 8.71022 9.46481 8.61201V7.54058C9.46481 7.44237 9.38445 7.36201 9.28624 7.36201ZM8.21481 17.5852H3.21481V1.87094H15.7148V9.01379C15.7148 9.11201 15.7952 9.19237 15.8934 9.19237H17.1434C17.2416 9.19237 17.322 9.11201 17.322 9.01379V0.97808C17.322 0.58299 17.0028 0.263794 16.6077 0.263794H2.32195C1.92686 0.263794 1.60767 0.58299 1.60767 0.97808V18.4781C1.60767 18.8732 1.92686 19.1924 2.32195 19.1924H8.21481C8.31302 19.1924 8.39338 19.112 8.39338 19.0138V17.7638C8.39338 17.6656 8.31302 17.5852 8.21481 17.5852ZM18.0362 15.6209H14.822V14.804C15.8554 14.4959 16.6077 13.5406 16.6077 12.4067C16.6077 11.025 15.4894 9.90665 14.1077 9.90665C12.726 9.90665 11.6077 11.025 11.6077 12.4067C11.6077 13.5383 12.3599 14.4959 13.3934 14.804V15.6209H10.1791C9.98267 15.6209 9.82195 15.7817 9.82195 15.9781V19.3709C9.82195 19.5674 9.98267 19.7281 10.1791 19.7281H18.0362C18.2327 19.7281 18.3934 19.5674 18.3934 19.3709V15.9781C18.3934 15.7817 18.2327 15.6209 18.0362 15.6209ZM12.9916 12.4067C12.9916 11.7906 13.4916 11.2906 14.1077 11.2906C14.7237 11.2906 15.2237 11.7906 15.2237 12.4067C15.2237 13.0227 14.7237 13.5227 14.1077 13.5227C13.4916 13.5227 12.9916 13.0227 12.9916 12.4067ZM17.0095 18.3442H11.2059V17.0049H17.0095V18.3442Z" fill="white"/>
</svg>
