<svg width="20" height="20" viewBox="0 0 20 20" fill="none" xmlns="http://www.w3.org/2000/svg">
<g clip-path="url(#clip0_3072_15402)">
<path d="M17.1423 0H2.85662C2.46153 0 2.14233 0.319196 2.14233 0.714286V19.2857C2.14233 19.6808 2.46153 20 2.85662 20H17.1423C17.5374 20 17.8566 19.6808 17.8566 19.2857V0.714286C17.8566 0.319196 17.5374 0 17.1423 0ZM3.74948 1.60714H16.2495V6.25H3.74948V1.60714ZM16.2495 12.3214H3.74948V7.67857H16.2495V12.3214ZM16.2495 18.3929H3.74948V13.75H16.2495V18.3929ZM5.35662 3.92857C5.35662 4.16537 5.45069 4.39247 5.61813 4.55992C5.78558 4.72736 6.01268 4.82143 6.24948 4.82143C6.48628 4.82143 6.71338 4.72736 6.88082 4.55992C7.04827 4.39247 7.14233 4.16537 7.14233 3.92857C7.14233 3.69177 7.04827 3.46467 6.88082 3.29723C6.71338 3.12978 6.48628 3.03571 6.24948 3.03571C6.01268 3.03571 5.78558 3.12978 5.61813 3.29723C5.45069 3.46467 5.35662 3.69177 5.35662 3.92857ZM5.35662 10C5.35662 10.2368 5.45069 10.4639 5.61813 10.6313C5.78558 10.7988 6.01268 10.8929 6.24948 10.8929C6.48628 10.8929 6.71338 10.7988 6.88082 10.6313C7.04827 10.4639 7.14233 10.2368 7.14233 10C7.14233 9.7632 7.04827 9.5361 6.88082 9.36866C6.71338 9.20121 6.48628 9.10714 6.24948 9.10714C6.01268 9.10714 5.78558 9.20121 5.61813 9.36866C5.45069 9.5361 5.35662 9.7632 5.35662 10ZM5.35662 16.0714C5.35662 16.3082 5.45069 16.5353 5.61813 16.7028C5.78558 16.8702 6.01268 16.9643 6.24948 16.9643C6.48628 16.9643 6.71338 16.8702 6.88082 16.7028C7.04827 16.5353 7.14233 16.3082 7.14233 16.0714C7.14233 15.8346 7.04827 15.6075 6.88082 15.4401C6.71338 15.2726 6.48628 15.1786 6.24948 15.1786C6.01268 15.1786 5.78558 15.2726 5.61813 15.4401C5.45069 15.6075 5.35662 15.8346 5.35662 16.0714Z" fill="currentColor"/>
</g>
<defs>
<clipPath id="clip0_3072_15402">
<rect width="20" height="20" fill="currentColor"/>
</clipPath>
</defs>
</svg>
