<svg width="16" height="16" viewBox="0 0 16 16" fill="none" xmlns="http://www.w3.org/2000/svg">
<g id="external-link" clip-path="url(#clip0_3060_38901)">
<g id="Union">
<path d="M1.46034 15.1751H14.6032C14.9193 15.1751 15.1746 14.9197 15.1746 14.6037V8.17509C15.1746 8.09652 15.1103 8.03223 15.0318 8.03223H14.0318C13.9532 8.03223 13.8889 8.09652 13.8889 8.17509V13.8894H2.17463V2.17509H7.88892C7.96749 2.17509 8.03177 2.1108 8.03177 2.03223V1.03223C8.03177 0.95366 7.96749 0.889374 7.88892 0.889374H1.46034C1.14427 0.889374 0.888916 1.14473 0.888916 1.4608V14.6037C0.888916 14.9197 1.14427 15.1751 1.46034 15.1751Z" fill="currentColor" fill-opacity="0.45"/>
<path d="M11.7223 1.51313L12.6545 2.44528L4.97013 10.1332C4.91477 10.1885 4.91477 10.2796 4.97013 10.335L5.72727 11.0921C5.78263 11.1475 5.8737 11.1475 5.92906 11.0921L13.6152 3.40599L14.5509 4.3417C14.6348 4.42563 14.7795 4.37563 14.7937 4.25778L15.1687 1.0542C15.1795 0.961347 15.1009 0.88456 15.0098 0.895274L11.8062 1.27027C11.7797 1.27354 11.7546 1.2842 11.7337 1.30104C11.7129 1.31788 11.6973 1.34022 11.6885 1.36552C11.6798 1.39082 11.6783 1.41807 11.6843 1.44417C11.6903 1.47026 11.7034 1.49416 11.7223 1.51313Z" fill="currentColor" fill-opacity="0.45"/>
</g>
</g>
<defs>
<clipPath id="clip0_3060_38901">
<rect width="16" height="16" fill="currentColor" transform="translate(0 0.000488281)"/>
</clipPath>
</defs>
</svg>
