<svg width="20" height="20" viewBox="0 0 20 20" fill="none" xmlns="http://www.w3.org/2000/svg">
<path d="M5.17909 4.28165C5.08088 4.28165 5.00052 4.36201 5.00052 4.46022V5.53165C5.00052 5.62987 5.08088 5.71022 5.17909 5.71022H13.7505C13.8487 5.71022 13.9291 5.62987 13.9291 5.53165V4.46022C13.9291 4.36201 13.8487 4.28165 13.7505 4.28165H5.17909ZM9.46481 8.74594V7.67451C9.46481 7.57629 9.38445 7.49594 9.28624 7.49594H5.17909C5.08088 7.49594 5.00052 7.57629 5.00052 7.67451V8.74594C5.00052 8.84415 5.08088 8.92451 5.17909 8.92451H9.28624C9.38445 8.92451 9.46481 8.84415 9.46481 8.74594ZM8.39338 17.5852H3.21481V1.87094H15.7148V9.54951C15.7148 9.64772 15.7952 9.72808 15.8934 9.72808H17.1434C17.2416 9.72808 17.322 9.64772 17.322 9.54951V0.97808C17.322 0.58299 17.0028 0.263794 16.6077 0.263794H2.32195C1.92686 0.263794 1.60767 0.58299 1.60767 0.97808V18.4781C1.60767 18.8732 1.92686 19.1924 2.32195 19.1924H8.39338C8.49159 19.1924 8.57195 19.112 8.57195 19.0138V17.7638C8.57195 17.6656 8.49159 17.5852 8.39338 17.5852ZM10.717 15.0049C10.7572 14.2348 11.0786 13.5138 11.6278 12.9647C12.2126 12.3799 13.0117 12.0495 13.8398 12.0495C14.6746 12.0495 15.4603 12.3754 16.0519 12.9647C16.1233 13.0361 16.1925 13.112 16.2572 13.1901L15.7416 13.5897C15.715 13.6103 15.6948 13.6379 15.6832 13.6695C15.6716 13.701 15.6692 13.7352 15.6762 13.7681C15.6832 13.801 15.6993 13.8312 15.7227 13.8553C15.7462 13.8794 15.7759 13.8965 15.8086 13.9044L17.8911 14.4067C18.0028 14.4334 18.1099 14.3486 18.1121 14.2348L18.1255 12.1053C18.1258 12.0718 18.1167 12.0388 18.0992 12.0102C18.0816 11.9816 18.0564 11.9585 18.0263 11.9436C17.9963 11.9287 17.9626 11.9226 17.9292 11.9259C17.8959 11.9292 17.8641 11.9419 17.8376 11.9625L17.3845 12.3151C16.5496 11.2817 15.2706 10.6209 13.8398 10.6209C11.3867 10.6209 9.38445 12.5607 9.28624 14.9892C9.28177 15.0897 9.36436 15.1745 9.46481 15.1745H10.5385C10.6345 15.1745 10.7126 15.1008 10.717 15.0049ZM18.2148 15.1745H17.1411C17.0452 15.1745 16.967 15.2482 16.9626 15.3442C16.9224 16.1142 16.601 16.8352 16.0519 17.3843C15.467 17.9692 14.6679 18.2995 13.8398 18.2995C13.005 18.2995 12.2193 17.9736 11.6278 17.3843C11.5563 17.3129 11.4871 17.237 11.4224 17.1589L11.938 16.7593C11.9646 16.7388 11.9849 16.7111 11.9964 16.6795C12.008 16.648 12.0104 16.6138 12.0034 16.5809C11.9964 16.548 11.9803 16.5178 11.9569 16.4937C11.9335 16.4696 11.9037 16.4526 11.8711 16.4446L9.78847 15.9424C9.67686 15.9156 9.56972 16.0004 9.56749 16.1142L9.55409 18.2437C9.55377 18.2773 9.56291 18.3102 9.58045 18.3388C9.598 18.3674 9.62324 18.3905 9.65329 18.4054C9.68335 18.4203 9.71699 18.4264 9.75037 18.4231C9.78375 18.4198 9.81552 18.4071 9.84204 18.3866L10.2952 18.0339C11.13 19.0674 12.409 19.7281 13.8398 19.7281C16.2929 19.7281 18.2952 17.7883 18.3934 15.3598C18.3978 15.2593 18.3153 15.1745 18.2148 15.1745Z" fill="currentColor"/>
</svg>
