<svg width="20" height="16" viewBox="0 0 20 16" fill="none" xmlns="http://www.w3.org/2000/svg">
<path d="M19.2857 6.47944H16.875V3.94373C16.875 3.54864 16.5558 3.22944 16.1607 3.22944H9.12946L6.51116 0.72498C6.47785 0.693792 6.43403 0.676264 6.38839 0.675873H0.714286C0.319196 0.675873 0 0.995069 0 1.39016V14.6044C0 14.9995 0.319196 15.3187 0.714286 15.3187H16.2946C16.5848 15.3187 16.8482 15.1424 16.9576 14.8723L19.9487 7.46159C19.9821 7.37677 20 7.28525 20 7.19373C20 6.79864 19.6808 6.47944 19.2857 6.47944ZM1.60714 2.28302H5.81473L8.48438 4.83659H15.2679V6.47944H3.88393C3.59375 6.47944 3.33036 6.65578 3.22098 6.92587L1.60714 10.9259V2.28302ZM15.7879 13.7116H2.12054L4.42634 7.9973H18.096L15.7879 13.7116Z" fill="white"/>
</svg>
