<svg width="20" height="20" viewBox="0 0 20 20" fill="none" xmlns="http://www.w3.org/2000/svg">
<g id="FundProjectionScreen" clip-path="url(#clip0_3072_15414)">
<g id="Vector">
<path d="M5.53878 11.7737C5.60798 11.8429 5.72181 11.8429 5.79101 11.7737L8.06333 9.50138L9.98521 11.4255C10.0544 11.4947 10.1682 11.4947 10.2374 11.4255L15.2888 6.36968C15.358 6.30048 15.358 6.18664 15.2888 6.11745L14.4674 5.29602C14.4338 5.26278 14.3885 5.24414 14.3412 5.24414C14.294 5.24414 14.2487 5.26278 14.2151 5.29602L10.1124 9.40316L8.19056 7.47905C8.157 7.44582 8.11168 7.42718 8.06445 7.42718C8.01722 7.42718 7.97189 7.44582 7.93833 7.47905L4.71735 10.7C4.68412 10.7336 4.66547 10.7789 4.66547 10.8262C4.66547 10.8734 4.68412 10.9187 4.71735 10.9523L5.53878 11.7737Z" fill="currentColor"/>
<path d="M18.749 2.14419H10.8025V0.71562C10.8025 0.617405 10.7222 0.537048 10.624 0.537048H9.37395C9.27574 0.537048 9.19538 0.617405 9.19538 0.71562V2.14419H1.24895C0.853864 2.14419 0.534668 2.46339 0.534668 2.85848V14.4656C0.534668 14.8607 0.853864 15.1799 1.24895 15.1799H9.20431V15.8942L5.52574 18.3071C5.50619 18.3198 5.48934 18.3363 5.47616 18.3555C5.46299 18.3748 5.45375 18.3964 5.44898 18.4192C5.44421 18.442 5.444 18.4656 5.44836 18.4885C5.45272 18.5114 5.46157 18.5332 5.4744 18.5527L6.15074 19.6062V19.6085C6.20431 19.6911 6.31592 19.7134 6.39851 19.6598L9.99895 17.2982L13.5994 19.6598C13.682 19.7134 13.7936 19.6911 13.8472 19.6085V19.6062L14.5235 18.5527C14.5489 18.5132 14.5578 18.4653 14.5482 18.4194C14.5386 18.3734 14.5113 18.3331 14.4722 18.3071L10.8025 15.9009V15.1799H18.749C19.144 15.1799 19.4632 14.8607 19.4632 14.4656V2.85848C19.4632 2.46339 19.144 2.14419 18.749 2.14419ZM17.8561 13.5728H2.14181V3.75133H17.8561V13.5728Z" fill="currentColor"/>
</g>
</g>
<defs>
<clipPath id="clip0_3072_15414">
<rect width="20" height="20" fill="currentColor"/>
</clipPath>
</defs>
</svg>
