<svg xmlns="http://www.w3.org/2000/svg" version="1.0" width="1200.000000pt" height="1200.000000pt" viewBox="0 0 1200.000000 1200.000000" preserveAspectRatio="xMidYMid meet">

<g transform="translate(0.000000,1200.000000) scale(0.100000,-0.100000)" fill="#000000" stroke="none">
<path d="M7311 10195 c-120 -27 -217 -104 -270 -215 l-26 -55 -3 -837 -3 -837 -57 -6 c-115 -14 -522 -84 -687 -120 -749 -160 -1550 -445 -2260 -805 -850 -431 -1528 -966 -2110 -1665 -198 -238 -366 -470 -492 -680 -389 -649 -617 -1341 -703 -2140 -17 -154 -24 -660 -11 -825 15 -201 43 -430 53 -430 4 0 8 6 8 14 0 28 133 335 235 541 599 1217 1493 2108 2590 2583 304 132 545 209 827 266 368 74 641 104 1038 113 424 9 782 -19 1135 -88 83 -16 153 -29 158 -29 4 0 7 67 7 150 l0 149 33 -6 c17 -4 77 -16 132 -28 l100 -21 5 -849 5 -850 29 -63 c33 -71 123 -162 181 -184 28 -10 43 -25 67 -70 38 -72 111 -141 186 -176 50 -24 69 -27 158 -27 156 0 152 -2 696 481 471 418 592 526 1998 1773 1245 1105 1114 983 1157 1078 22 47 27 72 27 133 0 134 -40 209 -176 329 -49 44 -103 100 -119 125 -16 24 -62 73 -102 108 -143 127 -884 784 -1502 1332 -792 702 -855 759 -930 826 -199 181 -1029 913 -1068 943 -82 63 -197 86 -306 62z"/>
</g>
</svg>