<svg width="24" height="24" viewBox="0 0 24 24" fill="none" xmlns="http://www.w3.org/2000/svg">
    <g clip-path="url(#clip0_6361_15813)">
        <path fill-rule="evenodd" clip-rule="evenodd" d="M10.6673 12.8137C8.76683 12.9173 6.88748 13.4619 5.2087 14.4476C5.084 14.5208 4.93053 14.6062 4.75715 14.7027L4.75715 14.7027C4.00096 15.1234 2.8661 15.7548 2.0881 16.5058C1.60215 16.9748 1.14228 17.591 1.05866 18.3453C0.969722 19.1476 1.32436 19.9004 2.03745 20.5703C3.27651 21.7343 4.75518 22.659 6.66277 22.659H11.0853C10.6521 22.2084 10.275 21.7048 9.96504 21.159H6.66277C5.29344 21.159 4.16568 20.5115 3.06449 19.477C2.5799 19.0218 2.52787 18.7059 2.54952 18.5106C2.57649 18.2673 2.74445 17.957 3.1298 17.585C3.74927 16.9871 4.63854 16.4897 5.39456 16.0668C5.59804 15.953 5.79187 15.8446 5.96818 15.7411C7.11736 15.0664 8.37554 14.6278 9.66641 14.4255C9.9312 13.8452 10.2686 13.3042 10.6673 12.8137Z" fill="#333333"/>
        <path d="M16 5.5C16 7.98528 13.9853 10 11.5 10C9.01472 10 7 7.98528 7 5.5C7 3.01472 9.01472 1 11.5 1C13.9853 1 16 3.01472 16 5.5Z" stroke="#333333" stroke-width="1.5"/>
        <path d="M17.2236 11C17.2236 10.5858 16.8878 10.25 16.4736 10.25C16.0594 10.25 15.7236 10.5858 15.7236 11L17.2236 11ZM15.7236 24C15.7236 24.4142 16.0594 24.75 16.4736 24.75C16.8878 24.75 17.2236 24.4142 17.2236 24H15.7236ZM18.9245 14.7693C19.0119 15.1742 19.4109 15.4316 19.8158 15.3442C20.2207 15.2569 20.4781 14.8578 20.3907 14.4529L18.9245 14.7693ZM13.7301 20.2172C13.6353 19.814 13.2316 19.564 12.8283 19.6588C12.4251 19.7536 12.1751 20.1573 12.2699 20.5606L13.7301 20.2172ZM16.4736 16.563C15.3554 16.563 14.7434 16.3677 14.422 16.1297C14.1509 15.929 13.9911 15.6257 13.9911 15.0661H12.4911C12.4911 15.9543 12.772 16.7744 13.5294 17.3353C14.2366 17.8588 15.2408 18.063 16.4736 18.063V16.563ZM13.9911 15.0661C13.9911 14.1718 14.948 13.1947 16.4736 13.1947V11.6947C14.4286 11.6947 12.4911 13.065 12.4911 15.0661H13.9911ZM19.25 19.9344C19.25 20.6214 18.9796 21.0404 18.5539 21.3214C18.0856 21.6306 17.3696 21.8058 16.4736 21.8058V23.3058C17.5252 23.3058 18.5724 23.1066 19.3804 22.5732C20.231 22.0116 20.75 21.1199 20.75 19.9344H19.25ZM16.4736 18.063C17.5986 18.063 18.2865 18.248 18.6815 18.5311C19.0215 18.7749 19.25 19.1693 19.25 19.9344H20.75C20.75 18.8271 20.3907 17.9108 19.5553 17.312C18.7748 16.7525 17.6995 16.563 16.4736 16.563V18.063ZM17.2236 12.4447L17.2236 11L15.7236 11L15.7236 12.4447L17.2236 12.4447ZM15.7236 22.5558V24H17.2236V22.5558H15.7236ZM16.4736 13.1947C17.8171 13.1947 18.7531 13.9752 18.9245 14.7693L20.3907 14.4529C20.0308 12.7853 18.3179 11.6947 16.4736 11.6947V13.1947ZM16.4736 21.8058C14.9369 21.8058 13.9108 20.9857 13.7301 20.2172L12.2699 20.5606C12.6682 22.2544 14.5321 23.3058 16.4736 23.3058V21.8058Z" fill="#333333"/>
    </g>
    <defs>
        <clipPath id="clip0_6361_15813">
            <rect width="24" height="24" fill="white"/>
        </clipPath>
    </defs>
</svg>
