<svg width="24" height="24" viewBox="0 0 24 24" fill="none" xmlns="http://www.w3.org/2000/svg">
    <path d="M15.7334 13.8667C15.7334 14.6399 16.3602 15.2667 17.1334 15.2667C17.9066 15.2667 18.5334 14.6399 18.5334 13.8667C18.5334 13.0935 17.9066 12.4667 17.1334 12.4667C16.3602 12.4667 15.7334 13.0935 15.7334 13.8667Z" stroke="#333333" stroke-width="1.5"/>
    <path d="M10.1334 7.33333H15.7334C18.3732 7.33333 19.6932 7.33333 20.5133 8.15343C21.3334 8.97354 21.3334 10.2935 21.3334 12.9333V14.8C21.3334 17.4399 21.3334 18.7598 20.5133 19.5799C19.6932 20.4 18.3732 20.4 15.7334 20.4H10.1334C6.61353 20.4 4.85362 20.4 3.76016 19.3065C2.66669 18.2131 2.66669 16.4532 2.66669 12.9333V11.0667C2.66669 7.54685 2.66669 5.78694 3.76016 4.69347C4.85362 3.6 6.61353 3.6 10.1334 3.6H13.8667C14.7347 3.6 15.1686 3.6 15.5247 3.69541C16.491 3.95432 17.2457 4.70905 17.5046 5.67531C17.6 6.03137 17.6 6.46536 17.6 7.33333" stroke="#333333" stroke-width="1.5" stroke-linecap="round"/>
</svg>
