<svg width="24" height="24" viewBox="0 0 24 24" fill="none" xmlns="http://www.w3.org/2000/svg">
    <path d="M5.39102 18.3333H7.03863H8.68623M5.39102 15H11.9814" stroke="#333333" stroke-width="1.5" stroke-linecap="round"/>
    <rect x="5.75" y="5.75" width="10.7222" height="6.27778" rx="1.25" stroke="#333333" stroke-width="1.5"/>
    <path d="M20.7823 22H6C4.34315 22 3 20.6569 3 19V5C3 3.34315 4.34315 2 6 2H16C17.6569 2 19 3.34315 19 5V9.36842M19 9.36842V20.5C19 21.3284 19.6716 22 20.5 22V22C21.3284 22 22 21.3284 22 20.5V12.3684C22 10.7116 20.6569 9.36842 19 9.36842V9.36842Z" stroke="#333333" stroke-width="1.5" stroke-linecap="round"/>
</svg>
