<svg width="24" height="24" viewBox="0 0 24 24" fill="none" xmlns="http://www.w3.org/2000/svg">
    <path d="M17.9165 22C17.5929 22 17.2693 21.9185 16.977 21.7453L12.7912 19.3202C12.3528 19.31 11.9144 19.2795 11.4969 19.2184C11.215 19.1776 10.9749 18.9942 10.8706 18.7292C10.7662 18.4643 11.3121 18.214 11.5 18C12.1889 17.2154 12.4447 16.0189 12.4447 15.0204C12.4447 12.5546 10 10.1601 7.01043 10.5487C5.98747 10.5487 5.08767 11.0466 4.26304 11.5764C4.03339 11.7191 3.75156 11.7394 3.50104 11.6274C3.26096 11.5153 3.08351 11.2911 3.0522 11.0262C3.02088 10.7409 3 10.4556 3 10.1601C3 5.10625 7.48852 1 13 1C18.5115 1 23 5.10625 23 10.1601C23 12.9316 21.6847 15.4789 19.3674 17.2212L19.7223 19.9928C19.8058 20.6856 19.4927 21.3377 18.8977 21.7147C18.6054 21.8981 18.261 22 17.9165 22ZM13.4071 17.4486C13.5532 17.4384 13.2818 17.8123 13.4071 17.8938L17.7808 20.4309C17.8956 20.5022 17.9896 20.4716 18.0522 20.4309C18.1044 20.4003 18.1879 20.3188 18.167 20.1761L17.7599 16.9563C17.7286 16.671 17.8539 16.3959 18.0835 16.2329C20.2129 14.7759 21.4342 12.5546 21.4342 10.1397C21.4342 5.93156 17.6555 2.50799 13 2.50799C8.52192 2.50799 4.84759 5.68707 4.57619 9.68125C5.35908 9.38576 6 10 7 9.5C10.6013 9.5 13.7651 11.6274 14 15C14.0104 15.8967 13.8142 16.6538 13.4071 17.4486Z" fill="#333333"/>
    <path d="M4.45281 23C4.18241 23 3.9224 22.9269 3.6832 22.7703C3.2152 22.4676 2.96561 21.9456 3.02801 21.3923L3.23601 19.7845C1.83201 18.6361 1 16.9343 1 15.1491C1 13.1133 2.06081 11.2132 3.83921 10.0753C4.91041 9.37581 6.1792 9 7.5 9C11.088 9 14 11.7561 14 15.1491C14 16.5272 13.5008 17.8844 12.5856 18.9597C11.4104 20.39 9.65281 21.2252 7.71841 21.2878L5.1808 22.8016C4.952 22.9374 4.70241 23 4.45281 23ZM7.48961 10.566C6.47041 10.566 5.4928 10.8479 4.6712 11.3907C3.34 12.2468 2.54961 13.6457 2.54961 15.1491C2.54961 16.6003 3.25681 17.9262 4.50481 18.7823C4.74401 18.9493 4.8688 19.2311 4.8376 19.5235L4.6088 21.3087L7.0944 19.8263C7.2192 19.7532 7.35441 19.7114 7.48961 19.7114C9.0184 19.7114 10.464 19.0537 11.3792 17.9366C12.0656 17.1223 12.4296 16.1618 12.4296 15.1387C12.4296 12.6226 10.2144 10.566 7.48961 10.566Z" fill="#333333"/>
    <circle cx="4.75" cy="15.75" r="0.75" fill="#333333"/>
    <circle cx="7.25" cy="15.75" r="0.75" fill="#333333"/>
    <circle cx="9.75" cy="15.75" r="0.75" fill="#333333"/>
</svg>
