<svg width="24" height="24" viewBox="0 0 24 24" fill="none" xmlns="http://www.w3.org/2000/svg">
    <path d="M3.50003 10C3.50003 6.22879 3.50003 4.34317 4.74483 3.1716C5.98962 2.00002 7.99309 2.00002 12 2.00002H12.7728C16.034 2.00002 17.6646 2.00002 18.797 2.79786C19.1214 3.02645 19.4095 3.29755 19.6523 3.60291C20.5 4.6687 20.5 6.20338 20.5 9.27275V11.8182C20.5 14.7814 20.5 16.263 20.0311 17.4463C19.2772 19.3486 17.6829 20.8491 15.6617 21.5587C14.4044 22 12.8302 22 9.68185 22C7.88278 22 6.98325 22 6.26481 21.7478C5.10982 21.3424 4.19878 20.4849 3.76799 19.3979C3.50003 18.7217 3.50003 17.8751 3.50003 16.1818V10Z" stroke="#333333" stroke-width="1.5" stroke-linejoin="round"/>
    <path d="M20.5 12C20.5 13.841 19.0076 15.3334 17.1667 15.3334C16.5009 15.3334 15.716 15.2167 15.0687 15.3901C14.4935 15.5443 14.0443 15.9935 13.8902 16.5687C13.7167 17.216 13.8334 18.0009 13.8334 18.6667C13.8334 20.5076 12.341 22 10.5 22" stroke="#333333" stroke-width="1.5" stroke-linecap="round" stroke-linejoin="round"/>
    <path d="M8.00003 7.00002H15" stroke="#333333" stroke-width="1.5" stroke-linecap="round" stroke-linejoin="round"/>
    <path d="M8.00003 11H11" stroke="#333333" stroke-width="1.5" stroke-linecap="round" stroke-linejoin="round"/>
</svg>
