<svg width="20" height="20" viewBox="0 0 20 20" fill="none" xmlns="http://www.w3.org/2000/svg">
<g id="Tool">
<path id="Vector" d="M18.1375 3.91389C18.1263 3.8938 18.1107 3.87371 18.0929 3.85808C17.9813 3.74648 17.8004 3.74648 17.6888 3.85808L13.8429 7.70407L12.3272 6.18844L16.1755 2.34023C16.1933 2.32237 16.2067 2.30451 16.2201 2.28442C16.3005 2.14826 16.2558 1.97415 16.1196 1.8938C13.9277 0.599155 11.0571 0.89603 9.17098 2.77996C7.67545 4.27549 7.17991 6.39603 7.68661 8.30228L1.14643 14.8425C1.07947 14.9094 1.08393 15.0188 1.15313 15.088L4.94107 18.8759C5.01027 18.9451 5.12188 18.9496 5.18661 18.8826L11.7246 12.3447C13.633 12.8536 15.7536 12.3603 17.2513 10.8625C19.1353 8.97639 19.4321 6.10585 18.1375 3.91389ZM16.1152 9.72416C14.8183 11.021 12.8719 11.271 11.325 10.4742L11.1286 10.6706L11.1263 10.6684L5.01027 16.7867L3.24241 15.0188L8.37857 9.88264C8.37857 9.88264 8.37857 9.88487 8.38081 9.88487L9.55938 8.7063C8.7625 7.15942 9.0125 5.21299 10.3094 3.91612C10.7276 3.49748 11.2314 3.17406 11.7861 2.96796C12.3408 2.76186 12.9335 2.67793 13.5237 2.72192L10.5571 5.68621C10.4232 5.82035 10.3479 6.00219 10.3479 6.19179C10.3479 6.38139 10.4232 6.56323 10.5571 6.69737L13.3362 9.47639C13.4703 9.61038 13.6521 9.68564 13.8417 9.68564C14.0313 9.68564 14.2132 9.61038 14.3473 9.47639L17.3116 6.5121C17.3942 7.66835 16.9902 8.85139 16.1152 9.72416Z" fill="currentColor"/>
</g>
</svg>
