<svg width="16" height="14" viewBox="0 0 16 14" fill="none" xmlns="http://www.w3.org/2000/svg">
<path d="M15.4286 0.734315H11.3429C10.4661 0.734315 9.60893 0.9861 8.87143 1.4611L8 2.02003L7.12857 1.4611C6.39181 0.986191 5.53371 0.733846 4.65714 0.734315H0.571429C0.255357 0.734315 0 0.989672 0 1.30574V11.4486C0 11.7647 0.255357 12.02 0.571429 12.02H4.65714C5.53393 12.02 6.39107 12.2718 7.12857 12.7468L7.92143 13.2575C7.94464 13.2718 7.97143 13.2807 7.99821 13.2807C8.025 13.2807 8.05179 13.2736 8.075 13.2575L8.86786 12.7468C9.60714 12.2718 10.4661 12.02 11.3429 12.02H15.4286C15.7446 12.02 16 11.7647 16 11.4486V1.30574C16 0.989672 15.7446 0.734315 15.4286 0.734315ZM4.65714 10.7343H1.28571V2.02003H4.65714C5.28929 2.02003 5.90357 2.20039 6.43393 2.54146L7.30536 3.10039L7.42857 3.18074V11.4307C6.57857 10.9736 5.62857 10.7343 4.65714 10.7343ZM14.7143 10.7343H11.3429C10.3714 10.7343 9.42143 10.9736 8.57143 11.4307V3.18074L8.69464 3.10039L9.56607 2.54146C10.0964 2.20039 10.7107 2.02003 11.3429 2.02003H14.7143V10.7343ZM5.94464 4.30574H2.62679C2.55714 4.30574 2.5 4.36646 2.5 4.43967V5.24324C2.5 5.31646 2.55714 5.37717 2.62679 5.37717H5.94286C6.0125 5.37717 6.06964 5.31646 6.06964 5.24324V4.43967C6.07143 4.36646 6.01429 4.30574 5.94464 4.30574ZM9.92857 4.43967V5.24324C9.92857 5.31646 9.98571 5.37717 10.0554 5.37717H13.3714C13.4411 5.37717 13.4982 5.31646 13.4982 5.24324V4.43967C13.4982 4.36646 13.4411 4.30574 13.3714 4.30574H10.0554C9.98571 4.30574 9.92857 4.36646 9.92857 4.43967ZM5.94464 6.80574H2.62679C2.55714 6.80574 2.5 6.86646 2.5 6.93967V7.74324C2.5 7.81646 2.55714 7.87717 2.62679 7.87717H5.94286C6.0125 7.87717 6.06964 7.81646 6.06964 7.74324V6.93967C6.07143 6.86646 6.01429 6.80574 5.94464 6.80574ZM13.3732 6.80574H10.0554C9.98571 6.80574 9.92857 6.86646 9.92857 6.93967V7.74324C9.92857 7.81646 9.98571 7.87717 10.0554 7.87717H13.3714C13.4411 7.87717 13.4982 7.81646 13.4982 7.74324V6.93967C13.5 6.86646 13.4429 6.80574 13.3732 6.80574Z" fill="currentColor" fill-opacity="0.85"/>
</svg>
