<svg width="24" height="24" viewBox="0 0 24 24" fill="none" xmlns="http://www.w3.org/2000/svg">
    <path d="M6.57757 15.4815C5.1628 16.3239 1.45336 18.0441 3.71266 20.1965C4.81631 21.248 6.04549 21.9999 7.59087 21.9999H16.4091C17.9545 21.9999 19.1837 21.248 20.2873 20.1965C22.5466 18.0441 18.8372 16.3239 17.4224 15.4815C14.1048 13.5061 9.89519 13.5061 6.57757 15.4815Z" stroke="#333333" stroke-width="1.5" stroke-linecap="round" stroke-linejoin="round"/>
    <path d="M16.5 6.49994C16.5 8.98522 14.4853 10.9999 12 10.9999C9.51472 10.9999 7.5 8.98522 7.5 6.49994C7.5 4.01466 9.51472 1.99994 12 1.99994C14.4853 1.99994 16.5 4.01466 16.5 6.49994Z" stroke="#333333" stroke-width="1.5"/>
</svg>
