<svg width="24" height="24" viewBox="0 0 24 24" fill="none" xmlns="http://www.w3.org/2000/svg">
    <path fill-rule="evenodd" clip-rule="evenodd" d="M15.4343 22.7499C14.5572 22.461 13.7874 21.9359 13.2002 21.2499H7.59086C6.31841 21.2499 5.26584 20.6403 4.22999 19.6535C3.77936 19.2242 3.73427 18.9301 3.75376 18.7517C3.77832 18.527 3.93183 18.2362 4.29196 17.8837C4.87205 17.3159 5.70407 16.8439 6.41668 16.4396C6.60939 16.3303 6.79338 16.2259 6.96128 16.1259C8.83866 15.0081 11.0256 14.5713 13.1449 14.8157C13.5679 14.3042 14.0907 13.8783 14.6835 13.5678C11.8362 12.8824 8.76617 13.3054 6.19386 14.8371C6.07754 14.9064 5.93387 14.9874 5.7712 15.0792C5.05839 15.4813 3.98088 16.0892 3.24271 16.8118C2.78104 17.2637 2.34239 17.8591 2.26265 18.5887C2.17784 19.3645 2.5163 20.0926 3.19532 20.7395C4.36677 21.8556 5.77255 22.7499 7.59086 22.7499H15.4343Z" fill="#333333"/>
    <path d="M16.5 6.49994C16.5 8.98522 14.4853 10.9999 12 10.9999C9.51472 10.9999 7.5 8.98522 7.5 6.49994C7.5 4.01466 9.51472 1.99994 12 1.99994C14.4853 1.99994 16.5 4.01466 16.5 6.49994Z" stroke="#333333" stroke-width="1.5"/>
    <g clip-path="url(#clip0_6361_15871)">
        <path d="M20.1058 16.3805L19.9413 16.0949C19.8169 15.879 19.7547 15.771 19.6488 15.728C19.5429 15.6849 19.4232 15.7189 19.1838 15.7868L18.777 15.9014C18.6242 15.9367 18.4638 15.9167 18.3242 15.8449L18.2119 15.7801C18.0922 15.7035 18.0001 15.5905 17.9492 15.4576L17.8379 15.1251C17.7647 14.9051 17.7281 14.7951 17.641 14.7322C17.5538 14.6693 17.4381 14.6693 17.2066 14.6693H16.8351C16.6036 14.6693 16.4879 14.6693 16.4008 14.7322C16.3136 14.7951 16.277 14.9051 16.2038 15.1251L16.0925 15.4576C16.0416 15.5905 15.9495 15.7035 15.8298 15.7801L15.7175 15.8449C15.5779 15.9167 15.4175 15.9367 15.2647 15.9014L14.8579 15.7868C14.6185 15.7189 14.4988 15.6849 14.3929 15.728C14.287 15.771 14.2248 15.879 14.1004 16.0949L13.9359 16.3805C13.8192 16.5829 13.7609 16.6841 13.7722 16.7918C13.7835 16.8996 13.8616 16.9864 14.0178 17.16L14.3614 17.5443C14.4454 17.6506 14.5051 17.8359 14.5051 18.0026C14.5051 18.1693 14.4455 18.3546 14.3615 18.4609L14.0178 18.8452C13.8616 19.0188 13.7835 19.1056 13.7722 19.2134C13.7609 19.3211 13.8192 19.4223 13.9359 19.6247L14.1004 19.9103C14.2248 20.1262 14.287 20.2342 14.3929 20.2772C14.4988 20.3203 14.6185 20.2863 14.8579 20.2184L15.2647 20.1038C15.4176 20.0685 15.578 20.0885 15.7176 20.1603L15.8298 20.2251C15.9495 20.3017 16.0416 20.4148 16.0925 20.5476L16.2038 20.8801C16.277 21.1001 16.3136 21.2101 16.4008 21.273C16.4879 21.3359 16.6036 21.3359 16.8351 21.3359H17.2066C17.4381 21.3359 17.5538 21.3359 17.641 21.273C17.7281 21.2101 17.7647 21.1001 17.8379 20.8801L17.9492 20.5476C18.0001 20.4148 18.0922 20.3017 18.2119 20.2251L18.3241 20.1603C18.4637 20.0885 18.6242 20.0685 18.777 20.1038L19.1838 20.2184C19.4232 20.2863 19.5429 20.3203 19.6488 20.2772C19.7547 20.2342 19.8169 20.1262 19.9413 19.9103L19.9413 19.9103L20.1058 19.6247C20.2225 19.4223 20.2808 19.3211 20.2695 19.2134C20.2582 19.1056 20.1801 19.0188 20.0239 18.8452L19.6803 18.4609C19.5962 18.3546 19.5366 18.1693 19.5366 18.0026C19.5366 17.8359 19.5963 17.6506 19.6803 17.5443L20.0239 17.16C20.1801 16.9864 20.2582 16.8996 20.2695 16.7918C20.2808 16.6841 20.2225 16.5829 20.1058 16.3805Z" stroke="#333333" stroke-linecap="round"/>
        <path d="M18.1732 18C18.1732 18.6443 17.6508 19.1667 17.0065 19.1667C16.3622 19.1667 15.8398 18.6443 15.8398 18C15.8398 17.3557 16.3622 16.8333 17.0065 16.8333C17.6508 16.8333 18.1732 17.3557 18.1732 18Z" stroke="#333333"/>
    </g>
    <defs>
        <clipPath id="clip0_6361_15871">
            <rect width="8" height="8" fill="white" transform="translate(13 14)"/>
        </clipPath>
    </defs>
</svg>
