<svg width="24" height="24" viewBox="0 0 24 24" fill="none" xmlns="http://www.w3.org/2000/svg">
    <path d="M20.774 18C21.5233 18 22.1192 17.5285 22.6544 16.8691C23.7498 15.5194 21.9512 14.4408 21.2653 13.9126C20.5679 13.3756 19.7893 13.0714 18.9999 13M17.9999 11C19.3806 11 20.4999 9.88071 20.4999 8.5C20.4999 7.11929 19.3806 6 17.9999 6" stroke="#333333" stroke-width="1.5" stroke-linecap="round"/>
    <path d="M3.2259 18C2.47659 18 1.88061 17.5285 1.34548 16.8691C0.250028 15.5194 2.04861 14.4408 2.73458 13.9126C3.43191 13.3756 4.21052 13.0714 4.99994 13M5.49994 11C4.11923 11 2.99994 9.88071 2.99994 8.5C2.99994 7.11929 4.11923 6 5.49994 6" stroke="#333333" stroke-width="1.5" stroke-linecap="round"/>
    <path d="M8.08371 15.1112C7.06193 15.743 4.38289 17.0331 6.01461 18.6474C6.81169 19.436 7.69943 20 8.81554 20H15.1843C16.3004 20 17.1881 19.436 17.9852 18.6474C19.6169 17.0331 16.9379 15.743 15.9161 15.1112C13.5201 13.6296 10.4798 13.6296 8.08371 15.1112Z" stroke="#333333" stroke-width="1.5" stroke-linecap="round" stroke-linejoin="round"/>
    <path d="M15.4999 7.5C15.4999 9.433 13.9329 11 11.9999 11C10.0669 11 8.49991 9.433 8.49991 7.5C8.49991 5.567 10.0669 4 11.9999 4C13.9329 4 15.4999 5.567 15.4999 7.5Z" stroke="#333333" stroke-width="1.5"/>
</svg>
