<svg width="32" height="32" viewBox="0 0 32 32" fill="none" xmlns="http://www.w3.org/2000/svg"><rect y=".002" width="32" height="32" rx="16" fill="#48CA08"/><g clip-path="url(#a)"><path d="M22.272 19.78a6.057 6.057 0 0 0-1.735-1.213 4.009 4.009 0 0 0 1.49-3.124c0-2.226-1.856-4.052-4.082-4.018a4.02 4.02 0 0 0-2.467 7.142 6.061 6.061 0 0 0-1.736 1.213 5.988 5.988 0 0 0-1.76 4.096.16.16 0 0 0 .161.165h1.125a.16.16 0 0 0 .16-.155 4.541 4.541 0 0 1 1.34-3.084 4.553 4.553 0 0 1 3.241-1.341c1.224 0 2.375.476 3.24 1.341a4.56 4.56 0 0 1 1.34 3.084.16.16 0 0 0 .161.155h1.125a.16.16 0 0 0 .15-.102.16.16 0 0 0 .011-.063 5.974 5.974 0 0 0-1.764-4.096Zm-4.263-1.766a2.55 2.55 0 0 1-1.818-.753 2.548 2.548 0 0 1-.753-1.845 2.575 2.575 0 0 1 2.545-2.545 2.586 2.586 0 0 1 1.828.736c.498.488.772 1.14.772 1.836a2.55 2.55 0 0 1-.754 1.818 2.556 2.556 0 0 1-1.82.753Zm-5.032-2.041a5.146 5.146 0 0 1 .058-1.465.162.162 0 0 0-.09-.176 2.54 2.54 0 0 1-.742-.505 2.561 2.561 0 0 1-.777-1.916 2.558 2.558 0 0 1 .73-1.72 2.558 2.558 0 0 1 1.872-.777 2.568 2.568 0 0 1 2.137 1.181.16.16 0 0 0 .187.064 4.978 4.978 0 0 1 1.11-.249.161.161 0 0 0 .127-.233 4.025 4.025 0 0 0-3.53-2.208c-2.227-.034-4.083 1.792-4.083 4.016 0 1.262.58 2.387 1.49 3.124a6.042 6.042 0 0 0-1.738 1.214 5.975 5.975 0 0 0-1.763 4.098.16.16 0 0 0 .16.165h1.127a.16.16 0 0 0 .161-.155 4.54 4.54 0 0 1 1.34-3.084c.59-.59 1.314-1 2.103-1.2a.16.16 0 0 0 .12-.174Z" fill="#fff"/></g><defs><clipPath id="a"><path fill="#fff" d="M7 7.002h18v18H7z"/></clipPath></defs></svg>