<svg width="32" height="32" viewBox="0 0 32 32" fill="none" xmlns="http://www.w3.org/2000/svg">
    <rect y="0.00811768" width="32" height="32" rx="16" fill="#007BEC"/>
    <path d="M22.9604 21.0601C22.5814 20.1625 22.0315 19.3471 21.3412 18.6595C20.653 17.9698 19.8378 17.42 18.9405 17.0403C18.9325 17.0362 18.9245 17.0342 18.9164 17.0302C20.168 16.1262 20.9816 14.6537 20.9816 12.9923C20.9816 10.24 18.7517 8.01013 15.9995 8.01013C13.2472 8.01013 11.0173 10.24 11.0173 12.9923C11.0173 14.6537 11.8309 16.1262 13.0825 17.0322C13.0745 17.0362 13.0664 17.0383 13.0584 17.0423C12.1584 17.422 11.3508 17.9664 10.6577 18.6615C9.96807 19.3497 9.41821 20.1649 9.03852 21.0621C8.6655 21.9406 8.46433 22.8823 8.44588 23.8365C8.44535 23.8579 8.44911 23.8792 8.45694 23.8992C8.46478 23.9192 8.47653 23.9374 8.49151 23.9527C8.50649 23.9681 8.52439 23.9803 8.54415 23.9886C8.56392 23.9969 8.58515 24.0012 8.6066 24.0012H9.81195C9.90035 24.0012 9.97066 23.9309 9.97267 23.8445C10.0128 22.2936 10.6356 20.8412 11.7365 19.7403C12.8756 18.6012 14.3883 17.9744 15.9995 17.9744C17.6106 17.9744 19.1233 18.6012 20.2624 19.7403C21.3633 20.8412 21.9861 22.2936 22.0262 23.8445C22.0282 23.9329 22.0986 24.0012 22.187 24.0012H23.3923C23.4138 24.0012 23.435 23.9969 23.4548 23.9886C23.4745 23.9803 23.4924 23.9681 23.5074 23.9527C23.5224 23.9374 23.5341 23.9192 23.542 23.8992C23.5498 23.8792 23.5536 23.8579 23.553 23.8365C23.5329 22.8762 23.3341 21.9421 22.9604 21.0601ZM15.9995 16.4476C15.0774 16.4476 14.2095 16.088 13.5566 15.4351C12.9037 14.7822 12.5441 13.9144 12.5441 12.9923C12.5441 12.0702 12.9037 11.2023 13.5566 10.5494C14.2095 9.89652 15.0774 9.53692 15.9995 9.53692C16.9216 9.53692 17.7894 9.89652 18.4423 10.5494C19.0952 11.2023 19.4548 12.0702 19.4548 12.9923C19.4548 13.9144 19.0952 14.7822 18.4423 15.4351C17.7894 16.088 16.9216 16.4476 15.9995 16.4476Z" fill="white"/>
</svg>
