<svg width="32" height="32" viewBox="0 0 32 32" fill="none" xmlns="http://www.w3.org/2000/svg">
    <rect width="32" height="32" rx="16" fill="#FFA940"/>
    <path d="M20.821 19.054c-.572 0-1.1.2-1.515.536l-4.162-3.011c.07-.383.07-.775 0-1.157l4.162-3.012a2.413 2.413 0 0 0 3.925-1.874 2.41 2.41 0 0 0-2.41-2.41 2.413 2.413 0 0 0-2.316 3.079l-3.954 2.863a3.213 3.213 0 1 0-2.57 5.147 3.212 3.212 0 0 0 2.57-1.282l3.954 2.863a2.413 2.413 0 0 0 2.316 3.08 2.411 2.411 0 0 0 .001-4.822Zm0-9.563a1.045 1.045 0 1 1 0 2.09 1.045 1.045 0 0 1 0-2.09Zm-8.839 8.277A1.77 1.77 0 0 1 10.214 16a1.77 1.77 0 0 1 1.768-1.768A1.77 1.77 0 0 1 13.75 16a1.77 1.77 0 0 1-1.768 1.768Zm8.84 4.741a1.045 1.045 0 1 1 0-2.09 1.045 1.045 0 0 1 0 2.09Z" fill="#fff"/>
</svg>
