<svg width="32" height="32" viewBox="0 0 32 32" fill="none" xmlns="http://www.w3.org/2000/svg">
    <rect y=".001" width="32" height="32" rx="16" fill="#416ef0"/>
    <g clip-path="url(#a)">
        <path d="M9.591 21.705c0 .356.288.643.643.643h11.531a.642.642 0 0 0 .643-.643v-4.68A6.408 6.408 0 0 0 16 10.616a6.408 6.408 0 0 0-6.409 6.409v4.68Zm1.447-4.68a4.962 4.962 0 0 1 9.924 0v3.877H13.83v-3.436a.2.2 0 0 0-.2-.2h-.885a.2.2 0 0 0-.2.2v3.436h-1.507v-3.877Zm-.966-5.073.795-.796a.161.161 0 0 0 0-.226L9.503 9.565a.161.161 0 0 0-.227 0l-.796.796a.161.161 0 0 0 0 .227l1.364 1.364a.161.161 0 0 0 .228 0Zm13.451-1.591-.795-.796a.161.161 0 0 0-.227 0l-1.364 1.365a.16.16 0 0 0 0 .226l.795.796a.161.161 0 0 0 .227 0l1.364-1.364a.161.161 0 0 0 0-.227Zm-1.095 13.273H9.571a.642.642 0 0 0-.643.643v.482c0 .088.073.16.161.16H22.91a.16.16 0 0 0 .161-.16v-.482a.642.642 0 0 0-.643-.643ZM15.438 9.33h1.124a.16.16 0 0 0 .161-.16V7.24a.161.161 0 0 0-.16-.16h-1.126a.161.161 0 0 0-.16.16v1.93c0 .088.072.16.16.16Z" fill="#fff"/>
    </g>
    <defs>
        <clipPath id="a">
            <path fill="#fff" d="M7 7.001h18v18H7z"/>
        </clipPath>
    </defs>
</svg>
